<svg width="27" height="267" viewBox="0 0 27 267" fill="none" xmlns="http://www.w3.org/2000/svg">
<path d="M7.12 19.5055L7.50133 20.4299L8.12 20.1747L8.12 19.5055L7.12 19.5055ZM2 21.6175L1.61867 20.6931L0.999999 20.9483L0.999999 21.6175L2 21.6175ZM2 27.5375L0.999999 27.5375L0.999999 29.0467L2.38981 28.4584L2 27.5375ZM24.528 18.0015L24.9178 18.9224L25.528 18.6641L25.528 18.0015L24.528 18.0015ZM24.528 10.9615L25.528 10.9615L25.528 10.2857L24.901 10.0337L24.528 10.9615ZM2 1.9055L2.37298 0.97766L1 0.425737L1 1.9055L2 1.9055ZM2 7.5375L1 7.5375L1 8.22646L1.64376 8.47189L2 7.5375ZM7.12 9.4895L8.12 9.4895L8.12 8.80054L7.47624 8.5551L7.12 9.4895ZM11.504 10.8975L11.8625 9.96398L10.504 9.44223L10.504 10.8975L11.504 10.8975ZM21.008 14.2895L22.008 14.2895L22.008 13.5372L21.2852 13.3287L21.008 14.2895ZM21.008 14.3215L21.3134 15.2737L22.008 15.0509L22.008 14.3215L21.008 14.3215ZM11.504 18.0015L10.504 18.0015L10.504 19.4922L11.8833 18.9268L11.504 18.0015ZM6.73867 18.5811L1.61867 20.6931L2.38133 22.5419L7.50133 20.4299L6.73867 18.5811ZM0.999999 21.6175L0.999999 27.5375L3 27.5375L3 21.6175L0.999999 21.6175ZM2.38981 28.4584L24.9178 18.9224L24.1382 17.0806L1.61019 26.6166L2.38981 28.4584ZM25.528 18.0015L25.528 10.9615L23.528 10.9615L23.528 18.0015L25.528 18.0015ZM24.901 10.0337L2.37298 0.97766L1.62702 2.83334L24.155 11.8893L24.901 10.0337ZM1 1.9055L1 7.5375L3 7.5375L3 1.9055L1 1.9055ZM1.64376 8.47189L6.76376 10.4239L7.47624 8.5551L2.35624 6.6031L1.64376 8.47189ZM6.12 9.4895L6.12 19.5055L8.12 19.5055L8.12 9.4895L6.12 9.4895ZM11.1455 11.831C15.5599 13.5264 19.0206 14.757 20.7308 15.2503L21.2852 13.3287C19.6674 12.862 16.2801 11.6606 11.8625 9.96398L11.1455 11.831ZM20.008 14.2895L20.008 14.3215L22.008 14.3215L22.008 14.2895L20.008 14.2895ZM20.7026 13.3693C18.963 13.9272 16.2711 14.9665 11.1247 17.0762L11.8833 18.9268C17.0409 16.8125 19.661 15.8038 21.3134 15.2737L20.7026 13.3693ZM12.504 18.0015L12.504 10.8975L10.504 10.8975L10.504 18.0015L12.504 18.0015ZM7.12 54.0367L7.50133 54.9612L8.12 54.706L8.12 54.0367L7.12 54.0367ZM2 56.1487L1.61867 55.2243L0.999998 55.4795L0.999998 56.1487L2 56.1487ZM2 62.0687L0.999997 62.0687L0.999997 63.5779L2.38981 62.9896L2 62.0687ZM24.528 52.5328L24.9178 53.4536L25.528 53.1954L25.528 52.5328L24.528 52.5328ZM24.528 45.4927L25.528 45.4928L25.528 44.817L24.901 44.5649L24.528 45.4927ZM2 36.4367L2.37298 35.5089L0.999999 34.957L0.999998 36.4367L2 36.4367ZM2 42.0687L0.999998 42.0687L0.999998 42.7577L1.64376 43.0031L2 42.0687ZM7.12 44.0207L8.12 44.0207L8.12 43.3318L7.47624 43.0864L7.12 44.0207ZM11.504 45.4287L11.8625 44.4952L10.504 43.9735L10.504 45.4287L11.504 45.4287ZM21.008 48.8207L22.008 48.8207L22.008 48.0684L21.2852 47.8599L21.008 48.8207ZM21.008 48.8528L21.3134 49.805L22.008 49.5822L22.008 48.8528L21.008 48.8528ZM11.504 52.5328L10.504 52.5328L10.504 54.0235L11.8833 53.458L11.504 52.5328ZM6.73867 53.1123L1.61867 55.2243L2.38133 57.0732L7.50133 54.9612L6.73867 53.1123ZM0.999998 56.1487L0.999997 62.0687L3 62.0687L3 56.1487L0.999998 56.1487ZM2.38981 62.9896L24.9178 53.4536L24.1382 51.6119L1.61019 61.1479L2.38981 62.9896ZM25.528 52.5328L25.528 45.4928L23.528 45.4927L23.528 52.5328L25.528 52.5328ZM24.901 44.5649L2.37298 35.5089L1.62702 37.3646L24.155 46.4206L24.901 44.5649ZM0.999998 36.4367L0.999998 42.0687L3 42.0687L3 36.4367L0.999998 36.4367ZM1.64376 43.0031L6.76376 44.9551L7.47624 43.0864L2.35624 41.1344L1.64376 43.0031ZM6.12 44.0207L6.12 54.0367L8.12 54.0367L8.12 44.0207L6.12 44.0207ZM11.1455 46.3623C15.5599 48.0577 19.0206 49.2882 20.7308 49.7816L21.2852 47.8599C19.6674 47.3933 16.2801 46.1918 11.8625 44.4952L11.1455 46.3623ZM20.008 48.8207L20.008 48.8528L22.008 48.8528L22.008 48.8207L20.008 48.8207ZM20.7026 47.9005C18.963 48.4585 16.2711 49.4978 11.1247 51.6075L11.8833 53.458C17.0409 51.3437 19.661 50.335 21.3134 49.805L20.7026 47.9005ZM12.504 52.5328L12.504 45.4287L10.504 45.4287L10.504 52.5328L12.504 52.5328ZM15.888 83.0233L15.888 84.0233L16.888 84.0233L16.888 83.0233L15.888 83.0233ZM15.888 70.4472L15.888 69.4472L14.888 69.4472L14.888 70.4472L15.888 70.4472ZM20.144 70.4472L21.144 70.4473L21.144 69.4473L20.144 69.4472L20.144 70.4472ZM20.144 83.6953L19.144 83.6953L19.144 84.6953L20.144 84.6953L20.144 83.6953ZM24.528 83.6953L24.528 84.6953L25.528 84.6953L25.528 83.6953L24.528 83.6953ZM24.528 64.9753L25.528 64.9753L25.528 63.9753L24.528 63.9753L24.528 64.9753ZM2 64.9752L2 63.9752L0.999997 63.9752L0.999997 64.9752L2 64.9752ZM2 83.7912L0.999996 83.7912L0.999996 84.6559L1.85554 84.7808L2 83.7912ZM6.384 84.4313L6.23954 85.4208L7.384 85.5878L7.384 84.4313L6.384 84.4313ZM6.384 70.4472L6.384 69.4472L5.384 69.4472L5.384 70.4472L6.384 70.4472ZM11.504 70.4472L12.504 70.4472L12.504 69.4472L11.504 69.4472L11.504 70.4472ZM11.504 83.0232L10.504 83.0232L10.504 84.0232L11.504 84.0232L11.504 83.0232ZM16.888 83.0233L16.888 70.4472L14.888 70.4472L14.888 83.0232L16.888 83.0233ZM15.888 71.4472L20.144 71.4472L20.144 69.4472L15.888 69.4472L15.888 71.4472ZM19.144 70.4472L19.144 83.6953L21.144 83.6953L21.144 70.4473L19.144 70.4472ZM20.144 84.6953L24.528 84.6953L24.528 82.6953L20.144 82.6953L20.144 84.6953ZM25.528 83.6953L25.528 64.9753L23.528 64.9753L23.528 83.6953L25.528 83.6953ZM24.528 63.9753L2 63.9752L2 65.9752L24.528 65.9753L24.528 63.9753ZM0.999997 64.9752L0.999996 83.7912L3 83.7912L3 64.9752L0.999997 64.9752ZM1.85554 84.7808L6.23954 85.4208L6.52845 83.4417L2.14445 82.8017L1.85554 84.7808ZM7.384 84.4313L7.384 70.4472L5.384 70.4472L5.384 84.4313L7.384 84.4313ZM6.384 71.4472L11.504 71.4472L11.504 69.4472L6.384 69.4472L6.384 71.4472ZM10.504 70.4472L10.504 83.0232L12.504 83.0232L12.504 70.4472L10.504 70.4472ZM11.504 84.0232L15.888 84.0233L15.888 82.0233L11.504 82.0232L11.504 84.0232ZM8.752 86.704L9.752 86.704L9.752 85.5159L8.58131 85.7187L8.752 86.704ZM16.016 98.352L17.0002 98.5289L17.0012 98.5237L16.016 98.352ZM18.384 101.904L18.1093 100.942L17.384 101.15L17.384 101.904L18.384 101.904ZM18.384 107.376L17.384 107.376L17.384 108.478L18.4811 108.371L18.384 107.376ZM11.28 96.88L10.2944 96.711L10.294 96.7134L11.28 96.88ZM8.752 92.208L9.06355 93.1582L9.752 92.9325L9.752 92.208L8.752 92.208ZM8.58131 85.7187C6.33185 86.1083 4.28786 87.1952 2.82188 89.1922C1.3671 91.174 0.551996 93.9552 0.551996 97.616L2.552 97.616C2.552 94.2368 3.30489 91.914 4.43411 90.3758C5.55213 88.8528 7.10815 88.0037 8.92268 87.6893L8.58131 85.7187ZM0.551996 97.616C0.551996 101.513 1.36672 104.411 2.8231 106.359C4.30677 108.343 6.38242 109.24 8.624 109.24L8.624 107.24C6.96157 107.24 5.50122 106.601 4.42489 105.161C3.32127 103.685 2.552 101.271 2.552 97.616L0.551996 97.616ZM8.624 109.24C10.4165 109.24 12.2079 108.86 13.7154 107.164C15.1523 105.548 16.2237 102.848 17.0002 98.5289L15.0318 98.1751C14.2722 102.4 13.2797 104.644 12.2206 105.836C11.2321 106.948 10.0955 107.24 8.624 107.24L8.624 109.24ZM17.0012 98.5237C17.3702 96.4058 17.7017 95.2721 18.0312 94.6757C18.1837 94.3998 18.3012 94.305 18.3627 94.268C18.419 94.2342 18.5084 94.2 18.704 94.2L18.704 92.2C18.2596 92.2 17.7849 92.2818 17.3323 92.554C16.8848 92.823 16.5483 93.2242 16.2808 93.7083C15.7703 94.6319 15.3978 96.0742 15.0308 98.1803L17.0012 98.5237ZM18.704 94.2C19.0798 94.2 19.335 94.336 19.551 94.6953C19.8078 95.1224 20.008 95.8868 20.008 97.104L22.008 97.104C22.008 95.7292 21.7922 94.5416 21.265 93.6647C20.697 92.72 19.8002 92.2 18.704 92.2L18.704 94.2ZM20.008 97.104C20.008 98.8379 19.6552 99.7185 19.3127 100.18C18.9839 100.624 18.5708 100.811 18.1093 100.942L18.6587 102.866C19.3172 102.677 20.2161 102.32 20.9193 101.372C21.6088 100.441 22.008 99.0821 22.008 97.104L20.008 97.104ZM17.384 101.904L17.384 107.376L19.384 107.376L19.384 101.904L17.384 101.904ZM18.4811 108.371C20.0024 108.223 21.9041 107.537 23.4199 105.787C24.9377 104.034 25.976 101.323 25.976 97.296L23.976 97.296C23.976 100.981 23.0303 103.182 21.9081 104.477C20.7839 105.775 19.3896 106.273 18.2869 106.381L18.4811 108.371ZM25.976 97.296C25.976 94.5015 25.3849 91.8768 24.1154 89.9164C22.82 87.9162 20.8239 86.632 18.192 86.632L18.192 88.632C20.0721 88.632 21.468 89.5078 22.4366 91.0036C23.4311 92.5392 23.976 94.7465 23.976 97.296L25.976 97.296ZM18.192 86.632C16.4917 86.632 14.7817 87.0384 13.3515 88.6529C11.9841 90.1964 10.9762 92.734 10.2944 96.711L12.2656 97.049C12.9278 93.186 13.8559 91.0996 14.8485 89.9791C15.7783 88.9296 16.8523 88.632 18.192 88.632L18.192 86.632ZM10.294 96.7134C9.8941 99.0806 9.50011 100.35 9.09593 101.019C8.90901 101.329 8.74821 101.46 8.62589 101.527C8.50129 101.594 8.33097 101.64 8.048 101.64L8.048 103.64C8.54902 103.64 9.0747 103.558 9.5781 103.285C10.0838 103.012 10.483 102.591 10.8081 102.053C11.4279 101.026 11.8659 99.4154 12.266 97.0466L10.294 96.7134ZM8.048 101.64C7.59808 101.64 7.31303 101.51 7.07977 101.155C6.7889 100.712 6.52 99.8225 6.52 98.128L4.52 98.128C4.52 99.9535 4.79509 101.32 5.40823 102.253C6.07896 103.274 7.05791 103.64 8.048 103.64L8.048 101.64ZM6.52 98.128C6.52 96.3559 6.82523 95.2394 7.25954 94.5217C7.67606 93.8334 8.26714 93.4193 9.06355 93.1582L8.44045 91.2578C7.28485 91.6367 6.25993 92.3106 5.54845 93.4863C4.85476 94.6326 4.52 96.1561 4.52 98.128L6.52 98.128ZM9.752 92.208L9.752 86.704L7.752 86.704L7.752 92.208L9.752 92.208ZM1.99999 117.91L1.99999 116.91L0.999995 116.91L0.999995 117.91L1.99999 117.91ZM1.99999 123.382L0.999995 123.382L0.999995 124.382L1.99999 124.382L1.99999 123.382ZM20.176 123.382L21.176 123.382L21.176 122.382L20.176 122.382L20.176 123.382ZM20.176 131.286L19.176 131.286L19.176 132.286L20.176 132.286L20.176 131.286ZM24.528 131.286L24.528 132.286L25.528 132.286L25.528 131.286L24.528 131.286ZM24.528 109.974L25.528 109.974L25.528 108.974L24.528 108.974L24.528 109.974ZM20.176 109.974L20.176 108.974L19.176 108.974L19.176 109.974L20.176 109.974ZM20.176 117.91L20.176 118.91L21.176 118.91L21.176 117.91L20.176 117.91ZM0.999995 117.91L0.999995 123.382L2.99999 123.382L2.99999 117.91L0.999995 117.91ZM1.99999 124.382L20.176 124.382L20.176 122.382L1.99999 122.382L1.99999 124.382ZM19.176 123.382L19.176 131.286L21.176 131.286L21.176 123.382L19.176 123.382ZM20.176 132.286L24.528 132.286L24.528 130.286L20.176 130.286L20.176 132.286ZM25.528 131.286L25.528 109.974L23.528 109.974L23.528 131.286L25.528 131.286ZM24.528 108.974L20.176 108.974L20.176 110.974L24.528 110.974L24.528 108.974ZM19.176 109.974L19.176 117.91L21.176 117.91L21.176 109.974L19.176 109.974ZM20.176 116.91L1.99999 116.91L1.99999 118.91L20.176 118.91L20.176 116.91ZM1.99999 134.788L1.99999 133.788L0.999994 133.788L0.999994 134.788L1.99999 134.788ZM1.99999 140.26L0.999994 140.26L0.999994 141.26L1.99999 141.26L1.99999 140.26ZM11.696 140.26L12.696 140.26L12.696 139.26L11.696 139.26L11.696 140.26ZM11.696 150.628L11.696 151.628L12.696 151.628L12.696 150.628L11.696 150.628ZM1.99999 150.628L1.99999 149.628L0.999994 149.628L0.999993 150.628L1.99999 150.628ZM1.99999 156.1L0.999993 156.1L0.999993 157.1L1.99999 157.1L1.99999 156.1ZM24.528 156.1L24.528 157.1L25.528 157.1L25.528 156.1L24.528 156.1ZM24.528 150.628L25.528 150.628L25.528 149.628L24.528 149.628L24.528 150.628ZM16.08 150.628L15.08 150.628L15.08 151.628L16.08 151.628L16.08 150.628ZM16.08 140.26L16.08 139.26L15.08 139.26L15.08 140.26L16.08 140.26ZM24.528 140.26L24.528 141.26L25.528 141.26L25.528 140.26L24.528 140.26ZM24.528 134.788L25.528 134.788L25.528 133.788L24.528 133.788L24.528 134.788ZM0.999994 134.788L0.999994 140.26L2.99999 140.26L2.99999 134.788L0.999994 134.788ZM1.99999 141.26L11.696 141.26L11.696 139.26L1.99999 139.26L1.99999 141.26ZM10.696 140.26L10.696 150.628L12.696 150.628L12.696 140.26L10.696 140.26ZM11.696 149.628L1.99999 149.628L1.99999 151.628L11.696 151.628L11.696 149.628ZM0.999993 150.628L0.999993 156.1L2.99999 156.1L2.99999 150.628L0.999993 150.628ZM1.99999 157.1L24.528 157.1L24.528 155.1L1.99999 155.1L1.99999 157.1ZM25.528 156.1L25.528 150.628L23.528 150.628L23.528 156.1L25.528 156.1ZM24.528 149.628L16.08 149.628L16.08 151.628L24.528 151.628L24.528 149.628ZM17.08 150.628L17.08 140.26L15.08 140.26L15.08 150.628L17.08 150.628ZM16.08 141.26L24.528 141.26L24.528 139.26L16.08 139.26L16.08 141.26ZM25.528 140.26L25.528 134.788L23.528 134.788L23.528 140.26L25.528 140.26ZM24.528 133.788L1.99999 133.788L1.99999 135.788L24.528 135.788L24.528 133.788ZM15.888 180.023L15.888 181.023L16.888 181.023L16.888 180.023L15.888 180.023ZM15.888 167.447L15.888 166.447L14.888 166.447L14.888 167.447L15.888 167.447ZM20.144 167.447L21.144 167.447L21.144 166.447L20.144 166.447L20.144 167.447ZM20.144 180.695L19.144 180.695L19.144 181.695L20.144 181.695L20.144 180.695ZM24.528 180.695L24.528 181.695L25.528 181.695L25.528 180.695L24.528 180.695ZM24.528 161.975L25.528 161.975L25.528 160.975L24.528 160.975L24.528 161.975ZM1.99999 161.975L1.99999 160.975L0.999993 160.975L0.999993 161.975L1.99999 161.975ZM1.99999 180.791L0.999992 180.791L0.999992 181.656L1.85554 181.781L1.99999 180.791ZM6.38399 181.431L6.23954 182.421L7.38399 182.588L7.38399 181.431L6.38399 181.431ZM6.38399 167.447L6.38399 166.447L5.38399 166.447L5.38399 167.447L6.38399 167.447ZM11.504 167.447L12.504 167.447L12.504 166.447L11.504 166.447L11.504 167.447ZM11.504 180.023L10.504 180.023L10.504 181.023L11.504 181.023L11.504 180.023ZM16.888 180.023L16.888 167.447L14.888 167.447L14.888 180.023L16.888 180.023ZM15.888 168.447L20.144 168.447L20.144 166.447L15.888 166.447L15.888 168.447ZM19.144 167.447L19.144 180.695L21.144 180.695L21.144 167.447L19.144 167.447ZM20.144 181.695L24.528 181.695L24.528 179.695L20.144 179.695L20.144 181.695ZM25.528 180.695L25.528 161.975L23.528 161.975L23.528 180.695L25.528 180.695ZM24.528 160.975L1.99999 160.975L1.99999 162.975L24.528 162.975L24.528 160.975ZM0.999993 161.975L0.999992 180.791L2.99999 180.791L2.99999 161.975L0.999993 161.975ZM1.85554 181.781L6.23954 182.421L6.52845 180.442L2.14445 179.802L1.85554 181.781ZM7.38399 181.431L7.38399 167.447L5.38399 167.447L5.38399 181.431L7.38399 181.431ZM6.38399 168.447L11.504 168.447L11.504 166.447L6.38399 166.447L6.38399 168.447ZM10.504 167.447L10.504 180.023L12.504 180.023L12.504 167.447L10.504 167.447ZM11.504 181.023L15.888 181.023L15.888 179.023L11.504 179.023L11.504 181.023ZM1.99999 191.379L1.99999 190.379L0.999992 190.379L0.999992 191.379L1.99999 191.379ZM1.99999 196.851L0.999991 196.851L0.999991 197.851L1.99999 197.851L1.99999 196.851ZM20.176 196.851L21.176 196.851L21.176 195.851L20.176 195.851L20.176 196.851ZM20.176 204.755L19.176 204.755L19.176 205.755L20.176 205.755L20.176 204.755ZM24.528 204.755L24.528 205.755L25.528 205.755L25.528 204.755L24.528 204.755ZM24.528 183.443L25.528 183.443L25.528 182.443L24.528 182.443L24.528 183.443ZM20.176 183.443L20.176 182.443L19.176 182.443L19.176 183.443L20.176 183.443ZM20.176 191.379L20.176 192.379L21.176 192.379L21.176 191.379L20.176 191.379ZM0.999992 191.379L0.999991 196.851L2.99999 196.851L2.99999 191.379L0.999992 191.379ZM1.99999 197.851L20.176 197.851L20.176 195.851L1.99999 195.851L1.99999 197.851ZM19.176 196.851L19.176 204.755L21.176 204.755L21.176 196.851L19.176 196.851ZM20.176 205.755L24.528 205.755L24.528 203.755L20.176 203.755L20.176 205.755ZM25.528 204.755L25.528 183.443L23.528 183.443L23.528 204.755L25.528 204.755ZM24.528 182.443L20.176 182.443L20.176 184.443L24.528 184.443L24.528 182.443ZM19.176 183.443L19.176 191.379L21.176 191.379L21.176 183.443L19.176 183.443ZM20.176 190.379L1.99999 190.379L1.99999 192.379L20.176 192.379L20.176 190.379ZM24.528 208.257L25.528 208.257L25.528 207.257L24.528 207.257L24.528 208.257ZM1.99999 208.256L1.99999 207.256L0.999991 207.256L0.999991 208.256L1.99999 208.256ZM1.99999 213.728L0.999991 213.728L0.999991 214.728L1.99999 214.728L1.99999 213.728ZM24.528 213.729L24.528 214.729L25.528 214.729L25.528 213.729L24.528 213.729ZM24.528 207.257L1.99999 207.256L1.99999 209.256L24.528 209.257L24.528 207.257ZM0.999991 208.256L0.999991 213.728L2.99999 213.728L2.99999 208.256L0.999991 208.256ZM1.99999 214.728L24.528 214.729L24.528 212.729L1.99999 212.728L1.99999 214.728ZM25.528 213.729L25.528 208.257L23.528 208.257L23.528 213.729L25.528 213.729ZM9.16799 236.108L10.168 236.108L10.168 235.438L9.54874 235.183L9.16799 236.108ZM17.424 236.108L17.0729 235.171L16.424 235.415L16.424 236.108L17.424 236.108ZM17.424 241.644L16.424 241.644L16.424 242.839L17.6007 242.628L17.424 241.644ZM9.16799 241.58L8.91811 242.548L10.168 242.871L10.168 241.58L9.16799 241.58ZM9.54874 235.183C8.56664 234.779 7.90392 234.304 7.46848 233.66C7.03149 233.013 6.74399 232.078 6.74399 230.604L4.74399 230.604C4.74399 232.329 5.08049 233.698 5.8115 234.78C6.54406 235.864 7.59334 236.541 8.78724 237.032L9.54874 235.183ZM6.74399 230.604C6.74399 228.682 7.49336 227.376 8.63853 226.521C9.82226 225.636 11.5172 225.172 13.456 225.172L13.456 223.172C11.2348 223.172 9.07372 223.699 7.44145 224.919C5.77062 226.167 4.74399 228.077 4.74399 230.604L6.74399 230.604ZM13.456 225.172C15.3389 225.172 16.9282 225.673 18.0256 226.564C19.0967 227.434 19.784 228.741 19.784 230.572L21.784 230.572C21.784 228.178 20.8553 226.286 19.2864 225.011C17.7438 223.759 15.669 223.172 13.456 223.172L13.456 225.172ZM19.784 230.572C19.784 232.3 19.3208 233.332 18.8053 233.972C18.2795 234.625 17.6213 234.966 17.0729 235.171L17.7751 237.044C18.5067 236.77 19.5285 236.262 20.3627 235.227C21.2072 234.179 21.784 232.684 21.784 230.572L19.784 230.572ZM16.424 236.108L16.424 241.644L18.424 241.644L18.424 236.108L16.424 236.108ZM17.6007 242.628C21.8667 241.862 26.008 237.984 26.008 230.636L24.008 230.636C24.008 237.111 20.4693 240.081 17.2473 240.659L17.6007 242.628ZM26.008 230.636C26.008 226.404 24.5135 223.076 22.1241 220.81C19.7459 218.555 16.5465 217.412 13.232 217.412L13.232 219.412C16.0935 219.412 18.782 220.397 20.7478 222.261C22.7025 224.115 24.008 226.9 24.008 230.636L26.008 230.636ZM13.232 217.412C9.9567 217.412 6.77304 218.444 4.39701 220.618C2.00543 222.806 0.51999 226.07 0.51999 230.348L2.51999 230.348C2.51999 226.561 3.81855 223.858 5.74697 222.094C7.69094 220.315 10.3633 219.412 13.232 219.412L13.232 217.412ZM0.51999 230.348C0.51999 234.062 1.48944 236.845 3.0707 238.851C4.64872 240.852 6.76791 241.993 8.91811 242.548L9.41787 240.611C7.60007 240.142 5.89526 239.203 4.64128 237.613C3.39054 236.026 2.51999 233.705 2.51999 230.348L0.51999 230.348ZM10.168 241.58L10.168 236.108L8.16799 236.108L8.16799 241.58L10.168 241.58ZM8.75199 243.798L9.75199 243.798L9.75199 242.61L8.5813 242.812L8.75199 243.798ZM16.016 255.446L17.0002 255.623L17.0011 255.617L16.016 255.446ZM18.384 258.998L18.1093 258.036L17.384 258.243L17.384 258.998L18.384 258.998ZM18.384 264.47L17.384 264.47L17.384 265.572L18.4811 265.465L18.384 264.47ZM11.28 253.974L10.2944 253.805L10.294 253.807L11.28 253.974ZM8.75199 249.302L9.06354 250.252L9.75199 250.026L9.75199 249.302L8.75199 249.302ZM8.5813 242.812C6.33184 243.202 4.28785 244.289 2.82188 246.286C1.36709 248.268 0.551989 251.049 0.551989 254.71L2.55199 254.71C2.55199 251.331 3.30489 249.008 4.4341 247.47C5.55213 245.947 7.10814 245.097 8.92268 244.783L8.5813 242.812ZM0.551989 254.71C0.551989 258.607 1.36671 261.505 2.82309 263.453C4.30677 265.437 6.38241 266.334 8.62399 266.334L8.62399 264.334C6.96156 264.334 5.50121 263.695 4.42489 262.255C3.32126 260.779 2.55199 258.365 2.55199 254.71L0.551989 254.71ZM8.62399 266.334C10.4165 266.334 12.2079 265.954 13.7154 264.258C15.1523 262.642 16.2237 259.942 17.0002 255.623L15.0318 255.269C14.2722 259.494 13.2797 261.738 12.2206 262.929C11.2321 264.041 10.0955 264.334 8.62399 264.334L8.62399 266.334ZM17.0011 255.617C17.3702 253.5 17.7016 252.366 18.0312 251.769C18.1837 251.494 18.3012 251.399 18.3627 251.362C18.419 251.328 18.5084 251.294 18.704 251.294L18.704 249.294C18.2596 249.294 17.7849 249.376 17.3323 249.648C16.8848 249.917 16.5483 250.318 16.2807 250.802C15.7703 251.726 15.3978 253.168 15.0308 255.274L17.0011 255.617ZM18.704 251.294C19.0797 251.294 19.3349 251.43 19.551 251.789C19.8078 252.216 20.008 252.981 20.008 254.198L22.008 254.198C22.008 252.823 21.7922 251.635 21.265 250.758C20.697 249.814 19.8002 249.294 18.704 249.294L18.704 251.294ZM20.008 254.198C20.008 255.932 19.6552 256.812 19.3127 257.274C18.9839 257.718 18.5708 257.904 18.1093 258.036L18.6587 259.959C19.3172 259.771 20.2161 259.414 20.9193 258.465C21.6088 257.535 22.008 256.176 22.008 254.198L20.008 254.198ZM17.384 258.998L17.384 264.47L19.384 264.47L19.384 258.998L17.384 258.998ZM18.4811 265.465C20.0024 265.317 21.9041 264.63 23.4199 262.88C24.9377 261.128 25.976 258.416 25.976 254.39L23.976 254.39C23.976 258.075 23.0302 260.275 21.9081 261.571C20.7839 262.869 19.3896 263.367 18.2869 263.474L18.4811 265.465ZM25.976 254.39C25.976 251.595 25.3849 248.971 24.1154 247.01C22.82 245.01 20.8239 243.726 18.192 243.726L18.192 245.726C20.0721 245.726 21.468 246.602 22.4366 248.097C23.4311 249.633 23.976 251.84 23.976 254.39L25.976 254.39ZM18.192 243.726C16.4917 243.726 14.7817 244.132 13.3515 245.747C11.9841 247.29 10.9762 249.828 10.2944 253.805L12.2656 254.143C12.9278 250.28 13.8559 248.193 14.8485 247.073C15.7783 246.023 16.8523 245.726 18.192 245.726L18.192 243.726ZM10.294 253.807C9.8941 256.174 9.5001 257.443 9.09592 258.113C8.90901 258.422 8.7482 258.554 8.62589 258.62C8.50129 258.688 8.33097 258.734 8.04799 258.734L8.04799 260.734C8.54901 260.734 9.07469 260.652 9.57809 260.379C10.0838 260.105 10.483 259.685 10.8081 259.147C11.4279 258.12 11.8659 256.509 12.266 254.14L10.294 253.807ZM8.04799 258.734C7.59808 258.734 7.31303 258.604 7.07976 258.249C6.78889 257.806 6.51999 256.916 6.51999 255.222L4.51999 255.222C4.51999 257.047 4.79508 258.414 5.40822 259.347C6.07895 260.368 7.0579 260.734 8.04799 260.734L8.04799 258.734ZM6.51999 255.222C6.51999 253.45 6.82522 252.333 7.25953 251.615C7.67606 250.927 8.26714 250.513 9.06354 250.252L8.44044 248.352C7.28484 248.73 6.25992 249.404 5.54845 250.58C4.85475 251.726 4.51999 253.25 4.51999 255.222L6.51999 255.222ZM9.75199 249.302L9.75199 243.798L7.75199 243.798L7.75199 249.302L9.75199 249.302Z" fill="#D8B281"/>
</svg>
