<svg width="139" height="139" viewBox="0 0 139 139" fill="none" xmlns="http://www.w3.org/2000/svg">
<g clip-path="url(#clip0)">
<path d="M69.5076 139C107.789 139 138.998 107.79 138.998 69.5076C138.998 31.2252 107.789 0 69.5076 0C31.2267 0 0 31.2237 0 69.5076C0 107.792 31.2237 139 69.5076 139Z" fill="#EDD9C1"/>
<path d="M29.7153 54.2611C31.7505 56.4291 33.7856 58.6109 37.4189 60.6782C53.0445 69.5398 84.152 69.5398 99.7791 60.6782C103.411 58.6125 105.446 56.4307 107.481 54.2611C107.16 53.0464 106.823 51.844 106.486 50.6736C103.558 40.5392 100.291 32.7333 98.812 26.084C97.4506 19.9328 97.6111 11.6135 97.8952 6.04897C88.6645 1.9292 78.6473 -0.130919 68.54 0.0118249C58.4326 0.154568 48.4776 2.49675 39.3669 6.87555C39.6007 12.4844 39.645 20.4079 38.3845 26.0901C36.9055 32.7394 33.6389 40.5453 30.71 50.6797C30.3738 51.8501 30.0377 53.0525 29.7153 54.2672V54.2611Z" fill="#F8A94E"/>
<path d="M51.7414 65.7721C46.2792 64.6888 41.0462 62.727 37.4191 60.6766C33.7919 58.6262 31.7507 56.4291 29.7155 54.2595C29.0555 56.75 28.4306 59.3224 27.8408 61.9768C31.2678 65.4482 34.6949 68.9332 40.6551 74.0745C46.6154 79.2158 55.1103 86.0256 63.6038 92.8353C69.0079 95.6619 73.593 92.8353 73.593 92.8353C82.0865 86.0256 90.5815 79.2158 96.5417 74.0745C102.502 68.9332 105.929 65.4482 109.356 61.9768C108.785 59.326 108.134 56.75 107.481 54.2595C105.446 56.4276 103.411 58.6094 99.7793 60.6766C96.1475 62.7438 90.9176 64.6888 85.4555 65.7721C79.9933 66.8553 74.302 67.0616 68.5984 67.2663C62.901 67.0616 57.2035 66.8416 51.7414 65.7721Z" fill="white"/>
<path d="M68.6016 36.7453C69.2128 36.7453 69.7139 35.7782 69.7139 34.5773C69.7139 33.3764 69.2128 32.3909 68.6016 32.3909C67.9905 32.3909 67.4878 33.3718 67.4878 34.5727C67.4878 35.7736 67.9905 36.7453 68.6016 36.7453Z" fill="#CE3F14"/>
<path d="M63.6038 92.8368C55.1103 86.027 46.6153 79.2173 40.6551 74.076C34.6948 68.9347 31.2678 65.4496 27.8408 61.9783C26.2289 69.361 25.0142 77.2112 24.6628 84.5771C24.1403 95.8971 25.6681 106.077 26.9623 113.179C27.5474 116.446 28.704 121.601 29.8912 126.609C40.1102 133.736 52.0695 137.96 64.4976 138.832C64.6504 120.45 67.2065 111.65 63.6038 92.8429V92.8368Z" fill="#F8A94E"/>
<path d="M73.5929 92.8368C82.0863 86.027 90.5813 79.2173 96.5416 74.076C102.502 68.9347 105.929 65.4496 109.356 61.9783C110.968 69.361 112.198 77.2112 112.534 84.5771C113.061 95.8971 111.538 106.077 110.242 113.179C109.596 116.753 108.19 122.652 106.829 128.152C96.509 134.733 84.6278 138.457 72.3981 138.945C72.2453 120.814 70.0833 111.193 73.599 92.8413L73.5929 92.8368Z" fill="#F8A94E"/>
<path d="M50.2332 25.3947C52.4593 17.9555 50.6427 10.5453 48.8123 3.13354C45.5755 4.1452 42.4184 5.3959 39.3669 6.87531C39.6007 12.4841 39.645 20.4077 38.3845 26.0899C36.9055 32.7392 33.6389 40.5451 30.71 50.6795C30.3738 51.8498 30.0377 53.0523 29.7153 54.2669C31.2677 55.9216 32.82 57.5916 35.0904 59.202C35.5579 55.0141 36.5251 51.2647 38.3402 47.4282C41.7107 40.2747 47.9918 32.8339 50.2332 25.3947Z" fill="#F09132"/>
<path d="M37.1103 104.67C35.8957 93.8482 35.0599 81.0171 34.8705 71.1914C34.8552 70.3571 34.8414 69.5367 34.8414 68.7315C32.1615 66.2273 30.0668 64.102 27.966 61.9783C26.3556 69.361 25.1394 77.2112 24.788 84.5771C24.2609 95.8971 25.7979 106.077 27.0875 113.179C27.6879 116.446 28.8445 121.601 30.0164 126.609C33.6593 129.149 37.5387 131.332 41.6008 133.127C39.9751 124.31 38.3342 115.494 37.1042 104.67H37.1103Z" fill="#F09132"/>
<path d="M31.2236 122.172L31.5307 123.929L31.8531 125.775L32.5712 125.643L32.2488 123.811L31.9417 122.041L31.2236 122.172Z" fill="#323132"/>
<path d="M30.2139 116.401L30.2566 116.621L30.4033 117.529L30.5638 118.438L30.8434 120.004L31.5599 119.886L31.2819 118.305L31.1352 117.397L30.9748 116.49L30.9457 116.27L30.2139 116.401Z" fill="#323132"/>
<path d="M29.2759 110.617L29.3782 111.246L29.5112 112.14L29.6563 113.019L29.803 113.911L29.8611 114.233L30.5792 114.102L30.5211 113.795L30.3897 112.901L30.243 112.022L30.0963 111.129L30.0077 110.499L29.2759 110.617Z" fill="#323132"/>
<path d="M28.4414 104.802L28.4995 105.228L28.6171 106.062L28.7332 106.912L28.8509 107.761L28.9532 108.435L29.6713 108.333L29.5827 107.657L29.4513 106.809L29.3352 105.96L29.2313 105.124L29.1733 104.699L28.4414 104.802Z" fill="#323132"/>
<path d="M27.7964 98.959L27.8117 99.1637L27.8544 99.5442L27.885 99.9399L27.9278 100.336L27.9721 100.73L28.0011 101.126L28.0897 101.932L28.1768 102.62L28.9087 102.533L28.8216 101.844L28.733 101.054L28.6902 100.658L28.6612 100.262L28.6169 99.8666L28.5725 99.4861L28.5435 99.0904L28.5282 98.8994L27.7964 98.959Z" fill="#323132"/>
<path d="M27.4302 93.1011L27.4455 93.2615V93.613L27.4607 93.9644L27.4745 94.3311L27.5035 94.6825L27.5188 95.0476L27.5325 95.4006L27.5631 95.7657L27.5769 96.1324L27.6059 96.5129L27.6212 96.7619L28.353 96.7176L28.3377 96.4548L28.3087 96.0881L28.295 95.7214L28.2659 95.3715L28.2506 95.0048L28.2369 94.6534L28.2063 94.2867L28.1926 93.9353L28.1773 93.5839V93.2463L28.1636 93.0706L27.4302 93.1011Z" fill="#323132"/>
<path d="M27.4011 87.228V87.5794L27.3874 88.2227V88.869L27.3721 89.5275L27.3874 90.186V90.8598V90.9041L28.1192 90.8888V90.8598V90.186L28.1039 89.5275L28.1192 88.869V88.2227L28.1345 87.5947V87.2418L27.4011 87.228Z" fill="#323132"/>
<path d="M27.6503 81.3547V81.37L27.6213 81.9705L27.5923 82.5847L27.5479 83.1851L27.5189 83.8009L27.5036 84.4166L27.4746 85.0155L28.2065 85.0461L28.237 84.4594L28.2508 83.8452L28.2798 83.2294L28.3241 82.6152L28.3531 82.0133L28.3822 81.4128V81.3991L27.6503 81.3547Z" fill="#323132"/>
<path d="M27.9278 77.1807L27.8544 78.3816L27.7964 79.1577L28.5282 79.202L28.5725 78.4259L28.6612 77.2387L27.9278 77.1807Z" fill="#323132"/>
<path d="M62.0667 127.516L62.0376 128.396L61.9643 129.817L61.9062 131.163L62.6381 131.208L62.6962 129.846L62.7695 128.425L62.7985 127.545L62.0667 127.516Z" fill="#323132"/>
<path d="M62.2867 121.659L62.2714 122.112L62.2424 122.786L62.1981 124.178L62.1553 125.319L62.8871 125.35L62.9299 124.207L62.9742 122.815L63.0048 122.128L63.0185 121.688L62.2867 121.659Z" fill="#323132"/>
<path d="M62.3895 115.816V116.137V116.782L62.3742 117.426L62.359 118.085V118.745L62.3452 119.403V119.477L63.0771 119.492V119.432L63.0923 118.759V118.1L63.1076 117.442L63.1214 116.797V116.152V115.816H62.3895Z" fill="#323132"/>
<path d="M62.3296 109.972V110.001L62.3449 110.601L62.3586 111.188V111.789L62.3739 112.403L62.3892 113.005V113.619H63.121V113.005L63.1073 112.389L63.092 111.773V111.173L63.0767 110.572L63.063 109.987V109.958L62.3296 109.972Z" fill="#323132"/>
<path d="M62.0806 104.129L62.0958 104.305L62.1554 105.417L62.1845 105.973L62.1982 106.545L62.2272 107.116L62.2425 107.688L62.2578 107.775L62.9897 107.746L62.9744 107.657L62.9591 107.087L62.9301 106.516L62.901 105.944L62.8873 105.373L62.8277 104.261L62.8139 104.085L62.0806 104.129Z" fill="#323132"/>
<path d="M61.729 98.2853L61.7596 98.8414L61.8314 99.9247L61.9062 101.009L61.9643 101.932L62.6962 101.888L62.6381 100.965L62.5648 99.8819L62.4914 98.7971L62.4624 98.241L61.729 98.2853Z" fill="#323132"/>
<path d="M33.6406 50.3647L33.0539 51.9323L32.3511 53.7918L33.0249 54.0561L33.743 52.1967L34.3281 50.6291L33.6406 50.3647Z" fill="#323132"/>
<path d="M35.705 44.8875L35.485 45.4894L35.1336 46.4107L34.7974 47.3198L34.446 48.2411L34.417 48.3145L35.1045 48.5788L35.1336 48.4902L35.485 47.5826L35.8226 46.6598L36.1588 45.7522L36.3925 45.1365L35.705 44.8875Z" fill="#323132"/>
<path d="M37.6668 39.3811L37.4193 40.1145L37.1107 40.993L36.7883 41.8853L36.4674 42.7791L36.4521 42.8234L37.1412 43.0724L37.155 43.0281L37.4774 42.1343L37.7997 41.2421L38.1068 40.3482L38.3712 39.6149L37.6668 39.3811Z" fill="#323132"/>
<path d="M39.4986 33.8318L39.3962 34.1236L39.2786 34.5346L39.1472 34.9594L39.0143 35.3688L38.8691 35.7936L38.7362 36.2183L38.6048 36.6431L38.4581 37.0678L38.3848 37.3016L39.0738 37.5354L39.1472 37.3016L39.2923 36.8616L39.439 36.4383L39.5719 36.0136L39.7033 35.5873L39.8347 35.1778L39.9677 34.7531L40.0991 34.3436L40.1861 34.035L39.4986 33.8318Z" fill="#323132"/>
<path d="M41.0356 28.2061L40.9485 28.588L40.8446 28.9685L40.7576 29.3489L40.6552 29.7293L40.5528 30.1113L40.4505 30.507L40.3481 30.8875L40.2304 31.2817L40.1281 31.6774L40.1128 31.7217L40.8156 31.9264L40.8309 31.8837L40.9485 31.4879L41.0509 31.0922L41.1533 30.6965L41.2709 30.3008L41.3733 29.9051L41.4604 29.5246L41.5627 29.1442L41.6514 28.7637L41.7537 28.3818V28.368L41.0356 28.2061Z" fill="#323132"/>
<path d="M42.0763 22.4812L42.0473 22.6569L42.0167 22.9793L41.9739 23.3017L41.9144 23.6378L41.8716 23.9739L41.812 24.3116L41.7692 24.6477L41.7096 24.9854L41.6363 25.3368L41.5782 25.6729L41.5049 26.0243V26.0686L42.2215 26.2153V26.171L42.2963 25.8196L42.3544 25.4682L42.4277 25.1168L42.4858 24.7654L42.5438 24.414L42.5881 24.0778L42.6462 23.7402L42.692 23.404L42.7348 23.0664L42.7791 22.744L42.7929 22.5683L42.0763 22.4812Z" fill="#323132"/>
<path d="M42.3984 16.6814V16.9304V17.2223V17.5019L42.3831 17.7937V18.0718V18.3651L42.3678 18.6585L42.3541 18.9518L42.3388 19.2436L42.3251 19.5523L42.3098 19.8441L42.296 20.1512L42.2808 20.3132L43.0126 20.3727L43.0279 20.1955L43.0416 19.8884L43.0569 19.5813L43.0707 19.2879L43.086 18.9808L43.1012 18.6875L43.115 18.3804V18.087V17.7937L43.1303 17.5156V17.2223V16.9304V16.6814H42.3984Z" fill="#323132"/>
<path d="M42.0166 10.8662L42.0472 11.0725L42.0899 11.5843L42.1495 12.0962L42.1923 12.6248L42.2366 13.1367L42.2519 13.401L42.2656 13.6638L42.2809 13.9281L42.31 14.2062L42.3252 14.469V14.498L43.0571 14.469V14.4262L43.0418 14.1619L43.0128 13.8838L42.999 13.6195L42.9837 13.3567L42.9547 13.0786L42.9257 12.55L42.8676 12.0244L42.8218 11.511L42.7637 10.9839L42.75 10.7944L42.0166 10.8662Z" fill="#323132"/>
<path d="M41.6943 8.01067L41.7692 8.69974L42.5011 8.61113L42.4124 7.92358L41.6943 8.01067Z" fill="#323132"/>
<path d="M105.329 122.041L105.006 123.811L104.686 125.643L105.402 125.775L105.74 123.929L106.047 122.172L105.329 122.041Z" fill="#323132"/>
<path d="M106.325 116.27L106.28 116.49L106.134 117.397L105.973 118.305L105.695 119.886L106.427 120.004L106.691 118.438L106.852 117.529L107.014 116.621L107.043 116.401L106.325 116.27Z" fill="#323132"/>
<path d="M107.261 110.499L107.161 111.129L107.028 112.022L106.883 112.901L106.736 113.795L106.676 114.102L107.408 114.233L107.452 113.911L107.599 113.019L107.746 112.14L107.892 111.246L107.981 110.617L107.261 110.499Z" fill="#323132"/>
<path d="M108.097 104.699L108.039 105.124L107.922 105.96L107.804 106.809L107.688 107.657L107.585 108.333L108.317 108.435L108.404 107.761L108.537 106.912L108.653 106.062L108.756 105.228L108.815 104.802L108.097 104.699Z" fill="#323132"/>
<path d="M108.742 98.8994L108.727 99.0904L108.684 99.4861L108.654 99.8666L108.609 100.262L108.567 100.658L108.522 101.054L108.435 101.844L108.36 102.533L109.094 102.62L109.167 101.932L109.254 101.126L109.298 100.73L109.343 100.336L109.372 99.9399L109.416 99.5442L109.445 99.1637L109.474 98.959L108.742 98.8994Z" fill="#323132"/>
<path d="M109.093 93.0706V93.2463L109.078 93.5839L109.064 93.9353L109.049 94.2867L109.034 94.6534L109.02 95.0048L108.991 95.3715L108.976 95.7214L108.947 96.0881L108.931 96.4548L108.917 96.7176L109.636 96.7619L109.665 96.5129L109.678 96.1324L109.707 95.7657L109.723 95.4006L109.752 95.0476L109.767 94.6825L109.781 94.3311L109.796 93.9644L109.811 93.613L109.825 93.2615V93.1011L109.093 93.0706Z" fill="#323132"/>
<path d="M109.123 87.2418L109.138 87.5947V88.2227L109.152 88.869V89.5275V90.186V90.8598V90.8888L109.883 90.9041V90.8598V90.186V89.5275V88.869L109.87 88.2227V87.5794L109.854 87.228L109.123 87.2418Z" fill="#323132"/>
<path d="M108.873 81.3991V81.4128L108.917 82.0133L108.946 82.6152L108.975 83.2294L109.004 83.8452L109.033 84.4594L109.064 85.0461L109.796 85.0155L109.767 84.4166L109.736 83.8009L109.707 83.1851L109.678 82.5847L109.635 81.9705L109.605 81.37V81.3547L108.873 81.3991Z" fill="#323132"/>
<path d="M108.595 77.2387L108.684 78.4259L108.742 79.202L109.458 79.1577L109.416 78.3816L109.327 77.1807L108.595 77.2387Z" fill="#323132"/>
<path d="M102.927 50.6291L103.527 52.1967L104.232 54.0561L104.919 53.7918L104.216 51.9323L103.616 50.3647L102.927 50.6291Z" fill="#323132"/>
<path d="M100.876 45.1365L101.096 45.7522L101.434 46.6598L101.786 47.5826L102.122 48.4902L102.152 48.5788L102.84 48.3145L102.809 48.2411L102.459 47.3198L102.122 46.4107L101.786 45.4894L101.566 44.8875L100.876 45.1365Z" fill="#323132"/>
<path d="M98.8994 39.6149L99.1485 40.3482L99.4571 41.2421L99.7779 42.1343L100.1 43.0281L100.116 43.0724L100.803 42.8234L100.789 42.7791L100.467 41.8853L100.158 40.993L99.8375 40.1145L99.5885 39.3811L98.8994 39.6149Z" fill="#323132"/>
<path d="M97.0693 34.035L97.158 34.3436L97.2894 34.7531L97.4207 35.1778L97.5537 35.5873L97.6851 36.0136L97.8317 36.4383L97.9631 36.8616L98.1098 37.3016L98.1969 37.5354L98.886 37.3016L98.8126 37.0678L98.666 36.6431L98.5193 36.2183L98.3879 35.7936L98.2565 35.3688L98.1251 34.9594L97.9922 34.5346L97.8608 34.1236L97.7722 33.8318L97.0693 34.035Z" fill="#323132"/>
<path d="M95.5166 28.368V28.3818L95.6052 28.7637L95.7061 29.1442L95.7947 29.5246L95.8971 29.9051L95.9994 30.3008L96.1018 30.6965L96.2057 31.0922L96.3218 31.4879L96.4394 31.8837V31.9264L97.1423 31.7217V31.6774L97.0261 31.2817L96.9223 30.8875L96.8046 30.507L96.7022 30.1113L96.6014 29.7293L96.5128 29.3489L96.4104 28.9685L96.3218 28.588L96.2347 28.2061H96.2194L95.5166 28.368Z" fill="#323132"/>
<path d="M94.4624 22.5683L94.4777 22.744L94.5205 23.0664L94.5648 23.404L94.6244 23.7402L94.6671 24.0778L94.7252 24.414L94.7848 24.7654L94.8428 25.1168L94.9009 25.4682L94.9605 25.8196L95.0338 26.171L95.0476 26.2153L95.7657 26.0686L95.7519 26.0243L95.6924 25.6729L95.619 25.3368L95.561 24.9854L95.5029 24.6477L95.4433 24.3116L95.399 23.9739L95.3409 23.6378L95.2966 23.3017L95.2538 22.9793L95.2095 22.6569L95.1943 22.4812L94.4624 22.5683Z" fill="#323132"/>
<path d="M94.1401 16.6814V16.9304V17.2223V17.5156V17.7937V18.087L94.1554 18.3804V18.6875L94.1692 18.9808L94.1844 19.2879L94.1982 19.5813L94.2135 19.8884L94.2425 20.1955L94.2578 20.3727L94.9743 20.3132V20.1512L94.9453 19.8441L94.9316 19.5523L94.9163 19.2436L94.901 18.9518L94.8873 18.6585V18.3651L94.872 18.0718V17.7937V17.5019V17.2223V16.9304V16.6814H94.1401Z" fill="#323132"/>
<path d="M94.5067 10.7944L94.4915 10.9839L94.4334 11.511L94.3891 12.0244L94.3448 12.55L94.3005 13.0786L94.2867 13.3567L94.2577 13.6195L94.2424 13.8838L94.2287 14.1619L94.2134 14.4262V14.469L94.9452 14.498V14.469L94.9605 14.2062L94.9743 13.9281L94.9895 13.6638L95.0033 13.401L95.0338 13.1367L95.0782 12.6248L95.1209 12.0962L95.1652 11.5843L95.2248 11.0725L95.2386 10.8662L94.5067 10.7944Z" fill="#323132"/>
<path d="M94.8429 7.92358L94.7695 8.61113L95.4876 8.69974L95.5747 8.01067L94.8429 7.92358Z" fill="#323132"/>
<path d="M74.1343 127.209L74.1496 127.4L74.1939 128.103L74.281 129.524L74.3543 130.87L75.0877 130.827L75.0128 129.48L74.9257 128.059L74.8814 127.356L74.8661 127.165L74.1343 127.209Z" fill="#323132"/>
<path d="M73.856 121.352L73.8712 121.834L73.9003 122.523L73.9293 123.211L73.9583 123.9L74.0026 124.588L74.0179 125.012L74.7497 124.983L74.7345 124.559L74.6917 123.871L74.6627 123.182L74.6321 122.494L74.6031 121.805L74.5878 121.323L73.856 121.352Z" fill="#323132"/>
<path d="M73.7383 115.494V115.874V116.519L73.7536 117.164L73.7673 117.822V118.481L73.7826 119.141V119.154L74.516 119.141V119.125L74.5007 118.467V117.807L74.4854 117.164L74.4717 116.519V115.874V115.478L73.7383 115.494Z" fill="#323132"/>
<path d="M73.8847 109.605V109.738L73.8557 110.339L73.8267 110.924L73.8129 111.524L73.7824 112.125L73.7671 112.74V113.281L74.5005 113.297V112.754L74.5158 112.154L74.5448 111.553L74.5585 110.953L74.5876 110.368L74.6181 109.781V109.65L73.8847 109.605Z" fill="#323132"/>
<path d="M74.2957 103.747L74.2666 104.054L74.2223 104.612L74.178 105.168L74.1337 105.724L74.0909 106.296L74.0466 106.852L74.0176 107.41L74.7494 107.452L74.7785 106.912L74.8228 106.34L74.8656 105.784L74.9099 105.228L74.9542 104.67L74.9985 104.129L75.0275 103.821L74.2957 103.747Z" fill="#323132"/>
<path d="M74.8967 97.9187L74.8081 98.6368L74.692 99.7063L74.5881 100.79L74.53 101.332L74.501 101.566L75.2328 101.639L75.2619 101.404L75.3215 100.863L75.4238 99.7781L75.54 98.7101L75.6133 97.992L74.8967 97.9187Z" fill="#323132"/>
<path d="M61.8027 133.361L61.76 134.123L61.6866 135.571L61.6133 137.023L62.3451 137.052L62.4185 135.616L62.4918 134.166L62.5361 133.405L61.8027 133.361Z" fill="#323132"/>
<path d="M74.501 133.067L74.559 133.83L74.6629 135.28L74.75 136.714L75.4819 136.67L75.3795 135.22L75.2924 133.785L75.2329 133.009L74.501 133.067Z" fill="#323132"/>
</g>
<defs>
<clipPath id="clip0">
<rect width="138.998" height="139" fill="white"/>
</clipPath>
</defs>
</svg>
