<svg width="139" height="139" viewBox="0 0 139 139" fill="none" xmlns="http://www.w3.org/2000/svg">
<g clip-path="url(#clip0)">
<path fill-rule="evenodd" clip-rule="evenodd" d="M138.992 69.4893C138.992 89.7572 130.235 108.048 116.323 120.775C112.664 124.125 108.657 127.076 104.372 129.576C103.231 130.25 102.059 130.88 100.858 131.48C98.3986 132.739 95.8656 133.849 93.2727 134.805C91.7052 135.376 90.1087 135.888 88.4983 136.342C87.9422 136.504 87.3846 136.647 86.8437 136.8C86.3029 136.953 85.7299 137.078 85.1738 137.209C85.1295 137.225 85.0715 137.238 85.0119 137.254L83.7973 137.516C83.7553 137.533 83.711 137.543 83.6659 137.546C83.4596 137.59 83.2549 137.634 83.0548 137.663C82.0749 137.862 81.0757 138.036 80.0572 138.187C79.9178 138.22 79.7756 138.24 79.6325 138.247C79.3834 138.29 79.1191 138.334 78.8686 138.363C78.7952 138.378 78.7158 138.378 78.6638 138.392C78.5462 138.407 78.4438 138.422 78.3277 138.436C78.2354 138.453 78.1419 138.462 78.0481 138.465L77.712 138.51C77.5516 138.525 77.3896 138.554 77.2292 138.554C77.1093 138.584 76.9861 138.599 76.8626 138.598C76.7858 138.615 76.7075 138.625 76.6288 138.627L76.2621 138.672H76.1735C75.9107 138.701 75.6327 138.73 75.3546 138.743C74.1965 138.847 73.04 138.919 71.8681 138.95C71.6787 138.963 71.474 138.963 71.283 138.963C70.6979 138.979 70.0974 138.992 69.497 138.992C68.8232 138.992 68.1632 138.979 67.4894 138.963C67.271 138.963 67.0311 138.95 66.8019 138.934C66.5728 138.919 66.3436 138.919 66.1282 138.905C65.9128 138.892 65.6882 138.89 65.4834 138.876L64.1649 138.788L63.6684 138.743C63.609 138.746 63.5495 138.741 63.4912 138.73C63.126 138.701 62.7746 138.672 62.408 138.627L61.5295 138.539V138.525C61.4512 138.528 61.3729 138.523 61.2957 138.51C60.8374 138.465 60.3867 138.407 59.9482 138.334C58.894 138.202 57.8688 138.041 56.8437 137.836C55.8185 137.631 54.8071 137.44 53.7972 137.206C50.7947 136.508 47.8441 135.603 44.9665 134.498C18.731 124.553 4.82073e-05 99.1441 4.82073e-05 69.4893C-0.0130656 58.4115 2.64951 47.4944 7.76131 37.6666C7.95229 37.2556 8.17229 36.8614 8.37244 36.4657L8.38619 36.4505C8.50383 36.2304 8.62147 36.012 8.73911 35.8057C20.6499 14.4836 43.4356 0 69.5046 0C107.785 0 138.992 31.2223 138.992 69.4893Z" fill="#EDD9C1"/>
<path d="M52.3792 21.9288C48.908 23.8935 44.9831 26.529 41.9229 29.1645C38.5983 32.0199 36.2852 34.906 35.2586 37.0434C34.9019 37.7967 34.651 38.5956 34.513 39.4176C34.351 40.3847 34.1906 41.3503 33.9416 42.0393C33.6926 42.7574 33.3702 43.1821 32.5941 43.4143C31.8179 43.6466 30.6079 43.6939 28.9915 44.5281C27.3751 45.3623 25.4027 46.9604 23.719 47.706C22.0354 48.4515 20.6145 48.366 19.7207 48.4087C18.827 48.4515 18.4756 48.6287 18.0509 49.0978C17.6261 49.5668 17.1586 50.343 16.9982 50.8838C16.8378 51.4246 16.9676 51.7333 17.1876 52.4666C17.4469 53.4119 17.9065 54.2904 18.5352 55.0425C19.2991 55.9958 20.4831 56.9018 21.6687 57.8109C21.933 58.6466 21.4197 59.5984 20.6878 60.3898C19.956 61.1812 19.0623 61.7786 18.6818 62.541C18.6528 62.6006 18.6375 62.6586 18.6085 62.7167C18.3442 63.45 18.5199 64.2689 18.8132 64.8999C19.1493 65.5737 19.6184 66.0122 20.1027 66.4522C19.458 66.5836 18.7995 66.7149 18.2693 67.1534C17.9865 67.3888 17.7605 67.685 17.6082 68.0199C17.4558 68.3548 17.381 68.7198 17.3893 69.0876C17.4336 69.8515 17.9164 70.6399 18.1654 71.3136C18.4145 71.9874 18.4007 72.5588 17.8293 73.2326C17.2579 73.9063 16.1304 74.6962 15.3848 75.781C14.6393 76.8657 14.3016 78.2698 14.9158 79.544C15.53 80.8181 17.099 81.9319 19.0317 82.8822C20.1749 83.4143 21.3482 83.879 22.5457 84.274C23.6442 84.6545 24.8374 85.0379 26.1498 85.4306C29.0037 86.2953 32.4016 87.3067 34.8048 88.5947C42.317 92.622 51.8949 113.739 44.9525 134.536C53.9734 137.932 63.6011 139.419 73.2264 138.902C82.8517 138.386 92.2649 135.877 100.87 131.534C93.9844 107.925 76.8058 97.9647 104.778 65.8792C110.825 58.9231 106.931 49.5638 106.199 45.2156C105.467 40.8675 103.898 39.5184 102.332 38.1724C102.581 36.7806 102.846 35.375 102.493 33.3537C102.009 30.6896 100.78 28.217 98.9498 26.2219C98.4876 25.7073 97.9882 25.2273 97.4556 24.7858C95.2586 22.8959 92.2122 21.119 88.1559 19.4247C83.0591 17.3178 76.3917 15.3103 70.5387 14.4761C64.6857 13.6419 59.6913 14.0086 56.3194 15.0032C52.9475 15.9978 51.2654 17.6692 50.9003 18.9282C50.5947 19.938 51.1936 20.6989 52.3792 21.9288Z" fill="#D8B281"/>
<path d="M82.1274 62.6202C81.5014 62.1717 80.788 61.8601 80.0336 61.7055C79.2792 61.551 78.5007 61.5571 77.7487 61.7234C76.4012 62.0289 75.3913 62.8509 74.8933 63.2756C74.3952 63.7004 74.3952 63.6851 75.046 60.961C75.6969 58.2369 77.0078 52.775 76.9054 47.1511C76.803 41.5273 75.2599 35.7186 73.2234 31.4422C71.1868 27.1659 68.6109 24.3838 66.8387 22.5672C66.5163 22.2448 66.2275 21.9377 65.9602 21.6597C62.489 23.6367 58.5641 26.2584 55.4886 28.8938C52.1794 31.7493 49.8647 34.6353 48.8396 36.7727C47.8144 38.9102 48.0757 40.302 47.8144 41.4448C47.0505 44.7693 41.5183 47.2291 37.0067 49.0304C35.5568 49.6018 34.0046 49.7943 32.9656 50.2602H32.9366C32.7398 50.3381 32.5567 50.4469 32.3942 50.5826V50.5979L32.379 50.6116L32.3362 50.6559C32.3209 50.6559 32.3056 50.6712 32.2919 50.685C31.5005 51.4764 32.3942 53.5404 33.1551 54.7566C33.9465 56.0155 34.9885 56.7183 35.2497 57.5387C35.511 58.3591 34.9869 59.3263 34.2689 60.1161C33.5508 60.906 32.628 61.508 32.2629 62.2688C32.2343 62.3308 32.2098 62.3946 32.1895 62.4598C32.599 63.1473 33.01 63.8516 33.5951 64.4658C34.1803 65.08 34.9274 65.6376 35.5278 66.1204C36.0477 66.5385 36.5326 66.9984 36.9777 67.4954C37.3242 67.8823 37.6064 68.3223 37.8134 68.7987C37.9279 69.1383 37.9771 69.4965 37.9585 69.8544C38.0319 70.0881 38.0319 69.9995 37.4467 69.8238C36.5285 69.5858 35.5932 69.4193 34.6493 69.3258C33.8239 69.2887 32.9969 69.3086 32.1742 69.3853C31.6028 69.4296 31.3401 69.3991 31.1934 69.2967C31.0467 69.1944 31.0024 69.0049 30.9734 68.8139C31.0177 69.5779 31.5005 70.3662 31.7373 71.04C31.9741 71.7137 31.971 72.2851 31.4149 72.9589C30.8588 73.6327 29.716 74.4225 28.9704 75.521C28.2249 76.6195 27.8719 77.9961 28.4876 79.2703C29.1034 80.5444 30.6694 81.672 32.6127 82.6085C33.7509 83.1456 34.9197 83.6155 36.1129 84.0156C36.449 84.118 36.7714 84.2204 37.1091 84.338C37.1558 84.3644 37.2082 84.379 37.2618 84.3808C37.4528 84.4404 37.6423 84.4984 37.8332 84.5718L38.4184 84.7475C38.5332 84.7798 38.646 84.8191 38.756 84.8651H38.7851C39.7522 85.1432 40.7468 85.4212 41.801 85.655C42.7543 85.875 43.7489 86.0797 44.8031 86.2264C45.2721 86.2997 45.7702 86.3578 46.2683 86.4174C50.2803 86.8757 55.2594 86.7229 58.9353 86.066C62.6112 85.409 64.9549 84.2326 66.6095 82.5367C68.2641 80.8408 69.2404 78.6133 70.2075 76.3903C70.9836 77.2245 71.7735 78.045 73.341 78.1183C74.9085 78.1916 77.2659 77.4736 79.4033 75.521C80.5015 74.4821 81.4483 73.2941 82.216 71.9918C83.0655 70.5862 83.695 69.1073 83.944 67.8331C84.4268 65.3443 83.4597 63.6026 82.1274 62.6202ZM39.8927 58.6219C39.5872 59.0482 39.1288 59.12 38.5895 59.0482C37.9376 58.9727 37.3191 58.719 36.802 58.3148C36.2306 57.8764 35.7188 57.2164 35.2054 56.4815C34.6921 55.7466 34.1512 55.0178 33.9175 54.5335C33.6837 54.0492 33.7418 53.875 33.9175 53.846C34.0932 53.817 34.3865 53.9621 34.7669 54.4312C35.2367 55.0601 35.6576 55.7241 36.0258 56.4173C36.4368 57.1201 36.7577 57.7205 37.213 58.1162C37.6231 58.479 38.1449 58.6908 38.6919 58.7167C38.887 58.73 39.0827 58.7001 39.2649 58.6291C39.4472 58.558 39.6115 58.4476 39.7461 58.3057C39.9541 58.0693 40.0777 57.7705 40.0975 57.4562C40.1265 57.1339 40.1265 56.813 40.1265 56.5487C40.1265 56.2844 40.1127 56.1087 40.1708 56.153C40.2288 56.1973 40.3755 56.4463 40.3755 56.9444C40.3755 57.4425 40.1998 58.1987 39.8927 58.6219Z" fill="#F8A94E"/>
<path d="M62.5868 120.885C63.9924 126.507 63.6853 129.567 63.1873 132.161C62.6892 134.756 62.3668 136.32 62.2355 136.658C62.0017 137.315 61.7664 137.93 61.5327 138.545C64.1779 138.846 66.8379 138.999 69.5002 139.003C81.754 139.017 93.7919 135.778 104.383 129.615C103.783 127.8 103.153 126.072 102.508 124.403C101.819 122.658 101.133 121.004 100.443 119.423C98.8616 115.808 97.3216 112.581 96.1085 109.724C93.2683 103.106 92.1362 98.3892 91.9208 94.3329C91.8031 92.0641 91.9636 90.0122 92.6664 88.2125C90.3823 85.8398 88.0019 82.9981 86.3122 80.5154C84.1442 77.2948 83.1771 74.644 82.21 72.0085C81.4436 73.3067 80.4971 74.4898 79.3989 75.5225C77.2599 77.4857 74.9025 78.187 73.3365 78.1289C71.7705 78.0709 70.9776 77.2291 70.203 76.3903C69.2359 78.6163 68.2688 80.8423 66.6142 82.5413C64.9595 84.2402 62.6021 85.4258 58.94 86.0705C55.2778 86.7152 50.2849 86.8619 46.2729 86.4219C42.2609 85.9819 39.1839 85.001 36.1084 84.0202C37.2064 84.3868 38.4072 84.7678 39.711 85.163C42.568 86.0415 45.975 87.0361 48.3813 88.3271C54.5475 91.6363 61.1965 115.302 62.5899 120.882L62.5868 120.885Z" fill="#F09132"/>
<path d="M33.5904 64.4733C33.0052 63.8622 32.5943 63.1548 32.1848 62.4673C31.9067 63.1838 32.0809 64.018 32.3895 64.6337C32.7119 65.3212 33.1947 65.746 33.679 66.186C34.4026 66.4483 35.1028 66.7713 35.7721 67.1515C36.3984 67.5192 36.9457 68.0073 37.3824 68.5877C37.6396 68.9793 37.8325 69.4094 37.9538 69.8619C37.9706 69.5039 37.9188 69.1461 37.801 68.8077C37.595 68.3312 37.3133 67.8911 36.9668 67.5045C36.5222 67.007 36.0372 66.5471 35.517 66.1294C34.9165 65.6467 34.1542 65.1043 33.5843 64.4748L33.5904 64.4733Z" fill="#CE3F14"/>
<path d="M33.6791 66.1863C33.0191 66.3177 32.3591 66.4506 31.8457 66.8891C31.5619 67.1235 31.3353 67.4195 31.1831 67.7547C31.0308 68.0899 30.957 68.4553 30.9672 68.8233C30.9963 69.0127 31.0253 69.1884 31.1872 69.2923C31.3492 69.3962 31.5967 69.4375 32.1681 69.3932C32.9908 69.3163 33.8178 69.2969 34.6431 69.3351C35.5869 69.4289 36.5221 69.5949 37.4406 69.8316C38.0257 70.0089 38.0257 70.0975 37.9524 69.8622C37.831 69.4097 37.6381 68.9796 37.381 68.588C36.9443 68.0077 36.397 67.5196 35.7707 67.1519C35.1014 66.7717 34.4012 66.4487 33.6776 66.1863H33.6791Z" fill="#EF6F35"/>
<path d="M52.306 37.4098C53.1264 37.6573 54.7077 37.8681 55.8352 38.1859C56.9627 38.5037 57.6365 38.9315 58.2659 39.5609C58.8954 40.1904 59.4973 40.9971 60.1696 42.7831C60.8418 44.5691 61.5446 47.3665 61.5904 47.0457C61.6363 46.7248 60.99 43.2964 60.521 41.2599C60.2715 40.1199 59.949 38.9972 59.5554 37.8987C59.3201 37.1944 59.1597 36.4488 58.0169 35.8331C56.8741 35.2174 54.7077 34.7346 53.4488 34.6765C52.1898 34.6185 51.8216 34.9821 51.6322 35.3641C51.4684 35.7215 51.3979 36.1147 51.4275 36.5069C51.4427 36.8583 51.4855 37.1516 52.306 37.4235V37.4098Z" fill="#48230C"/>
<path d="M52.8622 39.7964C52.086 40.7039 51.3099 41.5977 50.7538 42.5067C50.2894 43.2734 49.9345 44.1014 49.6996 44.9665C49.562 45.4115 49.4599 45.8667 49.394 46.3278C50.0168 46.6466 50.6569 46.9302 51.3114 47.1772C52.1472 47.5149 53.2884 47.9243 54.2265 48.2314C55.1646 48.5385 55.8811 48.7585 56.4525 48.9204C57.0239 49.0824 57.4196 49.1557 57.4334 48.2161C57.4471 47.2765 57.082 45.3316 56.4663 43.8237C55.8506 42.3157 55.0454 41.2753 54.4022 40.6901C53.976 40.2625 53.4449 39.9543 52.8622 39.7964Z" fill="#EF6F35"/>
<path d="M49.3927 46.3276C49.1422 46.5919 48.8931 46.8547 48.5433 46.9861C48.1458 47.1201 47.7181 47.136 47.3118 47.032C46.8734 46.9418 46.4334 46.7264 46.4486 46.8257C46.4639 46.925 46.9314 47.3391 47.8832 47.8066C49.1594 48.4111 50.5243 48.8067 51.9258 48.9784C53.4047 49.1556 55.0441 49.0808 56.6849 48.9784C56.6116 48.9631 56.5322 48.9341 56.4512 48.9203C55.8798 48.7584 55.1617 48.5384 54.2252 48.2313C53.2886 47.9242 52.1458 47.5148 51.3101 47.1771C50.6556 46.9301 50.0154 46.6465 49.3927 46.3276Z" fill="#48230C"/>
<path d="M40.3706 56.9597C40.3553 57.473 40.1949 58.2049 39.8863 58.6296C39.5777 59.0543 39.1224 59.1277 38.5831 59.0543C37.9315 58.9801 37.3133 58.7268 36.7971 58.3225C36.2257 57.8825 35.7138 57.2102 35.2005 56.4891C34.6871 55.768 34.1463 55.027 33.9171 54.5427C33.688 54.0584 33.7414 53.8827 33.9171 53.8536C34.0928 53.8246 34.3862 53.9698 34.7666 54.4388C35.2364 55.0677 35.6572 55.7317 36.0255 56.425C36.435 57.1277 36.7573 57.7282 37.2111 58.1239C37.6216 58.4871 38.144 58.699 38.6915 58.7243C38.8866 58.7382 39.0823 58.7087 39.2646 58.6379C39.4469 58.5671 39.6112 58.4568 39.7457 58.3149C39.9532 58.0782 40.0768 57.7795 40.0971 57.4654C40.1261 57.143 40.1261 56.8207 40.1261 56.5563C40.1261 56.292 40.1109 56.1179 40.1704 56.1606C40.23 56.2034 40.3752 56.454 40.3752 56.952L40.3706 56.9597Z" fill="#F09132"/>
<path d="M115.909 37.9064C116.158 36.5161 116.405 35.1258 116.062 33.0892C115.579 30.4239 114.35 27.9503 112.517 25.9559C112.052 25.4498 111.559 24.9713 111.038 24.5228C108.841 22.6329 105.795 20.8561 101.718 19.1755C96.637 17.0503 89.9543 15.0504 84.1166 14.2254C78.2788 13.4004 73.2478 13.7502 69.8942 14.7402C66.5407 15.7303 64.828 17.4047 64.4613 18.6637C64.168 19.6903 64.7547 20.4359 65.9555 21.6658C66.2183 21.9454 66.5117 22.2525 66.834 22.5748C68.6047 24.3899 71.1684 27.1583 73.2187 31.4484C75.269 35.7384 76.777 41.5319 76.8946 47.1634C77.0123 52.7949 75.6938 58.2492 75.0353 60.9717C74.3768 63.6943 74.3906 63.6973 74.8825 63.2864C75.3745 62.8754 76.3905 62.0427 77.738 61.7341C78.4896 61.5676 79.2678 61.5609 80.0222 61.7146C80.7766 61.8684 81.4902 62.179 82.1167 62.6263C83.4489 63.6087 84.416 65.352 83.9332 67.8408C83.6842 69.1149 83.0532 70.5908 82.2038 72.001C83.1709 74.6364 84.138 77.2872 86.3059 80.5078C87.9865 82.9981 90.376 85.8399 92.6601 88.2125C93.3339 88.9153 93.9939 89.5601 94.6233 90.1605C96.5234 91.961 98.5787 93.5903 100.765 95.0296C101.864 95.7752 101.512 95.8195 102.493 95.8348L106.843 95.8791C107.897 95.8928 108.937 93.5874 110.123 90.5776C111.309 87.5678 110.694 89.0987 111.04 88.2339C113.25 82.5077 116.54 73.4417 118.347 65.6224C120.426 56.6312 120.515 49.3084 119.768 44.9588C119.021 40.6091 117.476 39.2616 115.916 37.914L115.909 37.9064Z" fill="#48230C"/>
<path d="M102.084 95.8425H106.902C107.088 95.8449 107.265 95.9195 107.396 96.0504C107.527 96.1814 107.602 96.3584 107.605 96.5438V97.6133C107.602 97.7986 107.527 97.9756 107.396 98.1066C107.265 98.2376 107.088 98.3122 106.902 98.3145H102.084C101.898 98.3122 101.721 98.2376 101.59 98.1066C101.459 97.9756 101.384 97.7986 101.381 97.6133V96.5438C101.384 96.3584 101.459 96.1814 101.59 96.0504C101.721 95.9195 101.898 95.8449 102.084 95.8425Z" fill="white"/>
<path d="M111.032 105.419C109.727 102.928 108.308 100.614 106.907 98.3145H102.084C100.97 102.287 99.8713 106.259 99.3014 109.108C98.7316 111.958 98.701 113.692 99.3152 116.065C99.6341 117.201 100.01 118.32 100.443 119.418C101.132 120.999 101.818 122.654 102.508 124.399C103.153 126.067 103.782 127.795 104.383 129.61C108.666 127.118 112.672 124.178 116.333 120.839C115.394 115.45 113.605 110.246 111.032 105.419Z" fill="#48230C"/>
<path fill-rule="evenodd" clip-rule="evenodd" d="M32.9381 51.5513C32.8101 51.5535 32.6844 51.5174 32.5769 51.4478C32.4695 51.3782 32.3852 51.2782 32.3348 51.1605C32.2844 51.0428 32.2702 50.9128 32.2939 50.7869C32.3177 50.6611 32.3784 50.5453 32.4683 50.4541C32.5582 50.3629 32.6732 50.3005 32.7986 50.275C32.9241 50.2494 33.0543 50.2617 33.1727 50.3104C33.2911 50.3591 33.3923 50.442 33.4635 50.5484C33.5346 50.6549 33.5725 50.7801 33.5722 50.9081C33.5718 51.077 33.5052 51.239 33.3866 51.3593C33.268 51.4796 33.107 51.5485 32.9381 51.5513Z" fill="white"/>
<path fill-rule="evenodd" clip-rule="evenodd" d="M26.8437 46.2619L26.477 46.8928L26.3166 47.1709L25.7895 48.0784L24.4863 47.3145L20.0342 44.7371L19.5652 44.4728L18.9205 44.0924L18.453 43.8281L7.7583 37.6634C7.94928 37.2524 8.16928 36.8582 8.36942 36.4625L8.38317 36.4472C8.50082 36.2272 8.61846 36.0087 8.7361 35.8025L19.4919 42.0146L19.9609 42.2926L20.1366 42.395L20.6194 42.6578V42.673L20.6499 42.6883L21.0732 42.9374L26.5076 46.0709L26.8437 46.2619Z" fill="white"/>
<path d="M21.0741 42.9316L20.0288 44.7415L25.7931 48.0708L26.8384 46.2609L21.0741 42.9316Z" fill="#75BD21"/>
<path fill-rule="evenodd" clip-rule="evenodd" d="M20.0293 44.7419L18.4526 43.8374L19.4977 42.0178L21.0728 42.933L20.0293 44.7419Z" fill="#B3B3B3"/>
<path fill-rule="evenodd" clip-rule="evenodd" d="M18.9186 44.0987L18.4526 43.8374L19.4977 42.0178L19.9636 42.2898L18.9186 44.0987Z" fill="#323132"/>
<path fill-rule="evenodd" clip-rule="evenodd" d="M25.794 48.0724L29.0284 49.1067L29.3538 48.5476L26.836 46.2559C26.4815 46.8532 26.1362 47.4598 25.7925 48.0663L25.794 48.0724Z" fill="white"/>
<path fill-rule="evenodd" clip-rule="evenodd" d="M20.0295 44.7419L19.562 44.4807L20.6162 42.6626L21.073 42.933L20.0295 44.7419Z" fill="#323132"/>
<path fill-rule="evenodd" clip-rule="evenodd" d="M26.26 48.3428L25.7925 48.0724L26.8375 46.262L27.305 46.5232L26.26 48.3428Z" fill="white"/>
<path fill-rule="evenodd" clip-rule="evenodd" d="M8.30518 37.1502L8.5374 37.2801L8.86435 36.7301L8.62143 36.5911L8.30518 37.1502Z" fill="#323132"/>
<path fill-rule="evenodd" clip-rule="evenodd" d="M8.78027 37.4206L9.01403 37.5596L9.33945 37.0004L9.09806 36.8599L8.78027 37.4206Z" fill="#323132"/>
<path fill-rule="evenodd" clip-rule="evenodd" d="M9.08008 37.9995L9.31231 38.1386L9.99371 36.9728L9.75079 36.8323L9.08008 37.9995Z" fill="#323132"/>
<path fill-rule="evenodd" clip-rule="evenodd" d="M9.73242 37.9705L9.96618 38.1096L10.2916 37.5504L10.0502 37.4114L9.73242 37.9705Z" fill="#323132"/>
<path fill-rule="evenodd" clip-rule="evenodd" d="M10.207 38.2412L10.4408 38.3818L10.7677 37.821L10.5248 37.6912L10.207 38.2412Z" fill="#323132"/>
<path fill-rule="evenodd" clip-rule="evenodd" d="M10.6821 38.5206L10.9159 38.6612L11.2428 38.1005L10.9999 37.9614L10.6821 38.5206Z" fill="#323132"/>
<path fill-rule="evenodd" clip-rule="evenodd" d="M11.1587 38.791L11.3924 38.9315L11.7179 38.3724L11.4749 38.241L11.1587 38.791Z" fill="#323132"/>
<path d="M12.1278 38.2059L11.4561 39.3723L11.6983 39.5119L12.3701 38.3455L12.1278 38.2059Z" fill="#323132"/>
<path fill-rule="evenodd" clip-rule="evenodd" d="M12.1108 39.3991L12.3431 39.4816L12.67 39.1516L12.4271 39.0691L12.1108 39.3991Z" fill="#323132"/>
<path fill-rule="evenodd" clip-rule="evenodd" d="M12.5859 39.6222L12.8197 39.7521L13.1451 39.2021L12.9037 39.0615L12.5859 39.6222Z" fill="#323132"/>
<path fill-rule="evenodd" clip-rule="evenodd" d="M13.061 39.8927L13.304 40.0318L13.6217 39.4726L13.388 39.332L13.061 39.8927Z" fill="#323132"/>
<path fill-rule="evenodd" clip-rule="evenodd" d="M13.5381 40.1722L13.7795 40.3021L14.0973 39.7521L13.8635 39.613L13.5381 40.1722Z" fill="#323132"/>
<path fill-rule="evenodd" clip-rule="evenodd" d="M13.8354 40.7497L14.0784 40.8811L14.7491 39.7154L14.5062 39.584L13.8354 40.7497Z" fill="#323132"/>
<path fill-rule="evenodd" clip-rule="evenodd" d="M14.4883 40.7223L14.7312 40.8521L15.049 40.293L14.8152 40.1631L14.4883 40.7223Z" fill="#323132"/>
<path fill-rule="evenodd" clip-rule="evenodd" d="M15.4399 41.2631L15.6829 41.4037L15.9991 40.843L15.7669 40.7131L15.4399 41.2631Z" fill="#323132"/>
<path fill-rule="evenodd" clip-rule="evenodd" d="M14.9648 40.9928L15.2062 41.1333L15.524 40.5726L15.2903 40.4336L14.9648 40.9928Z" fill="#323132"/>
<path fill-rule="evenodd" clip-rule="evenodd" d="M15.915 41.5426L16.158 41.6831L16.4757 41.1224L16.242 40.9834L15.915 41.5426Z" fill="#323132"/>
<path fill-rule="evenodd" clip-rule="evenodd" d="M16.2144 42.1215L16.4573 42.2606L17.128 41.0948L16.8942 40.9558L16.2144 42.1215Z" fill="#323132"/>
<path fill-rule="evenodd" clip-rule="evenodd" d="M16.8667 42.0926L17.1096 42.2332L17.4274 41.674L17.1937 41.5334L16.8667 42.0926Z" fill="#323132"/>
<path fill-rule="evenodd" clip-rule="evenodd" d="M17.3423 42.363L17.5852 42.5036L17.903 41.9444L17.6692 41.813L17.3423 42.363Z" fill="#323132"/>
<path fill-rule="evenodd" clip-rule="evenodd" d="M17.8188 42.6442L18.0618 42.7741L18.378 42.2241L18.1443 42.0835L17.8188 42.6442Z" fill="#323132"/>
<path fill-rule="evenodd" clip-rule="evenodd" d="M18.2939 42.9147L18.5369 43.0537L18.8546 42.4946L18.6209 42.354L18.2939 42.9147Z" fill="#323132"/>
<path fill-rule="evenodd" clip-rule="evenodd" d="M18.5933 43.4921L18.8347 43.6327L19.5069 42.4654L19.2731 42.3264L18.5933 43.4921Z" fill="#323132"/>
<path fill-rule="evenodd" clip-rule="evenodd" d="M19.2461 43.4645L19.489 43.6035L19.8053 43.0444L19.573 42.9038L19.2461 43.4645Z" fill="#323132"/>
<path fill-rule="evenodd" clip-rule="evenodd" d="M19.7207 43.7443L19.9636 43.8742L20.2799 43.3242L20.0477 43.1836L19.7207 43.7443Z" fill="#323132"/>
<path fill-rule="evenodd" clip-rule="evenodd" d="M20.1978 44.0147L20.4391 44.1538L20.7569 43.5946L20.5232 43.4556L20.1978 44.0147Z" fill="#323132"/>
<path fill-rule="evenodd" clip-rule="evenodd" d="M20.6724 44.2851L20.9153 44.4241L21.2315 43.865L20.9978 43.7351L20.6724 44.2851Z" fill="#323132"/>
<path fill-rule="evenodd" clip-rule="evenodd" d="M20.98 44.8718L21.2137 45.0032L21.886 43.8374L21.6522 43.7061L20.98 44.8718Z" fill="#323132"/>
<path fill-rule="evenodd" clip-rule="evenodd" d="M21.6245 44.8352L21.8659 44.9757L22.1837 44.4165L21.9499 44.2852L21.6245 44.8352Z" fill="#323132"/>
<path fill-rule="evenodd" clip-rule="evenodd" d="M22.0996 45.1148L22.3425 45.2554L22.668 44.6962L22.4266 44.5557L22.0996 45.1148Z" fill="#323132"/>
<path fill-rule="evenodd" clip-rule="evenodd" d="M22.584 45.3852L22.8177 45.5258L23.1447 44.9666L22.9018 44.8352L22.584 45.3852Z" fill="#323132"/>
<path fill-rule="evenodd" clip-rule="evenodd" d="M23.0605 45.6646L23.2928 45.8052L23.6197 45.246L23.3768 45.1055L23.0605 45.6646Z" fill="#323132"/>
<path fill-rule="evenodd" clip-rule="evenodd" d="M23.3589 46.2436L23.5926 46.3842L24.2633 45.2169L24.0311 45.0779L23.3589 46.2436Z" fill="#323132"/>
<path fill-rule="evenodd" clip-rule="evenodd" d="M24.0112 46.2162L24.245 46.346L24.5719 45.796L24.329 45.657L24.0112 46.2162Z" fill="#323132"/>
<path fill-rule="evenodd" clip-rule="evenodd" d="M24.4878 46.4867L24.7215 46.6272L25.047 46.0665L24.804 45.9275L24.4878 46.4867Z" fill="#323132"/>
<path fill-rule="evenodd" clip-rule="evenodd" d="M24.9629 46.7662L25.1966 46.8961L25.5221 46.3461L25.2807 46.207L24.9629 46.7662Z" fill="#323132"/>
<path fill-rule="evenodd" clip-rule="evenodd" d="M25.4395 47.0367L25.6717 47.1773L25.9986 46.6166L25.7557 46.4775L25.4395 47.0367Z" fill="#323132"/>
<path fill-rule="evenodd" clip-rule="evenodd" d="M25.915 47.3163L26.1473 47.4476L26.4742 46.8961L26.2328 46.7571L25.915 47.3163Z" fill="#323132"/>
<path fill-rule="evenodd" clip-rule="evenodd" d="M29.1597 48.8837L32.8631 51.0288L32.9379 50.9081L29.2254 48.7722L29.1597 48.8837Z" fill="#323132"/>
<path d="M34.5471 49.44C33.7266 49.8067 33.0972 50.0511 32.7901 50.1871L32.5991 49.8647C32.8772 49.7486 33.5066 49.4843 34.3561 49.1191L34.5471 49.44Z" fill="#323132"/>
<path d="M36.7725 48.4454C36.1431 48.7372 35.5503 49.0015 35.0293 49.2353L34.8398 48.8992C35.3669 48.6792 35.9521 48.4149 36.5815 48.123L36.7725 48.4454Z" fill="#323132"/>
<path d="M39.0872 47.3177C38.4562 47.6386 37.842 47.9289 37.2538 48.21L37.0781 47.8876C37.6648 47.6095 38.279 47.3025 38.9115 46.9954L39.0872 47.3177Z" fill="#323132"/>
<path d="M41.7088 45.8971C41.006 46.3065 40.2895 46.7022 39.5699 47.0689L39.3789 46.7511C40.0817 46.3844 40.7998 46.004 41.5026 45.593L41.7088 45.8971Z" fill="#323132"/>
<path d="M43.876 44.5492C43.3336 44.9159 42.7637 45.281 42.1633 45.6324L41.957 45.3269C42.5575 44.9755 43.1289 44.6088 43.6712 44.2437L43.876 44.5492Z" fill="#323132"/>
<path d="M45.8083 43.0704C45.3371 43.4934 44.8384 43.8849 44.3156 44.2422L44.1094 43.9366C44.5978 43.5961 45.0676 43.2294 45.5165 42.8381L45.8083 43.0704Z" fill="#323132"/>
<path d="M47.1558 41.5563C46.8778 41.9722 46.5539 42.3556 46.1902 42.6991L45.9106 42.473C46.2624 42.148 46.5705 41.7788 46.8273 41.3745L47.1558 41.5563Z" fill="#323132"/>
<path d="M47.9916 39.775L47.4629 40.9453C47.4501 40.9917 47.4305 41.0359 47.4049 41.0767L47.0825 40.8872C47.1115 40.8567 47.1115 40.8276 47.1268 40.7986L47.6982 39.5244L47.9916 39.775Z" fill="#323132"/>
</g>
<defs>
<clipPath id="clip0">
<rect width="138.992" height="139" fill="white"/>
</clipPath>
</defs>
</svg>
