<svg width="139" height="139" viewBox="0 0 139 139" fill="none" xmlns="http://www.w3.org/2000/svg">
<g clip-path="url(#clip0)">
<path d="M37.8292 70.3274L38.1226 70.4894H38.1363L37.6688 71.4855H37.6245L37.3464 71.3236L37.024 71.1769L36.7169 71.0165L36.4236 70.8698L36.1455 70.7094L35.8521 70.5474L35.5588 70.4007L35.296 70.225L35.0026 70.0646L34.7398 69.8889L34.4755 69.7269L34.2265 69.5512L33.9637 69.3908L33.4656 69.0394L33.2303 68.8637L32.9812 68.7017L32.8208 68.5703L33.4946 67.6765L33.655 67.8094L33.8903 67.9699L34.1103 68.1456L34.3441 68.306L34.5779 68.468L34.8269 68.6437L35.076 68.7903L35.3403 68.9508L35.5893 69.1127L35.8521 69.2594L36.1165 69.4198L36.3793 69.5665L36.6726 69.7269L36.9369 69.8889L37.2288 70.0356L37.5221 70.167L37.8292 70.3274Z" fill="#A0D9BB"/>
<path d="M42.0615 72.1286L42.4129 72.2463L42.7643 72.3777L43.1463 72.5091L43.4977 72.6267L43.8781 72.7581L44.2586 72.862L44.639 72.9781L45.021 73.0805L45.4014 73.1981L45.7971 73.3158L46.1776 73.4182L46.4114 73.4915L46.1043 74.561L45.8842 74.5167L45.4885 74.3838L45.079 74.2677L44.6986 74.15L44.3029 74.0477L43.9224 73.93L43.542 73.7986L43.1753 73.681L42.7948 73.5496L42.4129 73.4182L42.0615 73.3158L41.681 73.1829L41.3296 73.0377L40.9644 72.9048L40.7734 72.8177L41.1692 71.7925L41.3739 71.8658L41.7253 71.9972L42.0615 72.1286Z" fill="#A0D9BB"/>
<path d="M49.6181 75.4245L49.3706 75.3511L49.6181 74.2969L49.8672 74.3412L50.7167 74.5169L51.1567 74.604L51.5815 74.6926L52.0215 74.7507L52.4753 74.8393L52.9138 74.9416L53.3538 74.9997L53.8076 75.073L54.2476 75.1617L54.7152 75.2197L55.0528 75.264L54.8909 76.3763L54.5395 76.3183L54.0857 76.2449L53.6319 76.1854L53.1781 76.0983L52.7091 76.0249L52.269 75.9363L51.8305 75.8645L51.3767 75.7759L50.9367 75.6888L50.4829 75.6002L50.0734 75.5131L49.6181 75.4245Z" fill="#A0D9BB"/>
<path d="M57.939 34.5334H56.8252V57.7177H57.939V34.5334Z" fill="#A0D9BB"/>
<path d="M58.3183 76.801H58.2021L58.3473 75.6887L58.4512 75.7178L58.9187 75.7621L59.4168 75.8048L59.8706 75.8491L60.3687 75.8935L60.8515 75.9362L61.3496 75.9805L61.8339 75.9958L62.3168 76.0539L62.8286 76.0692L63.3267 76.0982L63.811 76.1425H63.8553L63.7958 77.2548H63.7667L63.2549 77.1968L62.7705 77.1815L62.2587 77.1524L61.7744 77.1081L61.2625 77.0654L60.7644 77.0501L60.2816 77.0058L59.7835 76.9615L59.2992 76.9187L58.8026 76.8744L58.3183 76.801Z" fill="#A0D9BB"/>
<path d="M66.9004 53.8658C66.9004 52.0507 67.6643 50.5564 68.5994 50.5564C69.5345 50.5564 70.2801 52.0507 70.2801 53.8658C70.2801 55.6809 69.533 57.1615 68.5994 57.1615C67.6659 57.1615 66.9004 55.6962 66.9004 53.8658Z" fill="#A0D9BB"/>
<path d="M70.4604 76.2449L70.9722 76.2296H71.4856L71.9974 76.2006H72.5093L72.6865 76.1853L72.7293 77.2992L72.5398 77.3129H72.0264L71.5146 77.3435H71.0012L70.4894 77.3572H67.1494L67.1784 76.2449H70.4604Z" fill="#A0D9BB"/>
<path d="M80.4483 34.5334H79.3345V57.7177H80.4483V34.5334Z" fill="#A0D9BB"/>
<path d="M76.0984 77.1082L76.0098 75.9959L76.4941 75.9806L76.9769 75.9363L77.475 75.8935L77.9441 75.8492L78.4269 75.8049L78.925 75.7621L79.394 75.7178L79.8478 75.6444L80.3459 75.6001L80.8135 75.5421L81.2825 75.4978L81.5178 75.4397L81.6492 76.552L81.4139 76.581L80.9464 76.6544L80.4773 76.6987L79.9945 76.7567L79.4964 76.801L79.0273 76.8744L78.5445 76.9187L78.0464 76.9615L77.5621 77.0058L77.0793 77.0501L76.5812 77.0654L76.0984 77.1082Z" fill="#A0D9BB"/>
<path d="M84.9736 76.054L84.7979 74.9554L84.9292 74.9417L85.3693 74.8393L85.8078 74.7507L86.2325 74.6926L86.6863 74.604L87.1111 74.5169L87.5511 74.4283L87.9759 74.3412L88.4006 74.2389L88.8254 74.1503L89.2211 74.0479L89.6458 73.9593L90.04 73.8432L90.202 73.8279L90.4648 74.8974L90.3044 74.9417L89.9087 75.0288L89.4839 75.1311L89.0591 75.2198L88.6344 75.3359L88.1959 75.4245L87.7711 75.5131L87.3311 75.6002L86.9063 75.6888L86.4663 75.7759L86.0125 75.8645L85.574 75.9363L85.1202 76.0249L84.9736 76.054Z" fill="#A0D9BB"/>
<path d="M93.6875 74.0034L93.3804 72.9354L93.5851 72.8621L93.9518 72.7582L94.3323 72.6268L94.6974 72.5091L95.0504 72.3777L95.4003 72.2463L95.7532 72.1287L96.1184 71.9973L96.4698 71.8659L96.8074 71.7345L97.1436 71.6015L97.495 71.4701L97.8036 71.3235L98.1398 71.1921L98.4759 71.0454L98.5202 71.0164L98.9893 72.0416L98.9159 72.0706L98.5798 72.2173L98.2574 72.3487L97.8907 72.4801L97.5683 72.642L97.2032 72.7734L96.8655 72.9048L96.5141 73.0378L96.1336 73.1829L95.7822 73.3158L95.4308 73.4182L95.0504 73.5496L94.6684 73.681L94.2879 73.7987L93.9075 73.9301L93.6875 74.0034Z" fill="#A0D9BB"/>
<path d="M102.007 70.5321L101.478 69.5664L101.727 69.4198L101.991 69.2593L102.254 69.1127L102.503 68.9507L102.768 68.7903L103.017 68.6436L103.25 68.4679L103.486 68.3059L103.719 68.1455L103.939 67.9698L104.173 67.8094L104.393 67.6337L104.613 67.487L104.818 67.3113L105.009 67.1203L105.214 66.9736L105.418 66.7979L105.594 66.6084L105.77 66.4327L105.843 66.3884L106.619 67.1646L106.341 67.4427L106.15 67.6184L105.946 67.7941L105.755 67.9698L105.521 68.1455L105.301 68.3502L105.082 68.5259L104.833 68.7017L104.613 68.8636L104.364 69.0393L104.129 69.215L103.88 69.3907L103.617 69.5512L103.368 69.7269L103.105 69.8888L102.841 70.0645L102.548 70.225L102.285 70.4007L102.007 70.5321Z" fill="#A0D9BB"/>
<path d="M108.728 64.4113L107.747 63.8841L107.82 63.7665L107.907 63.5618L107.996 63.386L108.085 63.2103L108.143 63.0346L108.216 62.8299L108.289 62.6527L108.332 62.4785L108.392 62.2722L108.436 62.0965L108.465 61.9208L108.508 61.7161L108.523 61.5403L108.552 61.3356L108.568 61.1599V60.7932H109.68V61.2332L109.666 61.4517L109.637 61.6718L109.593 61.8918L109.577 62.1255L109.504 62.3455L109.461 62.5656L109.402 62.7703L109.359 62.9903L109.255 63.2103L109.197 63.4304L109.11 63.6351L109.021 63.8551L108.904 64.0598L108.817 64.2493L108.728 64.4113Z" fill="#A0D9BB"/>
<path d="M109.622 45.0346L109.49 44.4631V44.4341L110.56 44.1851H110.574L110.705 44.7718L110.838 45.3432L110.998 45.9284L111.13 46.4998L111.292 47.085L111.438 47.6855L111.614 48.2569L111.774 48.8574L111.95 49.4578V49.5312L110.881 49.8383V49.7802L110.705 49.1797L110.529 48.5793L110.369 47.9788L110.222 47.3784L110.062 46.7779L109.915 46.1912L109.768 45.6213L109.622 45.0346Z" fill="#A0D9BB"/>
<path d="M111.848 53.0454L112.917 52.7383L113.049 53.1783L113.24 53.8078L113.444 54.4526L113.649 55.0668L113.84 55.7116L114.045 56.3563L114.265 56.9996L114.483 57.6443L114.601 58.011L113.56 58.3625L113.415 58.011L113.195 57.3372L113.004 56.6925L112.771 56.0477L112.58 55.4045L112.375 54.775L112.17 54.1302L111.979 53.5144L111.848 53.0454Z" fill="#A0D9BB"/>
<path d="M114.997 62.6389L114.63 61.5266L115.67 61.1599L116.051 62.2722L116.534 63.6061L117.003 64.9674L117.486 66.3303L117.516 66.3884L116.476 66.7688L116.447 66.7107L115.964 65.3479L115.466 63.9865L114.997 62.6389Z" fill="#A0D9BB"/>
<path d="M118.468 72.2174L117.955 70.8408L117.632 69.9027L118.673 69.5222L119.009 70.4451L119.522 71.837L120.034 73.2273L120.561 74.6192L120.606 74.7354L119.565 75.1311L119.522 74.9997L119.009 73.6231L118.468 72.2174Z" fill="#A0D9BB"/>
<path d="M122.714 83.4504L121.66 80.6238L120.737 78.251L121.793 77.8552L122.701 80.228L123.77 83.0546L122.714 83.4504Z" fill="#A0D9BB"/>
<path d="M139 69.5085C139.008 80.3388 136.469 91.0193 131.59 100.688C121.895 119.888 103.544 134.021 81.7224 137.932C77.6898 138.646 73.6022 139.003 69.5069 139.002C59.6769 138.997 49.96 136.904 40.9996 132.862C32.0392 128.819 24.0398 122.92 17.5311 115.553C12.9543 110.408 9.16387 104.614 6.28275 98.3597C6.24536 98.2591 6.20146 98.1611 6.15135 98.0663C2.0853 89.0955 -0.012176 79.3578 5.31697e-05 69.5085C5.31697e-05 48.448 9.46076 29.5113 24.3409 16.7549C28.7479 12.9763 33.6078 9.76034 38.8085 7.18115C41.49 18.0628 43.9789 28.9735 40.6985 39.9285C38.5167 47.1921 33.7863 54.4709 29.3188 61.6245L29.3341 61.7269L29.3478 61.9316L29.3921 62.1074L29.4364 62.2831L29.4792 62.4878L29.5525 62.6635L29.6259 62.8407L29.6855 63.0455L29.7588 63.2212L29.8459 63.3969L29.904 63.5726L29.9926 63.7773L30.1102 63.953L30.1973 64.1288L30.315 64.3045L30.4173 64.4954L30.5487 64.6849L30.6664 64.8606L30.7978 65.0516L30.9597 65.2273L31.0911 65.403L31.1782 65.4916L30.315 66.2082L30.2263 66.0921L30.0659 65.9149L29.9055 65.6994L29.7741 65.4947L29.6213 65.3037L29.4884 65.0883L29.386 64.8835L29.2546 64.6773L29.137 64.4878L29.0346 64.2525L28.9185 64.0631L28.8299 63.8583L28.7428 63.6383L28.6541 63.4336L28.5671 63.2136L28.4937 62.9935C26.3256 66.4939 24.2599 69.95 22.6495 73.3832C19.881 79.2121 18.4173 84.9096 17.6992 91.2595C18.8368 92.0727 20.0181 92.8231 21.2378 93.5071C21.6182 93.7271 22.0139 93.9318 22.4234 94.1518C23.1262 94.5323 23.8596 94.899 24.5915 95.2351C25.3829 95.6156 26.2019 95.9823 27.0667 96.3489C27.2714 96.436 27.5052 96.5384 27.7252 96.627C28.399 96.9051 29.0881 97.1832 29.8046 97.4475C35.7512 99.6431 42.503 101.267 49.6352 102.28H49.6795C55.8888 103.044 62.2449 103.29 68.6009 103.503C74.9569 103.283 81.313 103.033 87.5238 102.28H87.5666C94.6988 101.269 101.451 99.6431 107.397 97.4475C108.115 97.1832 108.803 96.9051 109.477 96.627C109.697 96.5384 109.935 96.436 110.135 96.3489C111 95.9823 111.816 95.6156 112.61 95.2351C113.374 94.8684 114.091 94.517 114.778 94.1518C115.188 93.9318 115.584 93.7271 115.966 93.5071C121.466 90.3734 124.577 87.0487 127.666 83.7683C127.168 81.9226 126.656 80.0922 126.138 78.3045C121.707 62.9126 116.737 51.0638 114.48 40.9583C112.781 33.2409 112.647 23.2668 112.899 15.2897C128.792 28.0323 139 47.6122 139 69.5085Z" fill="#EDD9C1"/>
<path d="M126.141 78.3091C121.71 62.9171 112.653 23.2714 112.902 15.2896C106.488 10.132 99.2087 6.15517 91.4032 3.54474C91.4032 3.52946 91.3879 3.52946 91.3589 3.52946C76.6884 -1.34154 60.8103 -1.16621 46.2509 4.02756C46.2059 4.03046 46.1616 4.04025 46.1195 4.05659C43.6254 4.9589 41.1845 6.00209 38.8086 7.18113C41.49 18.0628 43.979 28.9735 40.6986 39.9284C38.5168 47.192 33.7864 54.4709 29.3188 61.6245L29.3341 61.7269L29.3479 61.9316L29.3922 62.1073L29.4365 62.283L29.4793 62.4878L29.5526 62.6635L29.6259 62.8407L29.6855 63.0454L29.7589 63.2212L29.846 63.3969L29.904 63.5726L29.9926 63.7773L30.1103 63.953L30.1974 64.1287L30.315 64.3044L30.4174 64.4954L30.5488 64.6849L30.6664 64.8606L30.7978 65.0516L30.9598 65.2273L31.0912 65.403L31.1783 65.4916L30.315 66.2082L30.2264 66.0921L30.066 65.9148L29.9055 65.6994L29.7742 65.4947L29.6214 65.3037L29.4884 65.0882L29.3861 64.8835L29.2547 64.6772L29.137 64.4878L29.0347 64.2525L28.9185 64.063L28.8299 63.8583L28.7428 63.6383L28.6542 63.4335L28.5671 63.2135L28.4938 62.9935C26.3257 66.4939 24.26 69.95 22.6496 73.3832C19.8811 79.2121 18.4173 84.9096 17.6992 91.2595C18.8368 92.0727 20.0181 92.823 21.2378 93.507C21.6183 93.7271 22.014 93.9318 22.4235 94.1518C23.1263 94.5322 23.8597 94.8989 24.5915 95.2351C25.383 95.6155 26.2019 95.9822 27.0667 96.3489C27.2715 96.436 27.5052 96.5384 27.7252 96.627C28.399 96.9051 29.0881 97.1831 29.8047 97.4475C35.7513 99.6431 42.503 101.267 49.6352 102.28H49.6795C55.8889 103.044 62.2449 103.29 68.6009 103.503C74.957 103.282 81.313 103.033 87.5239 102.28H87.5667C94.6989 101.269 101.451 99.6431 107.397 97.4475C108.115 97.1831 108.803 96.9051 109.477 96.627C109.697 96.5384 109.935 96.436 110.135 96.3489C111 95.9822 111.816 95.6155 112.61 95.2351C113.374 94.8684 114.091 94.517 114.778 94.1518C115.188 93.9318 115.584 93.7271 115.966 93.507C121.466 90.3733 124.577 87.0486 127.666 83.7683C127.167 81.9271 126.662 80.0967 126.141 78.3091ZM37.6688 71.4855H37.6245L37.3464 71.3236L37.024 71.1708L36.7184 71.0104L36.4251 70.8576L36.147 70.6956L35.8536 70.5428L35.5603 70.39L35.2944 70.225L35.0011 70.0646L34.7383 69.8889L34.4739 69.7269L34.2249 69.5512L33.9621 69.3984L33.464 69.047L33.2287 68.8713L32.9797 68.7094L32.8192 68.5779L33.493 67.6841L33.6535 67.8171L33.8888 67.9775L34.1073 68.1532L34.3426 68.3151L34.5763 68.4756L34.8254 68.6513L35.0744 68.8041L35.3387 68.9569L35.5878 69.1188L35.8506 69.2716L36.1149 69.432L36.3777 69.5848L36.6711 69.7453L36.9339 69.9072L37.2272 70.06L37.5206 70.1914L37.8261 70.3518L38.1195 70.5138H38.1332L37.6688 71.4855ZM79.3344 34.5304H80.4482V57.7177H79.3344V34.5304ZM46.1043 74.5612L45.8842 74.5184L45.4885 74.3855L45.079 74.2693L44.6986 74.1517L44.3029 74.0493L43.9224 73.9317L43.545 73.7972L43.1784 73.6796L42.7979 73.5482L42.4159 73.4168L42.0645 73.3144L41.681 73.1861L41.3296 73.0333L40.9629 72.9004L40.7734 72.8133L41.1692 71.788L41.3739 71.8614L41.7253 71.9928L42.0615 72.1242L42.4129 72.2418L42.7643 72.3732L43.1463 72.5062L43.4977 72.6223L43.8781 72.7537L44.2586 72.8576L44.639 72.9737L45.021 73.0761L45.4014 73.1937L45.7972 73.3114L46.1776 73.4137L46.4114 73.4871L46.1043 74.5612ZM54.8912 76.3778L54.5398 76.3198L54.0814 76.2464L53.623 76.1869L53.1646 76.0998L52.6956 76.0264L52.2693 75.9363L51.8308 75.8645L51.3724 75.7758L50.9324 75.6888L50.474 75.6001L50.0646 75.5131L49.6062 75.4244L49.3571 75.3511L49.6062 74.2968L49.8552 74.3412L50.7047 74.5169L51.1448 74.604L51.5695 74.6926L52.008 74.7506L52.4664 74.8392L52.9049 74.9416L53.3449 74.9997L53.8033 75.073L54.2418 75.1616L54.7109 75.2197L55.0485 75.264L54.8912 76.3778ZM57.9378 57.7177H56.8255V34.5304H57.9378V57.7177ZM63.7957 77.2548H63.7667L63.2533 77.1968L62.7705 77.1815L62.2587 77.1525L61.7743 77.1082L61.2625 77.0654L60.7644 77.0501L60.2816 77.0058L59.7835 76.9615L59.2991 76.9187L58.8026 76.8744L58.3182 76.8011H58.2021L58.3473 75.6888L58.4496 75.7178L58.9187 75.7606L59.4168 75.8049L59.8752 75.8492L60.3732 75.8935L60.8576 75.9363L61.3542 75.9806L61.8385 75.9959L62.3213 76.0539L62.8347 76.0692L63.3312 76.0982L63.8156 76.1425H63.8599L63.7957 77.2548ZM68.6025 50.5565C69.5406 50.5565 70.2832 52.0507 70.2832 53.8659C70.2832 55.681 69.536 57.1615 68.6025 57.1615C67.6689 57.1615 66.9035 55.6963 66.9035 53.8659C66.9035 52.0355 67.6628 50.5565 68.6025 50.5565ZM72.5399 77.3114H72.0265L71.5146 77.3404H71.0013L70.4894 77.3542H67.1494L67.1785 76.2419H70.4604L70.9722 76.2266H71.4856L71.9975 76.1975H72.5093L72.6865 76.1823L72.7293 77.2961L72.5399 77.3114ZM81.4138 76.578L80.9463 76.6513L80.4772 76.6956L79.9944 76.7537L79.4963 76.798L79.0273 76.8713L78.5445 76.9157L78.0464 76.9584L77.562 77.0027L77.0792 77.0471L76.5811 77.0623L76.0983 77.1051L76.0097 75.9928L76.494 75.9775L76.9769 75.9332L77.4749 75.8904L77.944 75.8461L78.4268 75.8018L78.9249 75.7575L79.394 75.7147L79.8523 75.6414L80.3504 75.5971L80.818 75.539L81.287 75.4947L81.5223 75.4367L81.6537 76.549L81.4138 76.578ZM90.2985 74.9416L89.9028 75.0287L89.4781 75.1311L89.0533 75.2197L88.6286 75.3373L88.1901 75.4244L87.7653 75.5131L87.3253 75.6001L86.9005 75.6888L86.4605 75.7758L86.0021 75.8645L85.5636 75.9363L85.1052 76.0249L84.9525 76.0539L84.7981 74.9554L84.9295 74.9416L85.3696 74.8392L85.8081 74.7506L86.2328 74.6926L86.6912 74.604L87.1159 74.5169L87.556 74.4282L87.9807 74.3412L88.4055 74.2388L88.8302 74.1502L89.226 74.0478L89.6492 73.9592L90.0449 73.8431L90.2069 73.8278L90.4697 74.8973L90.2985 74.9416ZM98.9159 72.0707L98.5797 72.2235L98.2573 72.3549L97.8906 72.4863L97.5683 72.6483L97.2031 72.7796L96.8654 72.911L96.514 73.044L96.1336 73.1968L95.7822 73.3297L95.4307 73.4321L95.0488 73.5635L94.6683 73.6949L94.2879 73.8125L93.9074 73.9439L93.6874 74.0172L93.3818 72.9477L93.5866 72.8759L93.9533 72.772L94.3337 72.6406L94.6989 72.5245L95.0503 72.3916L95.4032 72.2602L95.7547 72.1425L96.1198 72.0111L96.4712 71.8797L96.8089 71.7468L97.145 71.6154L97.4964 71.484L97.802 71.3312L98.1382 71.1998L98.4758 71.047L98.5186 71.018L98.9877 72.0432L98.9159 72.0707ZM106.341 67.4427L106.15 67.6184L105.946 67.7941L105.755 67.9698L105.521 68.144L105.301 68.3488L105.082 68.5245L104.833 68.7002L104.613 68.8621L104.364 69.0378L104.129 69.2135L103.882 69.3893L103.617 69.542L103.368 69.7178L103.104 69.8797L102.841 70.0554L102.548 70.2158L102.285 70.3916L102.007 70.523L101.48 69.5573L101.727 69.4045L101.992 69.2441L102.256 69.0913L102.505 68.9294L102.768 68.7766L103.017 68.6238L103.25 68.4481L103.486 68.2876L103.72 68.1257L103.94 67.95L104.173 67.7896L104.393 67.6138L104.613 67.4611L104.818 67.2853L105.009 67.0944L105.214 66.9416L105.419 66.7659L105.594 66.5764L105.77 66.4007L105.843 66.3564L106.619 67.1326L106.341 67.4427ZM109.68 61.2334L109.666 61.4534L109.637 61.6719L109.593 61.8919L109.577 62.1257L109.504 62.3457L109.461 62.5657L109.402 62.7704L109.357 62.9904L109.255 63.2105L109.197 63.4305L109.11 63.6352L109.021 63.8552L108.904 64.06L108.817 64.2494L108.728 64.4114L107.747 63.8843L107.82 63.7666L107.909 63.5619L107.996 63.3862L108.085 63.2105L108.143 63.0348L108.216 62.83L108.289 62.6528L108.332 62.4771L108.392 62.2723L108.436 62.0966L108.465 61.9209L108.509 61.7162L108.523 61.5405L108.552 61.3357L108.568 61.16V60.7933H109.68V61.2334ZM110.705 49.1798L110.529 48.587L110.377 47.9865L110.224 47.3861L110.071 46.7856L109.918 46.1989L109.765 45.629L109.613 45.0423L109.481 44.4709V44.4418L110.551 44.1928H110.565L110.696 44.7795L110.829 45.3509L110.989 45.9361L111.121 46.5075L111.283 47.0927L111.435 47.6932L111.611 48.2646L111.764 48.8651L111.94 49.4655V49.5389L110.87 49.8445V49.7864L110.705 49.1798ZM113.562 58.3625L113.409 58.011L113.189 57.3372L112.998 56.6925L112.765 56.0492L112.574 55.4045L112.369 54.775L112.164 54.1302L111.973 53.519L111.842 53.05L112.911 52.7444L113.043 53.1844L113.234 53.8139L113.438 54.4587L113.643 55.0699L113.834 55.7146L114.039 56.3594L114.259 57.0042L114.477 57.6474L114.595 58.0141L113.562 58.3625ZM116.476 66.7659L116.447 66.7078L115.967 65.348L115.469 63.9866L114.997 62.6436L114.63 61.5298L115.671 61.1646L116.051 62.2769L116.534 63.6108L117.003 64.9721L117.486 66.3335L117.516 66.3931L116.476 66.7659ZM119.567 75.128L119.523 74.9966L119.009 73.6215L118.468 72.2159L117.955 70.8408L117.633 69.9026L118.673 69.5222L119.009 70.4389L119.523 71.8308L120.034 73.2212L120.562 74.6131L120.606 74.7292L119.567 75.128ZM122.714 83.4474L121.66 80.6208L120.743 78.248L121.799 77.8523L122.707 80.2251L123.776 83.0517L122.714 83.4474Z" fill="#F8A94E"/>
<path d="M38.1226 70.4894H38.1363L37.6688 71.4855H37.6245L37.3464 71.3236L37.024 71.1769L36.7169 71.0165L36.4236 70.8698L36.1455 70.7094L35.8521 70.5474L35.5588 70.4007L35.296 70.225L35.0026 70.0646L34.7398 69.8889L34.4755 69.7269L34.2265 69.5512L33.9637 69.3908L33.4656 69.0394L33.2303 68.8637L32.9812 68.7017L32.8208 68.5703L33.4946 67.6765L33.655 67.8094L33.8903 67.9699L34.1103 68.1456L34.3441 68.306L34.5779 68.468L34.8269 68.6437L35.076 68.7903L35.3403 68.9508L35.5893 69.1127L35.8521 69.2594L36.1165 69.4198L36.3793 69.5665L36.6726 69.7269L36.9369 69.8889L37.2288 70.0356L37.5221 70.167L37.8292 70.3274L38.1226 70.4894Z" fill="#F8A94E"/>
<path d="M40.6998 39.9239C38.518 47.1875 33.7876 54.4664 29.3201 61.6199L29.3353 61.7223L29.3491 61.9271L29.3934 62.1028L29.4377 62.2785L29.4805 62.4832L29.5538 62.6589L29.6272 62.8362L29.6868 63.0409L29.7601 63.2166L29.8472 63.3923L29.9052 63.568L29.9939 63.7728L30.1115 63.9485L30.1986 64.1242L30.3162 64.2999L30.4186 64.4909L30.55 64.6803L30.6677 64.856L30.7991 65.047L30.961 65.2227L31.0924 65.3984L31.1795 65.487L30.3162 66.2036L30.2276 66.0875L30.0672 65.9103L29.9052 65.6994L29.7738 65.4947L29.6211 65.3037L29.4881 65.0883L29.3858 64.8835L29.2544 64.6773L29.1367 64.4878L29.0343 64.2525L28.9182 64.0631L28.8296 63.8583L28.7425 63.6383L28.6539 63.4336L28.5668 63.2135L28.4935 62.9935C26.3254 66.4939 24.2597 69.95 22.6493 73.3832C19.8807 79.2121 18.417 84.9096 17.6989 91.2595C17.2894 90.9662 16.909 90.6881 16.527 90.3947C16.498 90.381 16.4842 90.352 16.4537 90.3367C16.1023 90.0586 15.7661 89.7943 15.4285 89.5162C15.3414 89.4429 15.268 89.3634 15.1947 89.3115C14.4628 88.711 13.789 88.0892 13.1443 87.4658C12.7195 87.0563 12.31 86.6453 11.899 86.2358C11.488 85.8263 11.0938 85.4153 10.7134 85.0135C10.333 84.6117 9.92195 84.193 9.5415 83.7836C10.0243 81.9379 10.5377 80.1074 11.0495 78.3198C15.5018 62.9278 24.5087 24.6007 24.3422 16.7656C28.7481 12.9833 33.6075 9.76378 38.8083 7.18115C41.4912 18.0582 43.9802 28.9689 40.6998 39.9239Z" fill="#F8A94E"/>
<path d="M46.1776 73.4182L46.4114 73.4915L46.1043 74.561L45.8842 74.5167L45.4885 74.3838L45.079 74.2677L44.6986 74.15L44.3029 74.0477L43.9224 73.93L43.542 73.7986L43.1753 73.681L42.7948 73.5496L42.4129 73.4182L42.0615 73.3158L41.681 73.1829L41.3296 73.0377L40.9644 72.9048L40.7734 72.8177L41.1692 71.7925L41.3739 71.8658L41.7253 71.9972L42.0615 72.1286L42.4129 72.2463L42.7643 72.3777L43.1463 72.5091L43.4977 72.6267L43.8781 72.7581L44.2586 72.862L44.639 72.9781L45.021 73.0805L45.4014 73.1981L45.7971 73.3158L46.1776 73.4182Z" fill="#F8A94E"/>
<path d="M50.0734 75.5131L49.6181 75.4245L49.3706 75.3511L49.6181 74.2969L49.8672 74.3412L50.7167 74.5169L51.1567 74.604L51.5815 74.6926L52.0215 74.7507L52.4753 74.8393L52.9138 74.9416L53.3538 74.9997L53.8076 75.073L54.2476 75.1617L54.7152 75.2197L55.0528 75.264L54.8909 76.3763L54.5395 76.3183L54.0857 76.2449L53.6319 76.1854L53.1781 76.0983L52.7091 76.0249L52.269 75.9363L51.8305 75.8645L51.3767 75.7759L50.9367 75.6888L50.4829 75.6002L50.0734 75.5131Z" fill="#F8A94E"/>
<path d="M57.939 34.5334H56.8252V57.7177H57.939V34.5334Z" fill="#F8A94E"/>
<path d="M58.3183 76.801H58.2021L58.3473 75.6887L58.4512 75.7178L58.9187 75.7621L59.4168 75.8048L59.8706 75.8491L60.3687 75.8935L60.8515 75.9362L61.3496 75.9805L61.8339 75.9958L62.3168 76.0539L62.8286 76.0692L63.3267 76.0982L63.811 76.1425H63.8553L63.7958 77.2548H63.7667L63.2549 77.1968L62.7705 77.1815L62.2587 77.1524L61.7744 77.1081L61.2625 77.0654L60.7644 77.0501L60.2816 77.0058L59.7835 76.9615L59.2992 76.9187L58.8026 76.8744L58.3183 76.801Z" fill="#F8A94E"/>
<path d="M66.9004 53.8658C66.9004 52.0507 67.6643 50.5564 68.5994 50.5564C69.5345 50.5564 70.2801 52.0507 70.2801 53.8658C70.2801 55.6809 69.533 57.1615 68.5994 57.1615C67.6659 57.1615 66.9004 55.6962 66.9004 53.8658Z" fill="#F8A94E"/>
<path d="M68.6021 103.515C74.9581 103.295 81.3142 103.046 87.5251 102.292C74.9714 104.05 62.2343 104.05 49.6807 102.292C55.887 103.046 62.243 103.295 68.6021 103.515Z" fill="#F8A94E"/>
<path d="M70.4604 76.2449L70.9722 76.2296H71.4856L71.9974 76.2006H72.5093L72.6865 76.1853L72.7293 77.2992L72.5398 77.3129H72.0264L71.5146 77.3435H71.0012L70.4894 77.3572H67.1494L67.1784 76.2449H70.4604Z" fill="#F8A94E"/>
<path d="M80.4483 34.5334H79.3345V57.7177H80.4483V34.5334Z" fill="#F8A94E"/>
<path d="M76.0984 77.1082L76.0098 75.9959L76.4941 75.9806L76.9769 75.9363L77.475 75.8935L77.9441 75.8492L78.4269 75.8049L78.925 75.7621L79.394 75.7178L79.8478 75.6444L80.3459 75.6001L80.8135 75.5421L81.2825 75.4978L81.5178 75.4397L81.6492 76.552L81.4139 76.581L80.9464 76.6544L80.4773 76.6987L79.9945 76.7567L79.4964 76.801L79.0273 76.8744L78.5445 76.9187L78.0464 76.9615L77.5621 77.0058L77.0793 77.0501L76.5812 77.0654L76.0984 77.1082Z" fill="#F8A94E"/>
<path d="M90.202 73.8279L90.4648 74.8974L90.3044 74.9417L89.9087 75.0288L89.4839 75.1311L89.0591 75.2198L88.6344 75.3359L88.1959 75.4245L87.7711 75.5131L87.3311 75.6002L86.9063 75.6888L86.4663 75.7759L86.0125 75.8645L85.574 75.9363L85.1202 76.0249L84.9736 76.054L84.7979 74.9554L84.9292 74.9417L85.3693 74.8393L85.8078 74.7507L86.2325 74.6926L86.6863 74.604L87.1111 74.5169L87.5511 74.4283L87.9759 74.3412L88.4006 74.2389L88.8254 74.1503L89.2211 74.0479L89.6458 73.9593L90.04 73.8432L90.202 73.8279Z" fill="#F8A94E"/>
<path d="M98.5202 71.0164L98.9893 72.0416L98.9159 72.0706L98.5798 72.2173L98.2574 72.3487L97.8907 72.4801L97.5683 72.642L97.2032 72.7734L96.8655 72.9048L96.5141 73.0378L96.1336 73.1829L95.7822 73.3158L95.4308 73.4182L95.0504 73.5496L94.6684 73.681L94.2879 73.7987L93.9075 73.9301L93.6875 74.0034L93.3804 72.9354L93.5851 72.8621L93.9518 72.7582L94.3323 72.6268L94.6974 72.5091L95.0504 72.3777L95.4003 72.2463L95.7532 72.1287L96.1184 71.9973L96.4698 71.8659L96.8074 71.7345L97.1436 71.6015L97.495 71.4701L97.8036 71.3235L98.1398 71.1921L98.4759 71.0454L98.5202 71.0164Z" fill="#F8A94E"/>
<path d="M105.843 66.3884L106.619 67.1646L106.341 67.4427L106.15 67.6184L105.946 67.7941L105.755 67.9698L105.521 68.1455L105.301 68.3502L105.082 68.5259L104.833 68.7017L104.613 68.8636L104.364 69.0393L104.129 69.215L103.88 69.3907L103.617 69.5512L103.368 69.7269L103.105 69.8888L102.841 70.0645L102.548 70.225L102.285 70.4007L102.007 70.5321L101.478 69.5664L101.727 69.4198L101.991 69.2593L102.254 69.1127L102.503 68.9507L102.768 68.7903L103.017 68.6436L103.25 68.4679L103.486 68.3059L103.719 68.1455L103.939 67.9698L104.173 67.8094L104.393 67.6337L104.613 67.487L104.818 67.3113L105.009 67.1203L105.214 66.9736L105.418 66.7979L105.594 66.6084L105.77 66.4327L105.843 66.3884Z" fill="#F8A94E"/>
<path d="M108.568 60.7932H109.68V61.2332L109.666 61.4517L109.637 61.6718L109.593 61.8918L109.577 62.1255L109.504 62.3455L109.461 62.5656L109.402 62.7703L109.359 62.9903L109.255 63.2103L109.197 63.4304L109.11 63.6351L109.021 63.8551L108.904 64.0598L108.817 64.2493L108.728 64.4113L107.747 63.8841L107.82 63.7665L107.907 63.5618L107.996 63.386L108.085 63.2103L108.143 63.0346L108.216 62.8299L108.289 62.6527L108.332 62.4785L108.392 62.2722L108.436 62.0965L108.465 61.9208L108.508 61.7161L108.523 61.5403L108.552 61.3356L108.568 61.1599V60.7932Z" fill="#F8A94E"/>
<path d="M110.881 49.8383V49.7802L110.705 49.1797L110.529 48.5793L110.369 47.9788L110.222 47.3784L110.062 46.7779L109.915 46.1912L109.768 45.6213L109.622 45.0346L109.49 44.4631V44.4341L110.56 44.1851H110.574L110.705 44.7718L110.838 45.3432L110.998 45.9284L111.13 46.4998L111.292 47.085L111.438 47.6855L111.614 48.2569L111.774 48.8574L111.95 49.4578V49.5312L110.881 49.8383Z" fill="#F8A94E"/>
<path d="M114.483 57.6443L114.601 58.011L113.56 58.3625L113.415 58.011L113.195 57.3372L113.004 56.6925L112.771 56.0477L112.58 55.4045L112.375 54.775L112.17 54.1302L111.979 53.5144L111.848 53.0454L112.917 52.7383L113.049 53.1783L113.24 53.8078L113.444 54.4526L113.649 55.0668L113.84 55.7116L114.045 56.3563L114.265 56.9996L114.483 57.6443Z" fill="#F8A94E"/>
<path d="M117.486 66.3303L117.516 66.3884L116.476 66.7688L116.447 66.7107L115.964 65.3479L115.466 63.9865L114.997 62.6389L114.63 61.5266L115.67 61.1599L116.051 62.2722L116.534 63.6061L117.003 64.9674L117.486 66.3303Z" fill="#F8A94E"/>
<path d="M120.561 74.6192L120.606 74.7354L119.565 75.1311L119.522 74.9997L119.009 73.6231L118.468 72.2174L117.955 70.8408L117.632 69.9027L118.673 69.5222L119.009 70.4451L119.522 71.837L120.034 73.2273L120.561 74.6192Z" fill="#F8A94E"/>
<path d="M123.77 83.0546L122.714 83.4504L121.66 80.6238L120.737 78.251L121.793 77.8552L122.701 80.228L123.77 83.0546Z" fill="#F8A94E"/>
<path d="M130.506 95.4933C125.311 100.766 120.094 106.068 111.042 113.874C103.294 120.566 92.7076 129.105 81.7221 137.937C77.6894 138.65 73.6019 139.008 69.5066 139.006C64.5881 139.009 59.6835 138.484 54.877 137.44C44.1115 128.792 33.7661 120.43 26.1572 113.869C22.7302 110.925 19.8623 108.328 17.326 105.961C13.2252 102.123 10.0319 98.8715 6.85385 95.6461L6.69189 95.4933C7.57196 91.4658 8.53759 87.5483 9.53377 83.7774C9.91422 84.1869 10.3099 84.5979 10.7057 85.0074C11.1014 85.4168 11.4818 85.8278 11.8913 86.2297C12.3008 86.6315 12.7118 87.0502 13.1365 87.4596C13.7813 88.0708 14.4551 88.7049 15.187 89.3053C15.2603 89.3634 15.3398 89.4367 15.4207 89.5101C15.7584 89.7881 16.0945 90.0525 16.446 90.3305C16.4765 90.3458 16.4903 90.3749 16.5193 90.3886C16.9013 90.682 17.2832 90.96 17.6912 91.2534C18.1312 91.5758 18.5988 91.8829 19.0831 92.19V92.2053C19.7569 92.6453 20.4735 93.0685 21.2359 93.5086C21.6163 93.7286 22.0121 93.9333 22.4215 94.1533C23.1244 94.5338 23.8578 94.9005 24.5896 95.2366C25.3811 95.617 26.2 95.9837 27.0648 96.3504C27.2695 96.4375 27.5033 96.5399 27.7233 96.6285C28.3971 96.9066 29.0862 97.1847 29.8028 97.449C34.0823 99.0846 38.4914 100.358 42.9839 101.256C45.181 101.681 47.3919 102.02 49.6333 102.282H49.6776C55.887 103.046 62.243 103.292 68.599 103.504C74.9551 103.284 81.3111 103.035 87.522 102.282H87.5648C89.8062 102.017 92.017 101.681 94.2004 101.256C98.6973 100.358 103.111 99.0846 107.395 97.449C108.113 97.1847 108.801 96.9066 109.475 96.6285C109.695 96.5399 109.933 96.4375 110.133 96.3504C110.998 95.9837 111.814 95.617 112.608 95.2366C113.372 94.8699 114.089 94.5185 114.777 94.1533C115.186 93.9333 115.582 93.7286 115.964 93.5086C121.464 90.3749 124.575 87.0502 127.664 83.7698C128.66 87.5483 129.641 91.4612 130.506 95.4933Z" fill="white"/>
<path d="M70.283 53.8658C70.283 55.6993 69.5359 57.1615 68.6023 57.1615C67.6688 57.1615 66.9033 55.6962 66.9033 53.8658C66.9033 52.0354 67.6673 50.5564 68.6023 50.5564C69.5374 50.5564 70.283 52.0507 70.283 53.8658Z" fill="#CE3F14"/>
<path d="M54.8776 137.434C44.3109 135.117 34.4248 130.383 25.9949 123.603C17.5649 116.824 10.8205 108.183 6.29058 98.3597C6.25319 98.2592 6.2093 98.1612 6.15918 98.0663C6.33489 97.2031 6.51059 96.3383 6.70005 95.4888L6.85437 95.6461C10.0324 98.8669 13.2257 102.118 17.3265 105.956C19.8628 108.328 22.7307 110.925 26.1578 113.869C33.7667 120.43 44.112 128.792 54.8776 137.434Z" fill="#F8A94E"/>
<path d="M131.59 100.688C121.895 119.887 103.544 134.02 81.7222 137.932C92.7062 129.101 103.294 120.561 111.042 113.869C120.092 106.063 125.307 100.761 130.506 95.4932C130.887 97.2029 131.246 98.9447 131.59 100.688Z" fill="#F8A94E"/>
<path d="M31.1798 65.4793L30.3165 66.1974L30.2279 66.0812L30.0675 65.9055L29.907 65.6993L29.7741 65.4945L29.6274 65.3051L29.4808 65.0851L29.3784 64.8788L29.247 64.6741L29.1293 64.4846L29.027 64.2493L28.9109 64.0598L28.8222 63.8551L28.7352 63.6351L28.6465 63.4303L28.5594 63.2103L28.4861 62.9903V62.975L28.4265 62.7703L28.3822 62.5656L28.3104 62.3455L28.2661 62.1255L28.2218 61.8918L28.1927 61.6717L28.1775 61.4517L28.1484 61.2332V60.7932H29.2623V61.1599L29.2913 61.3356L29.3051 61.5403L29.3203 61.6137L29.3356 61.7161L29.3494 61.9208L29.3937 62.0965L29.438 62.2722L29.4808 62.4785L29.5541 62.6527L29.6274 62.8299L29.687 63.0346L29.7604 63.2103L29.8475 63.386L29.907 63.5617L29.9941 63.7665L30.1118 63.9422L30.1989 64.1179L30.3165 64.2936L30.4189 64.4846L30.5503 64.6741L30.6679 64.8498L30.7993 65.0407L30.9613 65.2165L31.0927 65.3922L31.1798 65.4793Z" fill="#323132"/>
<path d="M38.1363 70.4894L37.6688 71.4855H37.6245L37.3464 71.3236L37.024 71.1769L36.7169 71.0165L36.4236 70.8698L36.1455 70.7094L35.8521 70.5474L35.5588 70.4007L35.296 70.225L35.0026 70.0646L34.7398 69.8889L34.4755 69.7269L34.2265 69.5512L33.9637 69.3908L33.4656 69.0394L33.2303 68.8637L32.9812 68.7017L32.8208 68.5703L33.4946 67.6765L33.655 67.8094L33.8903 67.9699L34.1103 68.1456L34.3441 68.306L34.5779 68.468L34.8269 68.6437L35.076 68.7903L35.3403 68.9508L35.5893 69.1127L35.8521 69.2594L36.1165 69.4198L36.3793 69.5665L36.6726 69.7269L36.9369 69.8889L37.2288 70.0356L37.5221 70.167L37.8292 70.3274L38.1226 70.4894H38.1363Z" fill="#323132"/>
<path d="M46.4114 73.4915L46.1043 74.561L45.8842 74.5167L45.4885 74.3838L45.079 74.2677L44.6986 74.15L44.3029 74.0477L43.9224 73.93L43.542 73.7986L43.1753 73.681L42.7948 73.5496L42.4129 73.4182L42.0615 73.3158L41.681 73.1829L41.3296 73.0377L40.9644 72.9048L40.7734 72.8177L41.1692 71.7925L41.3739 71.8658L41.7253 71.9972L42.0615 72.1286L42.4129 72.2463L42.7643 72.3777L43.1463 72.5091L43.4977 72.6267L43.8781 72.7581L44.2586 72.862L44.639 72.9781L45.021 73.0805L45.4014 73.1981L45.7971 73.3158L46.1776 73.4182L46.4114 73.4915Z" fill="#323132"/>
<path d="M55.0528 75.264L54.8909 76.3763L54.5395 76.3183L54.0857 76.2449L53.6319 76.1854L53.1781 76.0983L52.7091 76.0249L52.269 75.9363L51.8305 75.8645L51.3767 75.7759L50.9367 75.6888L50.4829 75.6002L50.0734 75.5131L49.6181 75.4245L49.3706 75.3511L49.6181 74.2969L49.8672 74.3412L50.7167 74.5169L51.1567 74.604L51.5815 74.6926L52.0215 74.7507L52.4753 74.8393L52.9138 74.9416L53.3538 74.9997L53.8076 75.073L54.2476 75.1617L54.7152 75.2197L55.0528 75.264Z" fill="#323132"/>
<path d="M63.8553 76.1425L63.7958 77.2548H63.7667L63.2549 77.1968L62.7705 77.1815L62.2587 77.1524L61.7744 77.1081L61.2625 77.0654L60.7644 77.0501L60.2816 77.0058L59.7835 76.9615L59.2992 76.9187L58.8026 76.8744L58.3183 76.801H58.2021L58.3473 75.6887L58.4512 75.7178L58.9187 75.7621L59.4168 75.8048L59.8706 75.8491L60.3687 75.8935L60.8515 75.9362L61.3496 75.9805L61.8339 75.9958L62.3168 76.0539L62.8286 76.0692L63.3267 76.0982L63.811 76.1425H63.8553Z" fill="#323132"/>
<path d="M68.908 76.2449V77.3572H67.1494L67.1784 76.2449H68.908Z" fill="#323132"/>
<path d="M72.7289 77.2992L72.5395 77.3129H72.0261L71.5143 77.3435H71.0009L70.4891 77.3572H68.9077V76.2449H70.46L70.9719 76.2296H71.4852L71.9971 76.2006H72.5089L72.6862 76.1853L72.7289 77.2992Z" fill="#323132"/>
<path d="M81.6492 76.552L81.4139 76.581L80.9464 76.6544L80.4773 76.6987L79.9945 76.7567L79.4964 76.801L79.0273 76.8744L78.5445 76.9187L78.0464 76.9615L77.5621 77.0058L77.0793 77.0501L76.5812 77.0654L76.0984 77.1082L76.0098 75.9959L76.4941 75.9806L76.9769 75.9363L77.475 75.8935L77.9441 75.8492L78.4269 75.8049L78.925 75.7621L79.394 75.7178L79.8478 75.6444L80.3459 75.6001L80.8135 75.5421L81.2825 75.4978L81.5178 75.4397L81.6492 76.552Z" fill="#323132"/>
<path d="M90.4648 74.8974L90.3044 74.9417L89.9087 75.0288L89.4839 75.1311L89.0591 75.2198L88.6344 75.3359L88.1959 75.4245L87.7711 75.5131L87.3311 75.6002L86.9063 75.6888L86.4663 75.7759L86.0125 75.8645L85.574 75.9363L85.1202 76.0249L84.9736 76.054L84.7979 74.9554L84.9292 74.9417L85.3693 74.8393L85.8078 74.7507L86.2325 74.6926L86.6863 74.604L87.1111 74.5169L87.5511 74.4283L87.9759 74.3412L88.4006 74.2389L88.8254 74.1503L89.2211 74.0479L89.6458 73.9593L90.04 73.8432L90.202 73.8279L90.4648 74.8974Z" fill="#323132"/>
<path d="M98.9893 72.0416L98.9159 72.0706L98.5798 72.2173L98.2574 72.3487L97.8907 72.4801L97.5683 72.642L97.2032 72.7734L96.8655 72.9048L96.5141 73.0378L96.1336 73.1829L95.7822 73.3158L95.4308 73.4182L95.0504 73.5496L94.6684 73.681L94.2879 73.7987L93.9075 73.9301L93.6875 74.0034L93.3804 72.9354L93.5851 72.8621L93.9518 72.7582L94.3323 72.6268L94.6974 72.5091L95.0504 72.3777L95.4003 72.2463L95.7532 72.1287L96.1184 71.9973L96.4698 71.8659L96.8074 71.7345L97.1436 71.6015L97.495 71.4701L97.8036 71.3235L98.1398 71.1921L98.4759 71.0454L98.5202 71.0164L98.9893 72.0416Z" fill="#323132"/>
<path d="M106.619 67.1646L106.341 67.4427L106.15 67.6184L105.946 67.7941L105.755 67.9698L105.521 68.1455L105.301 68.3502L105.082 68.5259L104.833 68.7017L104.613 68.8636L104.364 69.0393L104.129 69.215L103.88 69.3907L103.617 69.5512L103.368 69.7269L103.105 69.8888L102.841 70.0645L102.548 70.225L102.285 70.4007L102.007 70.5321L101.478 69.5664L101.727 69.4198L101.991 69.2593L102.254 69.1127L102.503 68.9507L102.768 68.7903L103.017 68.6436L103.25 68.4679L103.486 68.3059L103.719 68.1455L103.939 67.9698L104.173 67.8094L104.393 67.6337L104.613 67.487L104.818 67.3113L105.009 67.1203L105.214 66.9736L105.418 66.7979L105.594 66.6084L105.77 66.4327L105.843 66.3884L106.619 67.1646Z" fill="#323132"/>
<path d="M109.68 60.7932V61.2332L109.666 61.4517L109.637 61.6718L109.593 61.8918L109.577 62.1255L109.504 62.3455L109.461 62.5656L109.402 62.7703L109.359 62.9903L109.255 63.2103L109.197 63.4304L109.11 63.6351L109.021 63.8551L108.904 64.0598L108.817 64.2493L108.728 64.4113L107.747 63.8841L107.82 63.7665L107.907 63.5618L107.996 63.386L108.085 63.2103L108.143 63.0346L108.216 62.8299L108.289 62.6527L108.332 62.4785L108.392 62.2722L108.436 62.0965L108.465 61.9208L108.508 61.7161L108.523 61.5403L108.552 61.3356L108.568 61.1599V60.7932H109.68Z" fill="#323132"/>
<path d="M57.939 34.5334H56.8252V57.7177H57.939V34.5334Z" fill="#323132"/>
<path fill-rule="evenodd" clip-rule="evenodd" d="M57.3845 28.0842L53.9819 34.8925H60.7887L57.3845 28.0842Z" fill="#323132"/>
<path d="M80.4483 34.5334H79.3345V57.7177H80.4483V34.5334Z" fill="#323132"/>
<path fill-rule="evenodd" clip-rule="evenodd" d="M79.8983 28.0842L76.4941 34.8925H83.3009L79.8983 28.0842Z" fill="#323132"/>
<path fill-rule="evenodd" clip-rule="evenodd" d="M23.4409 72.8178C23.4409 72.8178 65.38 104.826 118.195 71.5588C118.195 71.5588 68.4282 122.245 23.4409 72.8178Z" fill="#F09132"/>
<path opacity="0.4" d="M19.0831 92.193V92.2082L17.326 105.959L6.85385 95.646L6.69189 95.4932C7.57196 91.4657 8.53759 87.5482 9.53377 83.7773C9.91422 84.1868 10.3099 84.5978 10.7057 85.0073C11.1014 85.4168 11.4818 85.8278 11.8913 86.2296C12.3008 86.6314 12.7118 87.0501 13.1365 87.4596C13.7813 88.0707 14.4551 88.7048 15.187 89.3053C15.2603 89.3633 15.3398 89.4367 15.4207 89.51C15.7584 89.7881 16.0945 90.0524 16.446 90.3305C16.4765 90.3458 16.4903 90.3748 16.5193 90.3885C16.9013 90.6819 17.2832 90.96 17.6912 91.2533C18.1312 91.5788 18.5988 91.8859 19.0831 92.193Z" fill="#BDC6F4"/>
</g>
<defs>
<clipPath id="clip0">
<rect width="139" height="139" fill="white"/>
</clipPath>
</defs>
</svg>
