<svg width="207" height="423" viewBox="0 0 207 423" fill="none" xmlns="http://www.w3.org/2000/svg">
<g filter="url(#filter0_d)">
<mask id="path-1-inside-1" fill="white">
<path d="M-4.84214 414.617C50.0327 414.663 102.678 392.909 141.513 354.139C180.348 315.369 202.192 262.76 202.238 207.885C202.284 153.01 180.529 100.365 141.759 61.5297C102.99 22.6947 50.3806 0.85146 -4.49426 0.805324L-4.66822 207.711L-4.84214 414.617Z"/>
</mask>
<path d="M-4.84214 414.617C50.0327 414.663 102.678 392.909 141.513 354.139C180.348 315.369 202.192 262.76 202.238 207.885C202.284 153.01 180.529 100.365 141.759 61.5297C102.99 22.6947 50.3806 0.85146 -4.49426 0.805324L-4.66822 207.711L-4.84214 414.617Z" stroke="#D8B281" stroke-width="2" stroke-dasharray="10 10" mask="url(#path-1-inside-1)"/>
</g>
<defs>
<filter id="filter0_d" x="-8.84229" y="0.80542" width="215.254" height="421.986" filterUnits="userSpaceOnUse" color-interpolation-filters="sRGB">
<feFlood flood-opacity="0" result="BackgroundImageFix"/>
<feColorMatrix in="SourceAlpha" type="matrix" values="0 0 0 0 0 0 0 0 0 0 0 0 0 0 0 0 0 0 127 0"/>
<feOffset dy="4"/>
<feGaussianBlur stdDeviation="2"/>
<feColorMatrix type="matrix" values="0 0 0 0 0 0 0 0 0 0 0 0 0 0 0 0 0 0 0.25 0"/>
<feBlend mode="normal" in2="BackgroundImageFix" result="effect1_dropShadow"/>
<feBlend mode="normal" in="SourceGraphic" in2="effect1_dropShadow" result="shape"/>
</filter>
</defs>
</svg>
