<svg width="270" height="694" viewBox="0 0 270 694" fill="none" xmlns="http://www.w3.org/2000/svg">
<path d="M346.799 0.290452C301.333 0.252238 256.305 9.16959 214.285 26.5333C172.266 43.897 134.078 69.3671 101.901 101.489C69.7251 133.612 44.1909 171.757 26.7566 213.747C9.32222 255.738 0.32921 300.751 0.290998 346.217C0.252785 391.682 9.17012 436.711 26.5338 478.73C43.8976 520.75 69.3677 558.938 101.49 591.114C133.612 623.29 171.757 648.825 213.748 666.259C255.738 683.693 300.751 692.686 346.217 692.725L346.508 346.508L346.799 0.290452Z" fill="#D8B281" fill-opacity="0.1"/>
<path d="M346.738 72.9593C310.798 72.9291 275.205 79.9781 241.989 93.7037C208.774 107.429 178.587 127.563 153.152 152.955C127.718 178.346 107.533 208.499 93.752 241.692C79.9706 274.884 72.8618 310.466 72.8316 346.406C72.8014 382.345 79.8503 417.939 93.5759 451.155C107.302 484.37 127.435 514.557 152.827 539.991C178.219 565.426 208.372 585.61 241.564 599.392C274.756 613.173 310.338 620.282 346.278 620.312L346.508 346.636L346.738 72.9593Z" fill="#D8B281" fill-opacity="0.2"/>
<path d="M345.857 139.401C290.982 139.355 238.337 161.11 199.502 199.879C160.667 238.649 138.824 291.258 138.777 346.133C138.731 401.008 160.486 453.654 199.256 492.489C238.026 531.324 290.635 553.167 345.509 553.213L345.683 346.307L345.857 139.401Z" fill="#D8B281" fill-opacity="0.3"/>
</svg>
