<svg width="139" height="139" viewBox="0 0 139 139" fill="none" xmlns="http://www.w3.org/2000/svg">
<g clip-path="url(#clip0)">
<path fill-rule="evenodd" clip-rule="evenodd" d="M139 69.4932C139 97.5682 122.218 121.836 98.1687 132.791C89.1654 136.891 79.3861 139.009 69.4932 139C68.2923 139 67.1066 138.971 65.9194 138.913C55.5831 138.387 45.4972 135.544 36.4082 130.594C14.7625 118.791 4.96523e-05 95.8111 4.96523e-05 69.4932C-0.00930405 61.7129 1.30298 53.9875 3.8809 46.6466C4.39427 45.1371 4.97945 43.6581 5.59519 42.2081C5.59519 42.1944 5.60894 42.1944 5.60894 42.1791C8.5228 35.4225 12.4873 29.1694 17.3554 23.6519C17.5082 23.4624 17.6778 23.2714 17.8535 23.0957C17.8689 23.0684 17.8885 23.0437 17.9115 23.0224C21.2597 19.302 24.9992 15.9533 29.0651 13.0345L29.0804 13.0193C32.8607 10.3019 36.9044 7.97136 41.1508 6.06277H41.1661C44.6803 4.47192 48.3258 3.18829 52.0615 2.22623C52.0767 2.21096 52.0767 2.22623 52.0767 2.22623C62.5455 -0.49426 73.506 -0.725023 84.08 1.55243C90.6772 2.97664 97.0318 5.35457 102.943 8.61129C103.47 8.90465 103.984 9.198 104.496 9.48983C114.978 15.6745 123.689 24.4567 129.788 34.9888C129.821 35.0351 129.851 35.0836 129.877 35.134C131.677 38.2776 133.224 41.5591 134.505 44.9476C134.621 45.2532 134.739 45.5588 134.841 45.8643C135.147 46.6695 135.428 47.49 135.691 48.3243C135.924 49.0561 136.16 49.7895 136.364 50.5351C136.598 51.3709 136.823 52.2051 137.023 53.0546C138.338 58.4351 139.002 63.9542 139 69.4932Z" fill="#EDD9C1"/>
<path fill-rule="evenodd" clip-rule="evenodd" d="M129.871 35.1416C129.245 39.3495 128.33 43.5091 127.131 47.5909C126.809 48.6894 126.473 49.8033 126.121 50.9156C125.623 52.4526 125.096 53.9714 124.525 55.5145C124.393 55.895 124.247 56.2907 124.085 56.6711C123.953 57.0516 123.807 57.4473 123.646 57.8278C123.646 57.8583 123.631 57.8721 123.631 57.9011C123.325 58.6925 123.003 59.4835 122.665 60.2739C122.474 60.743 122.283 61.212 122.079 61.6796V61.6949L122.065 61.7086C115.752 76.5292 106.598 90.7217 96.8302 101.325C96.3901 101.795 95.9506 102.263 95.5116 102.731C95.0868 103.189 94.6483 103.64 94.1945 104.079C93.7408 104.517 93.3145 104.972 92.8607 105.397C92.4069 105.822 91.9822 106.247 91.5284 106.656C91.0746 107.066 90.6498 107.477 90.2098 107.878C90.1847 107.911 90.1554 107.94 90.1227 107.966C89.8003 108.259 89.4627 108.537 89.1418 108.815C88.9065 109.02 88.6727 109.226 88.439 109.416C88.1334 109.665 87.8385 109.914 87.5222 110.147C87.0837 110.514 86.6437 110.865 86.1899 111.203C85.7361 111.541 85.2961 111.891 84.8576 112.198C84.4191 112.505 83.9791 112.829 83.539 113.136C82.2067 114.043 80.8886 114.863 79.5848 115.596C79.2625 115.772 78.9554 115.934 78.6467 116.094C78.6177 116.109 78.6039 116.123 78.5749 116.138C77.7254 116.578 76.8759 116.972 76.0401 117.324C75.2069 117.678 74.3563 117.99 73.4916 118.259C73.1983 118.363 72.9049 118.45 72.6131 118.523C72.3969 118.595 72.1764 118.654 71.953 118.699C71.5879 118.788 71.2364 118.875 70.8697 118.948C70.3579 119.05 69.8598 119.124 69.3617 119.182C69.0561 119.226 68.7613 119.255 68.4679 119.27C68.3665 119.282 68.2644 119.286 68.1623 119.284C67.8247 119.315 67.4885 119.328 67.1509 119.328C66.7704 119.328 66.3747 119.315 65.979 119.284C65.7049 119.274 65.4315 119.25 65.16 119.211C64.9538 119.197 64.749 119.168 64.5489 119.139C64.514 119.141 64.4791 119.136 64.4465 119.124C64.1104 119.079 63.788 119.035 63.4503 118.971C63.0851 118.911 62.7184 118.818 62.3517 118.736C61.0039 118.409 59.6822 117.983 58.3976 117.461C58.1195 117.359 57.8414 117.241 57.5481 117.125C55.6655 116.299 53.8451 115.338 52.1011 114.25C51.6626 113.985 51.2088 113.707 50.7688 113.4C50.3288 113.093 49.8903 112.815 49.4502 112.506C47.6794 111.263 45.8918 109.871 44.1194 108.348C43.661 107.967 43.2271 107.571 42.7871 107.176C42.3471 106.78 41.8933 106.37 41.4548 105.953C41.0438 105.587 40.6496 105.206 40.2325 104.81C38.9154 103.536 37.6106 102.175 36.3073 100.768C23.6258 86.9723 12.1284 67.154 6.79759 47.1509C6.62188 46.4923 6.45992 45.8476 6.29949 45.189C6.12328 44.5005 5.96132 43.8144 5.81362 43.131C5.74181 42.8254 5.66847 42.5015 5.60889 42.1791C8.52274 35.4225 12.4872 29.1695 17.3553 23.6519C17.5081 23.4624 17.6777 23.2714 17.8534 23.0957C17.8689 23.0684 17.8885 23.0437 17.9115 23.0224C21.2596 19.302 24.9991 15.9533 29.0651 13.0345L29.0804 13.0193C32.8606 10.3019 36.9044 7.97136 41.1507 6.06277H41.166C44.6803 4.47192 48.3257 3.18829 52.0614 2.22623C52.0767 2.21096 52.0767 2.22623 52.0767 2.22623C62.5455 -0.49426 73.5059 -0.725023 84.0799 1.55243C90.6772 2.97664 97.0317 5.35458 102.943 8.6113C103.47 8.90465 103.984 9.19801 104.496 9.48983C114.978 15.6745 123.689 24.4567 129.788 34.9888C129.819 35.0377 129.847 35.0888 129.871 35.1416Z" fill="#F9A44F"/>
<path fill-rule="evenodd" clip-rule="evenodd" d="M52.8649 27.1676C52.5441 27.6948 48.3699 29.979 43.6089 30.9308C38.8725 31.898 33.5921 31.5756 29.3889 30.5657C26.1346 29.773 23.0522 28.3931 20.2933 26.4938C18.4598 25.2349 17.8334 24.3258 17.3506 23.652C17.5034 23.4625 17.673 23.2715 17.8487 23.0958C17.8642 23.0685 17.8837 23.0438 17.9067 23.0225C19.3567 23.6336 22.5347 25.3372 27.4988 26.5229C32.4935 27.6948 39.2453 28.3563 44.4294 28.0905C48.9993 27.8262 52.3378 26.8682 52.8221 27.05H52.8359C52.839 27.0905 52.8488 27.1303 52.8649 27.1676Z" fill="#48230C"/>
<path fill-rule="evenodd" clip-rule="evenodd" d="M54.731 8.33304C54.0129 9.10921 52.5186 8.71349 49.5163 7.99691C47.3207 7.46979 44.3612 6.79598 41.1694 6.0626C44.6837 4.47175 48.3291 3.18811 52.0648 2.22606C52.0801 2.21078 52.0801 2.21078 52.0801 2.22606C53.5011 2.78221 54.1886 3.4117 54.6424 4.24746C55.3895 5.62409 55.4491 7.5416 54.731 8.33304Z" fill="#48230C"/>
<path fill-rule="evenodd" clip-rule="evenodd" d="M134.505 44.9476C133.244 46.5137 132.234 46.6894 131.267 46.8651L127.142 47.5832H127.121C128.237 43.4363 129.127 39.232 129.788 34.9888C129.821 35.035 129.851 35.0835 129.877 35.1339C131.677 38.2775 133.224 41.559 134.505 44.9476Z" fill="#F09132"/>
<path fill-rule="evenodd" clip-rule="evenodd" d="M96.1044 5.31722C91.7254 6.32716 87.4198 7.29431 84.5336 7.99714C81.5313 8.71373 80.0371 9.10945 79.3205 8.33328C78.6039 7.55711 78.6604 5.62433 79.4228 4.24769C80.0523 3.0758 81.1509 2.31338 84.0798 1.55249C88.1961 2.43193 92.2216 3.69226 96.1044 5.31722Z" fill="#48230C"/>
<path fill-rule="evenodd" clip-rule="evenodd" d="M80.6562 27.3386C80.9831 27.8581 85.1558 30.1408 89.8861 31.0866C94.6455 32.0644 99.929 31.739 104.096 30.7306C107.363 29.9408 110.458 28.5592 113.228 26.6541C115.086 25.3493 115.704 24.4662 116.193 23.7817C116.684 23.0651 117.043 22.5777 115.608 23.1705C114.206 23.7817 111.009 25.4853 106.021 26.6847C101.031 27.8566 94.2483 28.509 89.0962 28.2477C83.9121 27.9559 80.3582 26.7794 80.65 27.331L80.6562 27.3386Z" fill="#48230C"/>
<path fill-rule="evenodd" clip-rule="evenodd" d="M67.1567 63.7941C72.3424 63.7941 76.5487 61.5771 76.5487 58.8712C76.5487 56.1653 72.3424 53.9453 67.1567 53.9453C62.0046 53.9453 57.7983 56.1638 57.7983 58.8712C57.7983 61.5787 62.0046 63.7941 67.1567 63.7941Z" fill="#F09132"/>
<path fill-rule="evenodd" clip-rule="evenodd" d="M48.8314 81.3694C54.9277 82.0539 61.0438 83.5237 67.1661 83.5558C73.3296 83.5558 79.542 82.1807 85.7361 81.5314C81.432 78.3686 77.1279 75.2074 73.9316 74.6849C70.7352 74.1303 68.7138 76.2128 66.6283 76.1853C64.5412 76.1853 62.4541 74.0997 59.4869 74.5856C56.5182 75.1081 52.671 78.2388 48.8237 81.3694H48.8314Z" fill="#CE3F14"/>
<path fill-rule="evenodd" clip-rule="evenodd" d="M48.8315 81.3694C54.9614 82.0539 61.0547 82.7063 67.2212 82.7445C73.3878 82.7827 79.5803 82.1578 85.7439 81.5374C84.0815 85.3878 82.3825 89.2335 77.1357 91.316C71.918 93.4046 63.1143 93.7285 57.8308 91.7744C52.5168 89.8156 50.6895 85.6093 48.8315 81.3709V81.3694Z" fill="#EF6F35"/>
<path fill-rule="evenodd" clip-rule="evenodd" d="M116.592 22.9353C114.994 20.098 113.396 17.2607 109.908 15.2057C106.386 13.1843 100.941 11.9452 96.2774 12.3027C91.6128 12.6969 87.7335 14.6847 85.2567 17.4578C82.8121 20.1958 81.767 23.687 80.6914 27.2088C81.1498 27.0423 84.5111 27.988 89.104 28.2493C94.256 28.5106 101.038 27.8582 106.028 26.6863C111.017 25.4792 114.213 23.7833 115.616 23.1721C116.201 22.9429 116.496 22.8788 116.594 22.9429L116.592 22.9353Z" fill="#EF6F35"/>
<path fill-rule="evenodd" clip-rule="evenodd" d="M52.8654 27.1674C52.3825 26.9764 49.0579 27.9589 44.462 28.1926C39.2778 28.486 32.5261 27.8259 27.5329 26.625C22.5535 25.4546 19.3449 23.7113 17.9072 23.1246C17.8919 23.1109 17.8629 23.1109 17.8491 23.0956C17.8646 23.0683 17.8842 23.0436 17.9072 23.0222C21.2553 19.3018 24.9948 15.9532 29.0608 13.0344L29.0761 13.0191C31.7407 12.3469 34.6407 12.0535 37.2778 12.2735C41.9348 12.6249 45.8157 14.6448 48.3046 17.4286C50.7217 20.1376 51.7622 23.5799 52.8165 27.0543H52.8302C52.8358 27.0937 52.8476 27.1319 52.8654 27.1674Z" fill="#EF6F35"/>
<path fill-rule="evenodd" clip-rule="evenodd" d="M98.169 132.791C89.1657 136.891 79.3865 139.009 69.4935 139C68.2926 139 67.1069 138.971 65.9198 138.913C55.5834 138.387 45.4975 135.544 36.4085 130.594C36.9662 122.144 36.6438 111.452 36.3062 100.775C37.6094 102.182 38.9143 103.544 40.2313 104.818C40.6423 105.214 41.0365 105.594 41.4536 105.961C43.9503 108.341 46.6231 110.529 49.4491 112.506C49.8891 112.829 50.3291 113.118 50.7677 113.4C51.2077 113.706 51.6615 113.985 52.1 114.25C53.8446 115.337 55.6655 116.296 57.5484 117.121C57.8418 117.237 58.1199 117.354 58.3979 117.457C59.6826 117.979 61.0043 118.405 62.3521 118.731C62.7188 118.82 63.0855 118.907 63.4507 118.966C63.7883 119.038 64.1107 119.082 64.4469 119.119C64.4795 119.132 64.5144 119.137 64.5492 119.134C64.754 119.163 64.9587 119.192 65.1604 119.206C65.4319 119.245 65.7053 119.27 65.9793 119.28C66.3751 119.31 66.7708 119.324 67.1512 119.324C67.5915 119.327 68.0315 119.307 68.4698 119.266C68.7632 119.25 69.055 119.221 69.3636 119.177C69.8617 119.119 70.3598 119.046 70.8717 118.943C71.2384 118.87 71.5898 118.791 71.9549 118.694C72.1784 118.649 72.3988 118.591 72.615 118.519C72.9068 118.445 73.2002 118.366 73.4935 118.254C75.2762 117.677 77.0056 116.947 78.6624 116.072C78.968 115.92 79.2735 115.75 79.6005 115.574C80.9033 114.843 82.2213 114.023 83.5547 113.114C83.9947 112.821 84.4332 112.514 84.8733 112.176C85.3118 111.871 85.7518 111.533 86.2056 111.182C87.5089 110.199 88.8274 109.102 90.1307 107.944C90.1635 107.919 90.1928 107.89 90.2178 107.857C92.9693 105.394 95.5805 102.778 98.0391 100.022C97.6709 111.979 97.3057 123.946 98.169 132.791Z" fill="#F09132"/>
<path fill-rule="evenodd" clip-rule="evenodd" d="M72.4925 88.0555C72.9394 88.0637 73.3786 87.9387 73.7541 87.6963C74.1296 87.454 74.4245 87.1053 74.6011 86.6948C74.7778 86.2843 74.8282 85.8304 74.7459 85.3911C74.6637 84.9518 74.4525 84.5469 74.1393 84.2281C73.8261 83.9093 73.4251 83.6909 72.9873 83.6009C72.5496 83.5108 72.0949 83.5531 71.6813 83.7224C71.2676 83.8917 70.9138 84.1803 70.6648 84.5515C70.4158 84.9226 70.283 85.3595 70.2832 85.8064C70.2843 86.397 70.5173 86.9636 70.9319 87.3842C71.3465 87.8049 71.9096 88.0459 72.5002 88.0555H72.4925Z" fill="white"/>
<path fill-rule="evenodd" clip-rule="evenodd" d="M137.023 53.0608L123.139 61.0715V61.0868L122.612 61.3802L122.085 61.6857L122.071 61.6995L120.621 62.5353L119.246 63.3252L118.147 63.9562L117.62 64.248L97.4672 75.8921L95.1081 71.8111L95.0929 71.782L93.8125 69.5666L113.965 57.9226L115.562 57.0058H115.576L117.868 55.6872L119.481 54.7445L126.13 50.908L134.839 45.866C135.145 46.6712 135.426 47.4916 135.689 48.3259C135.923 49.0577 136.158 49.7911 136.363 50.5367C136.593 51.3771 136.818 52.2113 137.023 53.0608Z" fill="white"/>
<path fill-rule="evenodd" clip-rule="evenodd" d="M97.4706 75.8918L117.623 64.2524L113.97 57.9238L93.8174 69.5664L97.4706 75.8918Z" fill="#75BD21"/>
<path fill-rule="evenodd" clip-rule="evenodd" d="M117.623 64.2526L123.135 61.0883L119.481 54.7292L113.97 57.9241L117.623 64.2526Z" fill="#B3B3B3"/>
<path fill-rule="evenodd" clip-rule="evenodd" d="M121.504 62.0005L123.134 61.0883L119.481 54.7292L117.851 55.675L121.504 62.0005Z" fill="#323132"/>
<path fill-rule="evenodd" clip-rule="evenodd" d="M97.4705 75.8919L86.1549 79.5115L85.0151 77.5542L93.8127 69.5664C95.0503 71.6535 96.2574 73.7727 97.4644 75.8919H97.4705Z" fill="white"/>
<path fill-rule="evenodd" clip-rule="evenodd" d="M117.623 64.2527L119.254 63.3375L115.568 56.98L113.97 57.9242L117.623 64.2527Z" fill="#323132"/>
<path fill-rule="evenodd" clip-rule="evenodd" d="M95.8402 76.8377L97.4705 75.8919L93.8173 69.5664L92.187 70.4786L95.8402 76.8377Z" fill="white"/>
<path fill-rule="evenodd" clip-rule="evenodd" d="M136.365 50.5412L136.145 50.6588L135.032 48.697L135.691 48.3303C135.925 49.0622 136.16 49.7956 136.365 50.5412Z" fill="#323132"/>
<path fill-rule="evenodd" clip-rule="evenodd" d="M133.666 52.089L132.818 52.5779L131.709 50.6207L132.525 50.1638L133.666 52.089Z" fill="#323132"/>
<path fill-rule="evenodd" clip-rule="evenodd" d="M135.329 51.1433L134.482 51.6322L133.372 49.675L134.187 49.186L135.329 51.1433Z" fill="#323132"/>
<path fill-rule="evenodd" clip-rule="evenodd" d="M132.003 53.0668L131.156 53.5558L130.045 51.5985L130.861 51.1096L132.003 53.0668Z" fill="#323132"/>
<path fill-rule="evenodd" clip-rule="evenodd" d="M130.96 55.0881L130.111 55.577L127.764 51.5006L128.58 51.0132L130.96 55.0881Z" fill="#323132"/>
<path fill-rule="evenodd" clip-rule="evenodd" d="M128.676 54.9904L127.829 55.4794L126.72 53.5237L127.535 53.0332L128.676 54.9904Z" fill="#323132"/>
<path fill-rule="evenodd" clip-rule="evenodd" d="M127.014 55.9363L126.166 56.4252L125.058 54.4695L125.872 54.0127L127.014 55.9363Z" fill="#323132"/>
<path fill-rule="evenodd" clip-rule="evenodd" d="M125.35 56.9157L124.504 57.371L123.396 55.4474L124.21 54.9585L125.35 56.9157Z" fill="#323132"/>
<path fill-rule="evenodd" clip-rule="evenodd" d="M123.687 57.8613L122.839 58.3487L121.731 56.393L122.546 55.9041L123.687 57.8613Z" fill="#323132"/>
<path fill-rule="evenodd" clip-rule="evenodd" d="M122.644 59.8814L121.796 60.3703L119.448 56.2939L120.264 55.8049L122.644 59.8814Z" fill="#323132"/>
<path fill-rule="evenodd" clip-rule="evenodd" d="M120.361 59.7851L119.513 60.274L118.405 58.3168L119.22 57.8279L120.361 59.7851Z" fill="#323132"/>
<path fill-rule="evenodd" clip-rule="evenodd" d="M118.697 60.7611L117.851 61.218L116.743 59.2959L117.558 58.8054L118.697 60.7611Z" fill="#323132"/>
<path fill-rule="evenodd" clip-rule="evenodd" d="M117.035 61.7072L116.187 62.1961L115.079 60.2404L115.893 59.7515L117.035 61.7072Z" fill="#323132"/>
<path fill-rule="evenodd" clip-rule="evenodd" d="M115.373 62.6528L114.525 63.1417L113.417 61.186L114.231 60.7307L115.373 62.6528Z" fill="#323132"/>
<path fill-rule="evenodd" clip-rule="evenodd" d="M114.297 64.7078L113.483 65.1646L111.134 61.0882L111.949 60.6313L114.297 64.7078Z" fill="#323132"/>
<path fill-rule="evenodd" clip-rule="evenodd" d="M112.047 64.5764L111.199 65.0669L110.091 63.1097L110.907 62.6528L112.047 64.5764Z" fill="#323132"/>
<path fill-rule="evenodd" clip-rule="evenodd" d="M110.384 65.5559L109.536 66.0448L108.395 64.0876L109.241 63.5986L110.384 65.5559Z" fill="#323132"/>
<path fill-rule="evenodd" clip-rule="evenodd" d="M108.688 66.5018L107.872 66.9907L106.731 65.0335L107.579 64.5767L108.688 66.5018Z" fill="#323132"/>
<path fill-rule="evenodd" clip-rule="evenodd" d="M107.026 67.4794L106.21 67.9684L105.068 66.0127L105.916 65.5222L107.026 67.4794Z" fill="#323132"/>
<path fill-rule="evenodd" clip-rule="evenodd" d="M105.981 69.5009L105.167 69.9899L102.82 65.915L103.634 65.426L105.981 69.5009Z" fill="#323132"/>
<path fill-rule="evenodd" clip-rule="evenodd" d="M103.699 69.4032L102.884 69.8601L101.742 67.9364L102.59 67.4475L103.699 69.4032Z" fill="#323132"/>
<path fill-rule="evenodd" clip-rule="evenodd" d="M102.036 70.3488L101.22 70.8392L100.079 68.882L100.928 68.3931L102.036 70.3488Z" fill="#323132"/>
<path fill-rule="evenodd" clip-rule="evenodd" d="M100.373 71.3283L99.5573 71.7836L98.416 69.86L99.2625 69.3711L100.373 71.3283Z" fill="#323132"/>
<path fill-rule="evenodd" clip-rule="evenodd" d="M98.7097 72.2742L97.8938 72.7631L96.7524 70.8058L97.602 70.3169L98.7097 72.2742Z" fill="#323132"/>
<path fill-rule="evenodd" clip-rule="evenodd" d="M97.0471 73.2517L96.2327 73.7085L95.0898 71.7834L95.9378 71.2944L97.0471 73.2517Z" fill="#323132"/>
<path fill-rule="evenodd" clip-rule="evenodd" d="M85.6993 78.7293L72.7535 86.2297L72.4922 85.8065L85.4701 78.3381L85.6993 78.7293Z" fill="#323132"/>
<path d="M86.7935 80.0999L87.1999 79.4888C88.1166 80.0999 88.3168 80.2191 88.358 80.239L88.031 80.8119C88.031 80.8119 86.9264 80.1885 86.7935 80.0999Z" fill="#323132"/>
<path d="M46.3198 80.2388C46.3641 80.2189 46.5628 80.1059 47.4764 79.4932L47.8829 80.1043C47.7515 80.1914 46.6055 80.8362 46.6055 80.8362L46.3198 80.2388Z" fill="#323132"/>
<path d="M50.3368 78.4389L49.9258 77.8278L52.3704 76.1578L52.7814 76.7689L50.3368 78.4389ZM55.226 75.1096L54.8166 74.4985C56.0312 73.6826 56.7234 73.2349 56.9923 73.0913C57.1115 73.0271 57.2459 72.966 57.3911 72.9034L57.6768 73.5787C57.5545 73.6291 57.44 73.6826 57.3361 73.7315C57.0947 73.8721 56.4056 74.3197 55.2291 75.1096H55.226ZM63.2811 73.2044C62.3473 73.0124 61.3919 72.9471 60.4407 73.0103L60.3949 72.2815C61.4141 72.2096 62.4384 72.2795 63.4385 72.4893L63.2811 73.2044Z" fill="#323132"/>
<path d="M67.3434 75.1265L65.8857 74.3183L66.2417 73.6765L67.3434 74.2892L68.448 73.6765L68.8025 74.3183L67.3434 75.1265Z" fill="#323132"/>
<path d="M84.3473 78.442L81.9027 76.7736L82.3137 76.1624L84.7583 77.8309L84.3473 78.442ZM79.4581 75.1112C78.3015 74.3335 77.591 73.8736 77.3481 73.7361C77.2503 73.6857 77.1372 73.6337 77.0119 73.5833L77.29 72.9065C77.4428 72.9661 77.5727 73.0287 77.6934 73.0913C77.9653 73.2441 78.6743 73.7025 79.8675 74.5016L79.4581 75.1112ZM71.4091 73.2044L71.2563 72.4894C72.2562 72.2819 73.2797 72.2125 74.2984 72.2831L74.2525 73.0119C73.3004 72.9493 72.3442 73.014 71.4091 73.2044Z" fill="#323132"/>
<path d="M47.2317 83.7195L46.6587 82.4223L47.2744 81.8967L47.9009 83.4231L47.2317 83.7195Z" fill="#323132"/>
<path d="M87.4641 83.8951L86.7949 83.5987C86.908 83.345 87.5451 82.0601 87.5451 82.0601L88.0493 82.5566C87.8538 83.0028 87.6612 83.4504 87.4641 83.8951Z" fill="#323132"/>
<path d="M65.7404 95.5073C64.7381 95.4889 63.7541 95.4324 62.8191 95.3407L62.8894 94.6119C63.8061 94.7021 64.7702 94.7571 65.7542 94.7754L65.7404 95.5073ZM68.6663 95.4553L68.6266 94.7235C69.5892 94.673 70.5517 94.586 71.4853 94.4653L71.58 95.1925C70.6266 95.3148 69.6457 95.4018 68.6663 95.4553ZM59.913 94.9206C58.9484 94.731 57.9979 94.4758 57.0681 94.1566L57.308 93.4645C58.2067 93.7716 59.1257 94.0161 60.0582 94.1963L59.913 94.9206ZM74.4647 94.7021L74.3119 93.987C75.2446 93.7877 76.1657 93.5378 77.0713 93.2384L77.302 93.9335C76.3711 94.2419 75.4239 94.4985 74.4647 94.7021ZM54.3714 92.9236C53.5154 92.4189 52.7176 91.8215 51.9924 91.1421L52.4936 90.6073C53.1789 91.2489 53.9331 91.8126 54.7426 92.288L54.3714 92.9236ZM80.0231 92.7785L79.6794 92.1322C80.5124 91.6935 81.2974 91.1691 82.0216 90.5676L82.4907 91.1314C81.7271 91.7639 80.9002 92.3158 80.0231 92.7785ZM84.5564 88.9969L83.9819 88.5386C84.5621 87.7932 85.0813 87.0022 85.5343 86.1734L86.176 86.5279C85.7037 87.3933 85.1621 88.219 84.5564 88.9969ZM50.0474 88.9037C49.4807 88.1017 48.9702 87.2614 48.5195 86.3888L49.1658 86.0481C49.6044 86.8904 50.0996 87.7021 50.6479 88.4774L50.0474 88.9037Z" fill="#323132"/>
</g>
<defs>
<clipPath id="clip0">
<rect width="139" height="139" fill="white"/>
</clipPath>
</defs>
</svg>
