<svg width="203" height="415" viewBox="0 0 203 415" fill="none" xmlns="http://www.w3.org/2000/svg">
<mask id="path-1-inside-1" fill="white">
<path d="M-4.84214 414.617C50.0327 414.663 102.678 392.909 141.513 354.139C180.348 315.369 202.192 262.76 202.238 207.885C202.284 153.01 180.529 100.365 141.759 61.5297C102.99 22.6947 50.3806 0.85146 -4.49426 0.805324L-4.66822 207.711L-4.84214 414.617Z"/>
</mask>
<path d="M-4.84214 414.617C50.0327 414.663 102.678 392.909 141.513 354.139C180.348 315.369 202.192 262.76 202.238 207.885C202.284 153.01 180.529 100.365 141.759 61.5297C102.99 22.6947 50.3806 0.85146 -4.49426 0.805324L-4.66822 207.711L-4.84214 414.617Z" stroke="#D8B281" stroke-width="2" stroke-dasharray="10 10" mask="url(#path-1-inside-1)"/>
</svg>
