<svg width="139" height="139" viewBox="0 0 139 139" fill="none" xmlns="http://www.w3.org/2000/svg">
<g clip-path="url(#clip0)">
<path d="M139 69.4932C139 104.671 112.653 133.889 78.6758 138.401C75.6364 138.801 72.5741 139.002 69.5084 139.002C60.1817 139.009 50.9503 137.126 42.3715 133.466H42.3563C40.6572 132.734 38.9949 131.938 37.3616 131.079C15.1873 119.449 3.39065e-05 96.1916 3.39065e-05 69.4932C-0.0138233 55.5151 4.22008 41.8628 12.1407 30.3455C24.677 12.0535 45.7237 0 69.5069 0C69.7422 0 69.9653 0 70.196 0.0152789C74.36 0.043673 78.5125 0.455395 82.6009 1.24523C92.059 3.05789 101.032 6.83471 108.939 12.3316C120.407 20.2589 129.245 31.432 134.319 44.4174V44.4311C134.51 44.9002 134.685 45.3693 134.846 45.8521C135.315 47.0973 135.724 48.3716 136.106 49.6596C136.222 50.0415 136.34 50.4235 136.442 50.8162C138.145 56.8955 139.006 63.1798 139 69.4932Z" fill="#EDD9C1"/>
<path d="M106.444 72.4511C106.444 73.0073 106.428 73.5787 106.415 74.1318C106.399 74.5413 106.386 74.9508 106.355 75.3755C106.312 76.005 106.253 76.6788 106.195 77.3526C106.179 77.5283 106.166 77.6903 106.15 77.8507C106.121 78.0707 106.092 78.3091 106.077 78.5398C105.605 83.1814 104.728 87.7728 103.457 92.2618C103.441 92.3214 103.441 92.3641 103.426 92.4146C98.7691 108.905 89.2931 125.875 78.6743 138.404C75.6349 138.804 72.5725 139.005 69.5069 139.005C60.1802 139.012 50.9488 137.129 42.37 133.469H42.3547C41.7699 133.324 41.1931 133.148 40.6267 132.942C39.4363 132.52 38.3303 131.891 37.3601 131.082C15.1873 119.449 3.39065e-05 96.1915 3.39065e-05 69.4931C-0.0138233 55.5151 4.22008 41.8628 12.1407 30.3455C24.677 12.0535 45.7237 0 69.5069 0C69.7422 0 69.9653 0 70.196 0.0152789C74.36 0.043673 78.5125 0.455395 82.6009 1.24523C103.706 12.9321 106.137 37.2806 106.415 60.9629V61.0362C106.428 62.0477 106.428 63.0729 106.428 64.0829C106.444 64.2434 106.444 64.4051 106.428 64.5657C106.444 67.2273 106.444 69.8598 106.444 72.4511Z" fill="#F8A94E"/>
<path d="M36.1483 74.5613C35.884 75.0319 32.0826 77.0655 27.8106 77.9486C23.5386 78.8318 18.735 78.5399 14.9641 77.6263C12.012 76.9125 9.21566 75.664 6.71349 73.9425C5.0649 72.7645 4.50416 71.9685 4.0626 71.3451C3.59201 70.6988 3.26657 70.2267 4.56222 70.7859C5.83037 71.3176 8.71809 72.8776 13.2269 73.9685C17.7342 75.0288 23.8626 75.6186 28.518 75.3833C33.2026 75.1174 36.4142 74.0571 36.1483 74.5582V74.5613Z" fill="#48230C"/>
<path d="M33.1157 57.2425C30.4327 56.5931 26.3929 55.6795 22.3303 54.7383C18.2645 53.8216 14.1698 52.8513 11.2225 52.7047C8.24616 52.5274 6.38977 53.1157 4.82826 54.0018C3.26675 54.888 2.00013 56.063 1.55704 56.2112C1.14604 56.364 1.5876 55.5038 3.12008 54.0018C4.68006 52.5274 7.334 50.3777 9.3661 49.3158C11.3997 48.2264 12.8421 48.2264 16.9383 48.7046C21.0346 49.1829 27.7864 50.1485 31.7879 50.9965C35.7895 51.8445 37.0622 52.587 37.7467 53.8536C38.4236 55.0912 38.4831 56.83 37.8338 57.5359C37.1844 58.2417 35.8323 57.8903 33.1218 57.2425H33.1157Z" fill="#48230C"/>
<path d="M70.1959 0.0152789C69.9316 0.834229 69.6826 1.64096 69.4198 2.45991C61.5404 7.14748 53.6458 11.8045 40.9781 17.418C32.1912 21.2988 21.1048 25.6044 12.1406 30.35C24.677 12.0535 45.7237 0 69.5068 0C69.7421 0 69.9622 0 70.1959 0.0152789Z" fill="#5C2A0D"/>
<path d="M111.306 59.0361C111.277 59.0514 111.263 59.0651 111.232 59.0804C111.202 59.0957 111.174 59.0941 111.159 59.1094C109.593 59.9146 108.025 60.6908 106.444 61.4822C106.429 61.3294 106.429 61.1889 106.415 61.0422V60.9628C105.859 52.952 105.192 44.897 99.1802 35.2606C92.9846 25.424 81.1954 13.9572 69.4199 2.45976C69.6827 1.64081 69.9318 0.834087 70.1961 0.0151367C74.3601 0.0435308 78.5126 0.455253 82.601 1.24509C92.0591 3.05775 101.032 6.83456 108.939 12.3315C110.447 16.388 111.545 20.9289 112.117 25.9817C113.196 35.7357 112.257 47.4073 111.306 59.0361Z" fill="#48230C"/>
<path d="M106.452 61.4855C109.634 59.652 116.468 55.6214 118.207 61.4259C119.092 64.3136 117.912 69.9118 116.293 75.4214C114.643 80.9309 112.551 86.3229 110.93 89.151C109.28 91.9516 108.131 92.1564 107.011 92.3596L103.269 93.0074C105.067 86.2312 106.452 78.1563 106.452 72.9126C106.452 67.6383 106.481 65.3999 106.452 61.4809V61.4855Z" fill="#F09132"/>
<path d="M64.76 57.2425C67.4689 56.5931 71.5072 55.6795 75.5729 54.7383C79.6386 53.8216 83.7334 52.8513 86.6807 52.7047C89.657 52.5274 91.5134 53.1157 93.0734 54.0018C94.6333 54.888 95.903 56.063 96.3461 56.2112C96.7571 56.364 96.3155 55.5038 94.7831 54.0018C93.2216 52.5274 90.5707 50.3777 88.537 49.3158C86.4744 48.2264 85.0229 48.2264 80.9648 48.7046C76.8685 49.1768 70.1168 50.1485 66.1137 50.9965C62.1106 51.8445 60.8119 52.587 60.1626 53.8536C59.4842 55.0912 59.4261 56.83 60.0755 57.5359C60.7248 58.2417 62.077 57.8903 64.76 57.2425Z" fill="#48230C"/>
<path d="M61.2821 74.7139C61.548 75.1861 65.3493 77.2182 69.6198 78.1028C73.8903 78.9875 78.6955 78.6926 82.4678 77.7789C86.2387 76.8362 89.0378 75.2732 90.6864 74.0952C92.367 72.9171 92.9263 72.1211 93.3678 71.4977C93.8094 70.8499 94.1318 70.3793 92.8682 70.9385C91.571 71.4687 88.6848 73.0302 84.1745 74.1211C79.6962 75.1815 73.5694 75.7697 68.8834 75.536C64.2279 75.2686 60.9887 74.2082 61.2821 74.7094V74.7139Z" fill="#48230C"/>
<path d="M49.0851 98.7568C53.7681 98.7568 57.5389 100.731 57.5389 103.206C57.5389 105.651 53.7681 107.655 49.0851 107.655C44.4021 107.655 40.5977 105.652 40.5977 103.206C40.5977 100.731 44.3991 98.7568 49.0851 98.7568Z" fill="#F09132"/>
<path d="M32.5244 123.538C38.005 124.157 43.5161 124.803 49.0852 124.833C54.6238 124.833 60.2511 124.274 65.8783 123.684C61.9593 120.826 58.0708 117.969 55.2136 117.496C52.3244 116.995 50.468 118.882 48.5841 118.852C46.7262 118.852 44.8423 116.966 42.1669 117.408C39.484 117.878 36.008 120.708 32.5305 123.538H32.5244Z" fill="#CE3F14"/>
<path d="M65.8751 123.681C64.3472 127.166 62.8193 130.638 58.0982 132.528C53.8949 134.196 47.1875 134.621 42.37 133.464H42.3547C41.7699 133.319 41.1931 133.143 40.6267 132.937C39.4363 132.516 38.3303 131.886 37.3601 131.078C34.9292 129.101 33.7283 126.317 32.5273 123.535C33.9024 123.687 35.2776 123.84 36.6527 123.993C40.7978 124.418 44.943 124.769 49.1019 124.784C54.6864 124.809 60.2815 124.237 65.8751 123.681Z" fill="#EF6F35"/>
<path d="M93.7227 70.7078C92.285 68.144 90.8641 65.6108 87.6815 63.7544C84.5004 61.9209 79.5836 60.8071 75.3667 61.131C71.1527 61.4855 67.6462 63.2823 65.4354 65.7865C63.226 68.2617 62.2528 71.4137 61.3101 74.5963C61.7241 74.4435 64.7295 75.3037 68.8823 75.5405C73.5683 75.7743 79.6952 75.1861 84.1734 74.1257C88.6838 73.0348 91.5699 71.4733 92.8671 70.9431C93.3667 70.7353 93.6311 70.6773 93.7212 70.7078H93.7227Z" fill="#EF6F35"/>
<path d="M3.73877 70.6773C5.15207 68.115 6.59746 65.5466 9.77853 63.7239C12.9611 61.8675 17.8519 60.749 22.0658 61.1005C26.2798 61.4213 29.7848 63.2548 32.0246 65.7575C34.234 68.2327 35.2072 71.3847 36.15 74.5673C35.7374 74.3901 32.7321 75.2732 28.5487 75.484C23.8932 75.7484 17.7648 75.1586 13.2575 74.0692C8.77776 73.0073 5.86254 71.4473 4.59439 70.9156C4.06421 70.6803 3.83044 70.6208 3.7403 70.6803L3.73877 70.6773Z" fill="#EF6F35"/>
<path d="M98.8789 66.3473C99.1441 66.3445 99.4073 66.3941 99.6532 66.4934C99.8991 66.5927 100.123 66.7397 100.312 66.9259C100.501 67.1121 100.651 67.3338 100.754 67.5783C100.857 67.8227 100.91 68.0851 100.911 68.3503C100.91 68.8892 100.696 69.4057 100.315 69.7869C99.9342 70.1681 99.4178 70.3827 98.8789 70.384C98.6131 70.3836 98.3499 70.3305 98.1046 70.2279C97.8594 70.1253 97.6369 69.9751 97.4499 69.7861C97.263 69.597 97.1154 69.3728 97.0155 69.1264C96.9157 68.8799 96.8656 68.6162 96.8683 68.3503C96.866 68.0865 96.9163 67.8249 97.0163 67.5808C97.1163 67.3367 97.2639 67.1149 97.4505 66.9284C97.6371 66.742 97.859 66.5945 98.1032 66.4947C98.3474 66.395 98.609 66.3448 98.8728 66.3473H98.8789Z" fill="white"/>
<path d="M136.441 50.8192L121.605 59.3876L120.477 57.4258L119.452 55.6535L118.295 53.6764L134.317 44.4204V44.4342C134.508 44.9032 134.684 45.3723 134.844 45.8551C135.313 47.1003 135.723 48.3746 136.105 49.6626C136.218 50.0446 136.335 50.4204 136.441 50.8192Z" fill="white"/>
<path d="M136.441 50.8191L121.605 59.3876L120.477 57.4257L119.452 55.6534L118.295 53.6763L134.317 44.4341C134.508 44.9031 134.684 45.3722 134.844 45.855C135.313 47.1003 135.723 48.3745 136.105 49.6625C136.218 50.0445 136.335 50.4204 136.441 50.8191Z" fill="#F5AF00"/>
<path d="M121.596 59.3936L111.371 62.6633L110.341 60.8956L118.296 53.6763C119.386 55.5617 120.505 57.4777 121.596 59.3936Z" fill="white"/>
<path d="M120.123 60.2477L121.596 59.3936L118.296 53.6763L116.823 54.5013L120.123 60.2477Z" fill="white"/>
<path d="M136.102 49.6564L136.057 49.6854L133.947 46.0108L134.681 45.5708L134.833 45.8489C135.31 47.1002 135.72 48.3745 136.102 49.6564Z" fill="#323132"/>
<path d="M134.737 49.1692L134.001 49.6107L132.968 47.843L133.735 47.4304L134.737 49.1692Z" fill="#323132"/>
<path d="M133.235 50.0521L132.499 50.4952L131.466 48.7275L132.231 48.2859L133.235 50.0521Z" fill="#323132"/>
<path d="M131.732 50.9061L130.995 51.3492L129.964 49.5815L130.729 49.1399L131.732 50.9061Z" fill="#323132"/>
<path d="M130.23 51.791L129.492 52.2035L128.46 50.4648L129.226 50.0232L130.23 51.791Z" fill="#323132"/>
<path d="M129.286 53.6183L128.549 54.0599L126.398 50.3471L127.165 49.9346L129.286 53.6183Z" fill="#323132"/>
<path d="M127.225 53.5297L126.488 53.9423L125.456 52.2035L126.221 51.762L127.225 53.5297Z" fill="#323132"/>
<path d="M125.721 54.3837L124.983 54.8253L123.952 53.0575L124.719 52.616L125.721 54.3837Z" fill="#323132"/>
<path d="M124.219 55.267L123.482 55.6795L122.45 53.9117L123.216 53.5007L124.219 55.267Z" fill="#323132"/>
<path d="M122.714 56.121L121.978 56.5641L120.946 54.7963L121.713 54.3547L122.714 56.121Z" fill="#323132"/>
<path d="M121.212 56.9765L120.476 57.4181L119.444 55.6518L120.21 55.2378L121.212 56.9765Z" fill="#323132"/>
<path d="M110.96 61.956L99.2612 68.7337L99.0259 68.3502L110.752 61.603L110.96 61.956Z" fill="#323132"/>
<path d="M62.5216 76.9766C64.0063 77.7099 65.5498 78.3176 67.1358 78.7932L66.7248 79.8184C65.1065 79.3178 63.53 78.691 62.0098 77.9437L62.5216 76.9766Z" fill="#1E0F00"/>
<path d="M68.7554 79.2764C70.4948 79.7325 72.2676 80.0508 74.0571 80.2283L73.9044 81.3268C72.0295 81.1352 70.1731 80.7923 68.3535 80.3016L68.7554 79.2764Z" fill="#1E0F00"/>
<path d="M81.6626 79.9348L81.8689 81.0196C80.2467 81.3279 78.5988 81.4814 76.9476 81.478C76.4892 81.478 76.0537 81.4627 75.6152 81.4337L75.7757 80.3504C77.7475 80.4482 79.724 80.3087 81.6626 79.9348Z" fill="#1E0F00"/>
<path d="M88.1593 77.6658L88.7002 78.6024C87.0762 79.4991 85.3436 80.1831 83.5451 80.6375L83.3403 79.568C85.0126 79.1156 86.6289 78.4776 88.1593 77.6658Z" fill="#1E0F00"/>
<path d="M94.8442 73.8278C93.4533 75.3239 91.8788 76.6381 90.1581 77.7392L89.6157 76.7858C91.2408 75.731 92.7313 74.4822 94.0543 73.0669L94.8442 73.8278Z" fill="#1E0F00"/>
</g>
<defs>
<clipPath id="clip0">
<rect width="139" height="139" fill="white"/>
</clipPath>
</defs>
</svg>
