<svg width="139" height="139" viewBox="0 0 139 139" fill="none" xmlns="http://www.w3.org/2000/svg">
<path fill-rule="evenodd" clip-rule="evenodd" d="M69.5076 139C107.789 139 139 107.776 139 69.4924C139 31.2084 107.789 0 69.5076 0C31.2267 0 0 31.2237 0 69.4924C0 107.761 31.2237 139 69.5076 139Z" fill="#EDD9C1"/>
<path fill-rule="evenodd" clip-rule="evenodd" d="M69.5076 28.8066C98.6365 28.8066 98.0345 49.9555 98.0345 67.7354C98.0345 85.5153 80.6366 110.177 69.5076 110.177C58.3785 110.177 40.9776 86.8033 40.9776 67.7354C40.9776 48.6675 40.3664 28.8066 69.5076 28.8066Z" fill="#F8A94E"/>
<path fill-rule="evenodd" clip-rule="evenodd" d="M61.5839 60.1786C60.2364 59.8562 58.2303 59.4024 56.2089 58.9333C54.1875 58.4643 52.1508 57.9952 50.6871 57.9234C49.2234 57.8516 48.2807 58.1282 47.5168 58.5667C46.7529 59.0052 46.1096 59.5919 45.8911 59.6652C45.6726 59.7385 45.9064 59.3138 46.6673 58.5667C47.4282 57.8195 48.762 56.7653 49.7719 56.2382C50.7819 55.7111 51.5152 55.6973 53.5366 55.9326C55.558 56.1679 58.9254 56.6507 60.9178 57.0754C62.9101 57.5002 63.5534 57.8654 63.8758 58.4948C64.1981 59.1243 64.2409 59.9754 63.9201 60.3283C63.5992 60.6812 62.9239 60.504 61.5916 60.1831L61.5839 60.1786Z" fill="#48230C"/>
<path fill-rule="evenodd" clip-rule="evenodd" d="M79.6267 32.9518C75.7016 35.2818 71.7764 37.595 65.4801 40.3773C59.1837 43.1595 50.4962 46.3971 46.0302 50.0579C41.5642 53.7187 41.2693 57.7767 40.9882 61.847C40.1815 61.4818 39.3763 61.1014 38.5711 60.7347C38.0287 55.3871 37.4725 50.0579 38.3801 44.4491C39.2877 38.8402 41.662 32.99 46.157 28.7929C50.652 24.5959 57.2586 22.0275 63.0293 21.1184C68.8001 20.2093 73.778 20.9427 76.8979 21.6318C80.0178 22.3208 81.2768 23.0069 82.551 23.6669C81.5701 26.7578 80.5877 29.8624 79.6221 32.9518H79.6267Z" fill="#5C2A0D"/>
<path fill-rule="evenodd" clip-rule="evenodd" d="M79.6265 32.9517C85.4691 38.6628 91.327 44.3603 94.4041 49.2525C97.4813 54.1448 97.7441 58.2151 98.0206 62.2868C98.8258 61.8759 99.631 61.4817 100.438 61.0645C100.905 55.28 101.374 49.4802 100.832 44.6323C100.29 39.7843 98.7387 35.8454 96.7326 32.7989C94.7265 29.7523 92.2513 27.5705 89.8205 26.1939C87.3896 24.8172 84.9572 24.2458 82.5554 23.6606C81.5745 26.7515 80.5921 29.8562 79.6265 32.9455V32.9517Z" fill="#48230C"/>
<path fill-rule="evenodd" clip-rule="evenodd" d="M40.9927 61.8467C39.4114 60.9391 36.0577 59.2111 35.1868 62.0957C34.7483 63.5457 35.3396 66.3279 36.1402 69.0521C36.9408 71.7764 37.9843 74.4868 38.8048 75.8772C39.6253 77.2675 40.1967 77.3714 40.7528 77.4738L42.3831 77.7687C41.4908 74.3844 40.9774 71.0017 40.9774 67.7366C40.9774 65.7733 40.9774 63.8115 40.9927 61.8482V61.8467Z" fill="#F09132"/>
<path fill-rule="evenodd" clip-rule="evenodd" d="M98.0208 62.2868C99.6022 61.3792 103.002 59.3716 103.865 62.2577C104.303 63.6924 103.712 66.4747 102.913 69.2141C102.114 71.9536 101.054 74.632 100.248 76.0392C99.4433 77.4463 98.8566 77.5319 98.3004 77.6358L96.4395 77.9566C97.3333 74.5953 98.0346 70.5755 98.0346 67.9689C98.0346 65.3624 98.0346 64.2348 98.0208 62.2868Z" fill="#F09132"/>
<path fill-rule="evenodd" clip-rule="evenodd" d="M77.3106 60.1786C78.6429 59.8562 80.6474 59.4024 82.6703 58.9333C84.6932 58.4643 86.7268 57.9952 88.1906 57.9234C89.6543 57.8516 90.5924 58.1282 91.3685 58.5667C92.1447 59.0052 92.7742 59.5919 92.9957 59.6652C93.2173 59.7385 92.9804 59.3138 92.218 58.5667C91.4556 57.8195 90.1248 56.7653 89.1134 56.2382C88.1019 55.7111 87.3854 55.6973 85.3487 55.9326C83.312 56.1679 79.9599 56.6507 77.9691 57.0754C75.9782 57.5002 75.3472 57.8654 75.0096 58.4948C74.6719 59.1243 74.6444 59.9754 74.9653 60.3283C75.2861 60.6812 75.963 60.504 77.3106 60.1831V60.1786Z" fill="#48230C"/>
<path fill-rule="evenodd" clip-rule="evenodd" d="M69.508 85.2356C71.8212 85.2356 73.7112 84.2395 73.7112 83.0248C73.7112 81.8101 71.8212 80.814 69.508 80.814C67.1948 80.814 65.2896 81.8101 65.2896 83.0248C65.2896 84.2395 67.1933 85.2356 69.508 85.2356Z" fill="#F09132"/>
<path fill-rule="evenodd" clip-rule="evenodd" d="M61.2754 93.1301C64.0149 93.4357 66.7376 93.7596 69.5076 93.7749C72.2776 93.7902 75.0569 93.4968 77.8544 93.2035C75.9216 91.7826 73.9736 90.3616 72.5527 90.1279C71.1317 89.8941 70.1951 90.8169 69.2723 90.8016C68.3495 90.7864 67.3976 89.8651 66.0638 90.0835C64.7299 90.302 63.008 91.7245 61.2754 93.1301Z" fill="#CE3F14"/>
<path fill-rule="evenodd" clip-rule="evenodd" d="M61.2754 93.1301C64.0149 93.4356 66.7681 93.7305 69.5351 93.7412C72.3021 93.7519 75.0721 93.4769 77.8544 93.1988C77.0905 94.9268 76.3265 96.6549 73.9873 97.5914C71.6482 98.528 67.691 98.6762 65.3029 97.7977C62.9148 96.9192 62.0943 95.0139 61.2754 93.1255V93.1301Z" fill="#EF6F35"/>
<path fill-rule="evenodd" clip-rule="evenodd" d="M47.0845 67.106C50.9943 60.1206 60.3678 60.1786 63.0172 69.0235C62.4182 68.8035 58.9897 68.3497 55.4618 67.9403C51.39 67.4574 47.1868 67.0464 47.0845 67.106Z" fill="#EF6F35"/>
<path fill-rule="evenodd" clip-rule="evenodd" d="M83.3611 101.507C78.6889 106.736 73.6667 110.176 69.5079 110.176C65.349 110.176 60.3101 106.911 55.6378 101.843C55.8135 107.57 55.9892 113.303 55.485 117.324C54.9808 121.345 53.8303 123.665 49.5981 125.584C45.7311 127.327 39.2727 128.733 34.6738 129.655C45.3343 135.821 57.4409 139.046 69.756 138.999C82.0711 138.953 94.153 135.637 104.767 129.391C100.125 128.483 93.4008 127.049 89.4039 125.247C85.1564 123.328 83.9998 121.014 83.5017 116.986C83.0036 112.959 83.1961 107.234 83.3489 101.507H83.3611Z" fill="#F09132"/>
<path fill-rule="evenodd" clip-rule="evenodd" d="M62.7406 69.4174C62.5451 69.4709 62.2487 69.4648 61.7964 69.529C61.4214 69.5842 61.0515 69.6695 60.6902 69.7841C59.5764 70.1355 57.94 70.8979 56.2227 71.0584C54.5843 71.1917 52.9417 70.8569 51.4863 70.0927C50.2396 69.4037 49.552 68.4961 48.8477 67.587C49.3626 67.4556 49.8454 66.9575 50.62 66.4304C51.5553 65.7504 52.6163 65.2627 53.7414 64.9957C55.1963 64.6446 56.7238 64.747 58.1188 65.2891C59.6467 65.8896 61.1364 67.0752 61.6788 67.4281C61.8545 67.5595 61.9416 67.5886 61.9416 67.5458C62.2824 67.9008 62.5951 68.2819 62.8766 68.6856L62.9209 68.7604C63.1012 69.0966 63.063 69.3303 62.7406 69.4174Z" fill="white"/>
<path fill-rule="evenodd" clip-rule="evenodd" d="M55.8392 71.3288C56.614 71.327 57.3708 71.0955 58.014 70.6636C58.6571 70.2318 59.1578 69.6188 59.4527 68.9024C59.7476 68.186 59.8234 67.3982 59.6706 66.6387C59.5178 65.8792 59.1432 65.182 58.5942 64.6354C58.0452 64.0887 57.3464 63.7171 56.5863 63.5676C55.8261 63.418 55.0387 63.4972 54.3235 63.7952C53.6084 64.0931 52.9976 64.5964 52.5685 65.2415C52.1393 65.8865 51.9111 66.6443 51.9126 67.419C51.9154 68.458 52.3306 69.4534 53.0668 70.1865C53.8031 70.9196 54.8003 71.3305 55.8392 71.3288Z" fill="#6D8A3F"/>
<path fill-rule="evenodd" clip-rule="evenodd" d="M61.6866 67.4268C61.1442 67.0769 59.65 65.8897 58.1267 65.2878C56.7314 64.7469 55.2043 64.6445 53.7493 64.9944C52.6238 65.2611 51.5627 65.7493 50.6279 66.4306C49.8532 66.9577 49.3704 67.4558 48.8555 67.5872C48.3407 67.7186 47.7738 67.5139 47.4224 67.3672C47.071 67.2205 46.9381 67.0891 47.0847 67.1044C47.2314 67.1197 47.6409 67.2358 48.3727 66.646C49.1046 66.0563 50.1603 64.8004 51.4193 64.0823C52.6783 63.3642 54.1695 63.2175 55.4468 63.3061C56.6239 63.3606 57.7658 63.7242 58.7577 64.3603C59.7233 64.9898 60.5911 65.9279 61.2176 66.6308C61.844 67.3336 62.229 67.7873 61.6866 67.4207V67.4268Z" fill="#48230C"/>
<path fill-rule="evenodd" clip-rule="evenodd" d="M47.7874 67.5151C48.4474 68.467 49.1044 69.4341 50.2625 70.1797C51.5849 70.9881 53.1053 71.4143 54.6552 71.4112C56.2533 71.3822 57.8056 70.8245 58.5085 70.5617C58.9179 70.4089 59.0646 70.3707 59.0936 70.3554C58.1712 70.71 57.2076 70.9467 56.2258 71.0598C55.9678 71.084 55.7087 71.0937 55.4497 71.0888C55.3487 71.106 55.2465 71.1157 55.1441 71.1179C54.9371 71.1193 54.731 71.0894 54.5329 71.0292C53.4688 70.9102 52.4364 70.5925 51.4894 70.0927C50.2427 69.4051 49.5551 68.496 48.8508 67.5885C48.4947 67.6682 48.1231 67.6427 47.7812 67.5151H47.7874Z" fill="#48230C"/>
<path fill-rule="evenodd" clip-rule="evenodd" d="M55.839 69.3748C56.2581 69.376 56.6681 69.2527 57.0171 69.0206C57.3661 68.7885 57.6382 68.4579 57.7991 68.0709C57.96 67.6839 58.0023 67.2579 57.9207 66.8468C57.8392 66.4357 57.6373 66.0581 57.3409 65.7618C57.0444 65.4656 56.6667 65.264 56.2555 65.1828C55.8444 65.1015 55.4183 65.1441 55.0314 65.3053C54.6445 65.4664 54.3142 65.7388 54.0824 66.088C53.8505 66.4371 53.7275 66.8472 53.729 67.2663C53.7326 67.8247 53.9561 68.3591 54.3511 68.7538C54.7461 69.1484 55.2807 69.3716 55.839 69.3748Z" fill="#323132"/>
<path fill-rule="evenodd" clip-rule="evenodd" d="M53.7815 67.6848C53.9632 67.6848 54.1408 67.6308 54.2918 67.5296C54.4427 67.4285 54.5602 67.2848 54.6293 67.1167C54.6984 66.9487 54.716 66.7639 54.6799 66.5858C54.6438 66.4077 54.5556 66.2444 54.4264 66.1166C54.2973 65.9887 54.1331 65.9022 53.9547 65.8678C53.7763 65.8335 53.5916 65.853 53.4243 65.9238C53.257 65.9946 53.1144 66.1135 53.0148 66.2654C52.9152 66.4174 52.863 66.5955 52.8648 66.7772C52.8672 67.0188 52.9649 67.2496 53.1365 67.4195C53.3082 67.5895 53.54 67.6848 53.7815 67.6848Z" fill="white"/>
<path fill-rule="evenodd" clip-rule="evenodd" d="M91.6725 67.106C87.7627 60.1206 78.3891 60.1786 75.7383 69.0235C76.3403 68.8035 79.7658 68.3497 83.2967 67.9403C87.367 67.4574 91.5702 67.0464 91.6725 67.106Z" fill="#EF6F35"/>
<path fill-rule="evenodd" clip-rule="evenodd" d="M89.8927 67.587C89.1898 68.4961 88.5023 69.4037 87.2571 70.0927C85.8015 70.8564 84.159 71.1913 82.5207 71.0584C80.8064 70.8979 79.167 70.1416 78.0394 69.7841C77.534 69.6222 77.0116 69.5197 76.4825 69.4785C76.3212 69.4717 76.1608 69.4517 76.0028 69.4189C75.6804 69.3319 75.6361 69.0981 75.8118 68.7604C75.8449 68.6974 75.8822 68.6367 75.9233 68.5786C76.1923 68.2169 76.4831 67.872 76.7942 67.5458C76.7942 67.5885 76.8675 67.5595 77.0585 67.4281C77.6009 67.0767 79.0936 65.8911 80.6169 65.2891C82.0124 64.7466 83.5405 64.6442 84.9958 64.9957C86.1204 65.263 87.1809 65.7506 88.1157 66.4304C88.898 66.9575 89.3655 67.4556 89.8927 67.587Z" fill="white"/>
<path fill-rule="evenodd" clip-rule="evenodd" d="M82.7574 71.176C83.5325 71.1757 84.29 70.9455 84.9342 70.5145C85.5784 70.0835 86.0803 69.4712 86.3763 68.7549C86.6723 68.0386 86.7493 67.2506 86.5973 66.4905C86.4454 65.7305 86.0714 65.0326 85.5227 64.4852C84.974 63.9378 84.2752 63.5655 83.5149 63.4153C82.7545 63.2651 81.9667 63.3439 81.2511 63.6416C80.5355 63.9393 79.9242 64.4426 79.4948 65.0878C79.0653 65.733 78.8369 66.4911 78.8384 67.2662C78.8408 68.305 79.2556 69.3004 79.9916 70.0336C80.7276 70.7667 81.7246 71.1776 82.7635 71.176H82.7574Z" fill="#6D8A3F"/>
<path fill-rule="evenodd" clip-rule="evenodd" d="M77.0643 67.4268C77.6067 67.0769 79.0995 65.8897 80.6228 65.2878C82.0186 64.7468 83.5462 64.6445 85.0017 64.9944C86.1267 65.2613 87.1873 65.7495 88.1216 66.4306C88.8978 66.9577 89.3653 67.4558 89.8924 67.5872C90.4195 67.7186 90.9772 67.5139 91.3133 67.3672C91.6495 67.2205 91.8114 67.0891 91.6647 67.1044C91.5181 67.1197 91.1086 67.2358 90.3767 66.646C89.6449 66.0563 88.5907 64.8004 87.3302 64.0823C86.0697 63.3642 84.58 63.2175 83.3027 63.3061C82.126 63.3604 80.9845 63.724 79.9933 64.3603C79.0261 64.9898 78.1598 65.9279 77.5319 66.6308C76.9039 67.3336 76.5082 67.7873 77.0643 67.4207V67.4268Z" fill="#48230C"/>
<path fill-rule="evenodd" clip-rule="evenodd" d="M90.9621 67.5151C90.3036 68.467 89.6436 69.4341 88.487 70.1798C87.1638 70.9863 85.6439 71.4124 84.0943 71.4112C82.4824 71.3822 80.9438 70.8245 80.2257 70.5617C79.8178 70.4089 79.6864 70.3707 79.6421 70.3555H79.6558C80.5793 70.7101 81.5439 70.9468 82.5267 71.0598C82.7847 71.0842 83.0438 71.0939 83.3029 71.0888C83.4039 71.106 83.506 71.1157 83.6084 71.1179C83.8154 71.1183 84.0213 71.0885 84.2196 71.0293C85.2795 70.9084 86.3076 70.5908 87.2509 70.0927C88.4961 69.4051 89.1837 68.496 89.8865 67.5885C90.2426 67.668 90.6141 67.6426 90.956 67.5151H90.9621Z" fill="#48230C"/>
<path fill-rule="evenodd" clip-rule="evenodd" d="M82.7575 69.3748C83.1761 69.3736 83.5849 69.2482 83.9322 69.0146C84.2796 68.7811 84.5499 68.4497 84.7089 68.0625C84.8679 67.6753 84.9084 67.2496 84.8255 66.8393C84.7425 66.429 84.5397 66.0525 84.2428 65.7575C83.9458 65.4625 83.5681 65.2622 83.1573 65.1819C82.7464 65.1016 82.321 65.1449 81.9349 65.3064C81.5487 65.468 81.2191 65.7404 80.9878 66.0892C80.7564 66.4381 80.6338 66.8477 80.6353 67.2663C80.6385 67.8269 80.8636 68.3634 81.2612 68.7585C81.6589 69.1536 82.1969 69.3752 82.7575 69.3748Z" fill="#323132"/>
<path fill-rule="evenodd" clip-rule="evenodd" d="M84.8078 67.6848C85.051 67.6848 85.2841 67.5882 85.4561 67.4163C85.628 67.2443 85.7246 67.0112 85.7246 66.768C85.7246 66.5249 85.628 66.2917 85.4561 66.1198C85.2841 65.9479 85.051 65.8513 84.8078 65.8513C84.5647 65.8513 84.3315 65.9479 84.1596 66.1198C83.9877 66.2917 83.8911 66.5249 83.8911 66.768C83.8911 67.0112 83.9877 67.2443 84.1596 67.4163C84.3315 67.5882 84.5647 67.6848 84.8078 67.6848Z" fill="white"/>
<path d="M93.393 70.1797V70.1507L93.451 70.0346L93.5106 69.9169L93.5687 69.7993L93.6267 69.6832L93.6726 69.5655L93.7306 69.4341L93.7734 69.3165L93.8315 69.1851L93.8758 69.0674L93.9201 68.9498L93.9644 68.8184L94.0072 68.687L94.053 68.5693L94.0973 68.4379L94.1401 68.3065L94.1844 68.1889L94.2134 68.0575L94.2562 67.9246L94.2868 67.7932L94.3158 67.6618L94.3448 67.5304L94.3738 67.3975L94.4044 67.2661L94.4334 67.1347L94.4625 67.0017L94.4915 66.8551L94.5052 66.7237L94.5358 66.5923L93.804 66.4746L93.7887 66.6075L93.7596 66.7389L93.7444 66.8551L93.7169 66.988L93.7001 67.1194L93.6726 67.237L93.642 67.3684L93.613 67.4861L93.5824 67.6022L93.5396 67.7351L93.5106 67.8528L93.4816 67.9689L93.4373 68.1003L93.4067 68.2179L93.3639 68.3356L93.3196 68.4532L93.2753 68.5693L93.2325 68.687L93.1882 68.8031L93.1439 68.9208L93.0996 69.0384L93.0568 69.1561L93.0125 69.2722L92.9545 69.3745L92.9101 69.4922L92.8506 69.6098L92.7925 69.7122L92.7497 69.8299L92.7329 69.8436L93.393 70.1797Z" fill="#323132"/>
<path d="M89.4384 74.6628L89.5118 74.6032L89.6141 74.5299L89.7165 74.4581L89.8204 74.3847L89.9212 74.3114L90.0251 74.2228L90.1275 74.1494L90.2283 74.0624L90.3322 73.989L90.4346 73.9004L90.537 73.8133L90.6256 73.74L90.728 73.6514L90.815 73.5643L90.9189 73.4757L91.006 73.3886L91.1084 73.2999L91.1955 73.1976L91.2841 73.109L91.3712 73.0219L91.4598 72.9195L91.5469 72.8309L91.634 72.7285L91.7241 72.6414L91.8112 72.5391L91.8998 72.4367L91.9716 72.3343L92.0587 72.232L92.1336 72.1433L92.1764 72.0853L91.5927 71.6453L91.5622 71.6896L91.4888 71.7767L91.4155 71.879L91.3269 71.9676L91.2535 72.0563L91.1817 72.1571L91.0946 72.2457L91.0198 72.3343L90.9327 72.4214L90.8441 72.51L90.757 72.5971L90.6836 72.6857L90.595 72.7728L90.5079 72.8614L90.4208 72.9348L90.3322 73.0219L90.2451 73.109L90.1412 73.1838L90.0542 73.2556L89.9655 73.3443L89.8632 73.4176L89.7761 73.4909L89.6722 73.578L89.5851 73.6514L89.4827 73.7247L89.3956 73.798L89.2917 73.8576L89.1894 73.9294L89.087 74.0043L89.0137 74.0471L89.4384 74.6628Z" fill="#323132"/>
<path d="M83.8009 76.6534L83.8727 76.6396L84.0056 76.6243L84.1523 76.6106L84.2837 76.5953L84.4151 76.58L84.5465 76.5663L84.6794 76.5372L84.8123 76.522L84.9437 76.4929L85.0751 76.4624L85.2065 76.4486L85.3379 76.4196L85.4693 76.3906L85.587 76.3615L85.7184 76.3172L85.8513 76.2882L85.9827 76.2592L86.1003 76.2149L86.2317 76.1843L86.3631 76.1415L86.4808 76.0972L86.6122 76.0682L86.7298 76.0239L86.8612 75.9796L86.9789 75.9215L87.095 75.8772L87.2264 75.8344L87.344 75.7901L87.4479 75.7458L87.1546 75.072L87.0675 75.1011L86.9498 75.1606L86.8322 75.2034L86.7145 75.2477L86.5984 75.292L86.4808 75.3211L86.3784 75.3654L86.2608 75.4097L86.1431 75.4387L86.0117 75.4815L85.8941 75.512L85.7764 75.5563L85.6603 75.5854L85.5442 75.6129L85.4265 75.6434L85.2951 75.6725L85.1775 75.7015L85.0598 75.7305L84.9284 75.7458L84.8123 75.7748L84.6947 75.7901L84.5633 75.8191L84.4456 75.8344L84.3127 75.8482L84.1966 75.8634L84.0637 75.8925H83.9323L83.8146 75.9062L83.7275 75.9215L83.8009 76.6534Z" fill="#323132"/>
<path d="M77.8984 75.6435L77.9275 75.6588L78.0589 75.7169L78.2055 75.7612L78.3385 75.8192L78.4699 75.8773L78.6013 75.9369L78.7464 75.9797L78.8793 76.024L79.026 76.0836L79.1574 76.1263L79.3041 76.1707L79.437 76.215L79.5822 76.244L79.7289 76.2883L79.8603 76.3311L80.0069 76.3616L80.1536 76.3907L80.285 76.4197L80.4317 76.4487L80.5784 76.4778L80.725 76.5083L80.8717 76.5374L81.0169 76.5511L81.1651 76.5801L81.3102 76.5954L81.4569 76.6107L81.5302 76.6244L81.6036 75.8926H81.5302L81.3989 75.8773L81.2675 75.8483L81.1192 75.8345L80.9878 75.804L80.8564 75.7902L80.7098 75.7612L80.5784 75.7306L80.447 75.7016L80.314 75.6726L80.1826 75.6435L80.0512 75.613L79.9046 75.5855L79.7732 75.5412L79.6402 75.5121L79.5088 75.4678L79.3774 75.4235L79.2445 75.3807L79.1269 75.3349L78.9955 75.2921L78.8641 75.2478L78.7327 75.1897L78.6013 75.1454L78.4836 75.0874L78.3522 75.0431L78.2346 74.985L78.2055 74.9697L77.8984 75.6435Z" fill="#323132"/>
<path d="M74.3252 73.1393L74.4276 73.2554L74.5299 73.3593L74.6476 73.4617L74.7499 73.564L74.8676 73.6511L74.9684 73.755L75.0861 73.8574L75.2037 73.9445L75.3061 74.0468L75.4237 74.1355L75.5414 74.2225L75.659 74.3112L75.7751 74.3982L75.8912 74.4869L75.9355 74.5159L76.3603 73.9154L76.316 73.8864L76.2151 73.8131L76.0975 73.7245L75.9951 73.6374L75.8775 73.564L75.7751 73.4754L75.659 73.3883L75.5551 73.2997L75.4527 73.1973L75.3504 73.1087L75.248 73.0216L75.1441 72.9193L75.0433 72.8306L74.9409 72.7283L74.837 72.6274L74.3252 73.1393Z" fill="#323132"/>
<path d="M46.5572 69.8436L46.5419 69.8299L46.4992 69.7122L46.4396 69.6098L46.3815 69.4922L46.3372 69.3745L46.2792 69.2722L46.2348 69.1561L46.1921 69.0384L46.1478 68.9208L46.1034 68.8031L46.0591 68.687L46.0164 68.5693L45.9705 68.4532L45.9262 68.3356L45.8834 68.2179L45.8544 68.1003L45.8101 67.9689L45.7811 67.8528L45.752 67.7351L45.7077 67.6022L45.6772 67.4861L45.6497 67.3684L45.6191 67.237L45.6054 67.1194L45.5763 66.988L45.5458 66.8551L45.532 66.7389L45.5015 66.6075L45.4877 66.4746L44.7559 66.5923L44.7849 66.7237L44.8002 66.8551L44.8277 67.0017L44.8582 67.1347L44.8873 67.2661L44.9178 67.3975L44.9453 67.5304L44.9759 67.6618L45.0049 67.7932L45.0339 67.9246L45.0767 68.0575L45.1073 68.1889L45.1516 68.3065L45.1944 68.4379L45.2387 68.5693L45.283 68.687L45.3273 68.8184L45.3701 68.9498L45.4144 69.0674L45.4587 69.1851L45.5183 69.3165L45.5611 69.4341L45.6191 69.5655L45.6634 69.6832L45.723 69.7993L45.7811 69.9169L45.8391 70.0346L45.8987 70.1507V70.1797L46.5572 69.8436Z" fill="#323132"/>
<path d="M50.278 74.0471L50.2031 74.0043L50.1023 73.9294L49.9984 73.8576L49.896 73.798L49.8089 73.7247L49.7051 73.6514L49.618 73.578L49.5156 73.4909L49.4285 73.4176L49.3246 73.3443L49.2375 73.2556L49.1489 73.1838L49.0618 73.109L48.9594 73.0219L48.8724 72.9348L48.7837 72.8614L48.6967 72.7728L48.608 72.6857L48.5347 72.5971L48.4476 72.51L48.359 72.4214L48.2857 72.3343L48.1986 72.2457L48.1099 72.1571L48.0366 72.0563L47.9633 71.9676L47.8747 71.879L47.8028 71.7767L47.7295 71.6896L47.6989 71.6453L47.1138 72.0853L47.1581 72.1433L47.2314 72.232L47.3185 72.3343L47.3918 72.4367L47.4805 72.5391L47.5675 72.6414L47.6562 72.7285L47.7433 72.8309L47.8319 72.9195L47.919 73.0219L48.0061 73.109L48.0962 73.1976L48.1833 73.2999L48.2857 73.3886L48.3727 73.4757L48.4751 73.5643L48.5653 73.6514L48.6661 73.74L48.7547 73.8133L48.8556 73.9004L48.9594 73.989L49.0618 74.0624L49.1642 74.1494L49.2666 74.2228L49.3704 74.3114L49.4713 74.3847L49.5737 74.4581L49.6775 74.5299L49.7799 74.6032L49.8533 74.6628L50.278 74.0471Z" fill="#323132"/>
<path d="M55.5646 75.9215L55.4775 75.9062L55.3599 75.8925H55.2285L55.1108 75.8634L54.9794 75.8482L54.848 75.8344L54.7304 75.8191L54.6127 75.7901L54.4813 75.7748L54.3637 75.7458L54.2308 75.7305L54.1147 75.7015L53.9985 75.6725L53.8656 75.6434L53.7495 75.6129L53.6319 75.5854L53.5142 75.5563L53.3981 75.512L53.2804 75.4815L53.1628 75.4387L53.0451 75.4097L52.929 75.3654L52.8114 75.3211L52.6937 75.292L52.5761 75.2477L52.46 75.2034L52.3439 75.1606L52.2262 75.1011L52.1376 75.072L51.8442 75.7458L51.9466 75.7901L52.0795 75.8344L52.1956 75.8772L52.3133 75.9215L52.4447 75.9796L52.5623 76.0239L52.68 76.0682L52.8114 76.0972L52.9428 76.1415L53.0604 76.1843L53.1918 76.2149L53.3079 76.2592L53.4424 76.2882L53.5738 76.3172L53.7052 76.3615L53.8213 76.3906L53.9542 76.4196L54.0856 76.4486L54.217 76.4624L54.3484 76.4929L54.4813 76.522L54.6127 76.5372L54.7441 76.5663L54.8771 76.58L55.0069 76.5953L55.1399 76.6106L55.2865 76.6243L55.4179 76.6396L55.4913 76.6534L55.5646 75.9215Z" fill="#323132"/>
<path d="M61.086 74.9697L61.0554 74.985L60.9393 75.0431L60.8064 75.0874L60.6903 75.1454L60.5573 75.1897L60.4259 75.2478L60.2945 75.2921L60.1631 75.3349L60.0455 75.3807L59.9141 75.4235L59.7812 75.4678L59.6498 75.5121L59.5184 75.5412L59.387 75.5855L59.2556 75.613L59.1074 75.6435L58.976 75.6726L58.8446 75.7016L58.7132 75.7306L58.5818 75.7612L58.4336 75.7902L58.3022 75.804L58.1708 75.8345L58.0256 75.8483L57.8927 75.8773L57.7613 75.8926H57.688L57.7613 76.6244L57.8347 76.6107L57.9813 76.5954L58.1265 76.5801L58.2747 76.5511L58.4198 76.5374L58.5665 76.5083L58.7132 76.4778L58.8583 76.4487L59.0065 76.4197L59.1379 76.3907L59.2831 76.3616L59.4313 76.3311L59.5764 76.2883L59.7094 76.244L59.856 76.215L59.9874 76.1707L60.1326 76.1263L60.2655 76.0836L60.4122 76.024L60.5436 75.9797L60.6903 75.9369L60.8217 75.8773L60.9546 75.8192L61.0997 75.7612L61.2311 75.7169L61.3625 75.6588L61.3931 75.6435L61.086 74.9697Z" fill="#323132"/>
<path d="M64.4535 72.6274L64.3511 72.7283L64.2487 72.8306L64.1464 72.9193L64.044 73.0216L63.9416 73.1087L63.8393 73.1973L63.7354 73.2997L63.6345 73.3883L63.5169 73.4754L63.4145 73.564L63.2969 73.6374L63.1945 73.7245L63.0769 73.8131L62.9745 73.8864L62.9302 73.9154L63.3549 74.5159L63.3992 74.4869L63.5169 74.3982L63.6345 74.3112L63.7506 74.2225L63.8668 74.1355L63.9844 74.0468L64.1021 73.9445L64.206 73.8574L64.3221 73.755L64.4397 73.6511L64.5421 73.564L64.6445 73.4617L64.7621 73.3593L64.8645 73.2554L64.9653 73.1393L64.4535 72.6274Z" fill="#323132"/>
<path d="M69.1411 75.3945V75.5993V76.7421V77.8987V79.0553H69.873V77.8987V76.7421V75.5993V75.3945H69.1411Z" fill="#323132"/>
<path d="M69.1411 69.5366V69.83V70.9866V72.1279V73.1974H69.873V72.1279V70.9866V69.83V69.5366H69.1411Z" fill="#323132"/>
<path d="M69.1411 63.6772V64.073V65.2158V66.3739V67.3396H69.873V66.3739V65.2158V64.073V63.6772H69.1411Z" fill="#323132"/>
<path d="M69.873 60.6016H69.1411V61.4801H69.873V60.6016Z" fill="#323132"/>
<path d="M84.1218 90.5527L83.9614 90.6551L83.639 90.8598L82.9958 91.2556L82.3357 91.6666L81.6772 92.0607L81.0034 92.4565L81.3839 93.086L82.0424 92.6902L82.7162 92.2808L83.3762 91.885L84.021 91.4756L84.3571 91.2846L84.5191 91.1822L84.1218 90.5527Z" fill="#323132"/>
<path d="M88.8982 87.228L88.7805 87.3304L88.5025 87.5504L88.2244 87.7704L87.9448 87.9752L87.6514 88.1952L87.3749 88.3999L87.0678 88.6046L86.7744 88.8247L86.4811 89.0294L86.174 89.2341L85.9692 89.3655L86.3787 89.9813L86.5834 89.8346L86.8921 89.6299L87.1992 89.4251L87.4925 89.2051L87.7996 89.0004L88.0915 88.7804L88.3848 88.5603L88.6782 88.3419L88.9562 88.1203L89.2343 87.9018L89.352 87.8132L88.8982 87.228Z" fill="#323132"/>
<path d="M90.553 85.7781L90.5225 85.8071L91.0358 86.3342L91.0649 86.3052L90.553 85.7781Z" fill="#323132"/>
<path d="M92.8812 83.0828L92.8216 83.1714L92.6322 83.4204L92.4412 83.6695L92.2517 83.9032L92.0592 84.1523L91.856 84.386L91.7521 84.5037L91.6513 84.6213L91.5474 84.739L91.445 84.8551L91.3274 84.9727L91.2265 85.0889L91.1226 85.2065L91.0065 85.3242L90.8889 85.4418L90.7865 85.5579L90.6704 85.6756L90.5527 85.7779L91.0646 86.3051L91.1822 86.1874L91.2999 86.0713L91.416 85.9536L91.5336 85.8375L91.6513 85.7199L91.7689 85.5869L91.8698 85.4708L91.9874 85.3532L92.0898 85.2218L92.2074 85.1041L92.3083 84.988L92.4122 84.8551L92.6184 84.6061L92.8216 84.357L93.0264 84.108L93.2173 83.8589L93.4068 83.6114L93.4664 83.5228L92.8812 83.0828Z" fill="#323132"/>
<path d="M95.9123 78.1477L95.8237 78.3097L95.5303 78.8368L95.2385 79.3624L94.9451 79.8757L94.7985 80.1401L94.638 80.4029L94.4914 80.6519L94.3309 80.9162L94.169 81.1637L94.0972 81.2967L94.7114 81.6924L94.7985 81.5595L94.9604 81.2967L95.1224 81.0324L95.2675 80.7696L95.4295 80.5052L95.5746 80.2424L95.8833 79.7153L96.1766 79.1882L96.4684 78.6595L96.557 78.4991L95.9123 78.1477Z" fill="#323132"/>
<path d="M54.3052 91.1822L54.4809 91.2846L54.8033 91.4756L55.4618 91.885L56.1203 92.2808L56.7788 92.6902L57.4389 93.086L57.8193 92.4565L57.1592 92.0607L56.5023 91.6666L55.8422 91.2556L55.1837 90.8598L54.8613 90.6551L54.6994 90.5527L54.3052 91.1822Z" fill="#323132"/>
<path d="M49.4712 87.8132L49.5888 87.9018L49.8669 88.1203L50.1603 88.3419L50.4383 88.5603L50.7317 88.7804L51.0388 89.0004L51.3321 89.2051L51.6392 89.4251L51.9463 89.6299L52.255 89.8346L52.4597 89.9813L52.8554 89.3655L52.6645 89.2341L52.3573 89.0294L52.0502 88.8247L51.7569 88.6046L51.4635 88.3999L51.1702 88.1952L50.8784 87.9752L50.6003 87.7704L50.3207 87.5504L50.0441 87.3304L49.9265 87.228L49.4712 87.8132Z" fill="#323132"/>
<path d="M47.7734 86.3052L47.8025 86.3342L48.299 85.8071L48.2715 85.7781L47.7734 86.3052Z" fill="#323132"/>
<path d="M45.3564 83.5228L45.4145 83.6114L45.6055 83.8589L45.8102 84.108L46.0012 84.357L46.2059 84.6061L46.4107 84.8551L46.513 84.988L46.6307 85.1041L46.7331 85.2218L46.8507 85.3532L46.9531 85.4708L47.0692 85.5869L47.1731 85.7199L47.2892 85.8375L47.4069 85.9536L47.5245 86.0713L47.6406 86.1874L47.7735 86.3051L48.2716 85.7779L48.1677 85.6756L48.0516 85.5579L47.934 85.4418L47.8163 85.3242L47.7155 85.2065L47.5978 85.0889L47.4939 84.9727L47.3916 84.8551L47.2739 84.739L47.1731 84.6213L47.0692 84.5037L46.9668 84.386L46.7758 84.1523L46.5711 83.9032L46.3817 83.6695L46.1922 83.4204L46.0165 83.1714L45.9432 83.0828L45.3564 83.5228Z" fill="#323132"/>
<path d="M42.2656 78.4991L42.3542 78.6595L42.6476 79.1882L42.9547 79.7153L43.2465 80.2424L43.3947 80.5052L43.5552 80.7696L43.7156 81.0324L43.8638 81.2967L44.0227 81.5595L44.1113 81.6924L44.727 81.2967L44.6537 81.1637L44.4917 80.9162L44.3313 80.6519L44.1846 80.4029L44.038 80.1401L43.8775 79.8757L43.5842 79.3624L43.2908 78.8368L42.9975 78.3097L42.9104 78.1477L42.2656 78.4991Z" fill="#323132"/>
<path d="M69.1411 102.546V102.899V103.309V103.734V104.143V104.554V104.963V105.373V105.798V106.209H69.873V105.798V105.373V104.963V104.554V104.143V103.734V103.309V102.899V102.546H69.1411Z" fill="#323132"/>
<path d="M69.1411 99.6038V100.013V100.349H69.873V100.013V99.6038H69.1411Z" fill="#323132"/>
<path d="M57.5257 102.824L57.1025 102.444L56.6472 102.034L56.1781 101.623L55.7244 101.2L55.2721 100.789L54.8168 100.365L54.334 100.907L54.7878 101.332L55.2415 101.741L55.6953 102.166L56.1491 102.575L56.6029 102.986L57.0444 103.367L57.5257 102.824Z" fill="#323132"/>
<path d="M62.0533 106.471L61.9494 106.398L61.7157 106.238L61.4804 106.062L61.2466 105.886L61.0128 105.71L60.7791 105.535L60.5438 105.359L60.31 105.168L60.0747 104.992L59.8562 104.801L59.6209 104.612L59.3872 104.422L59.1824 104.26L58.7134 104.817L58.9181 104.992L59.1519 105.183L59.3872 105.373L59.6209 105.564L59.8562 105.739L60.0885 105.93L60.339 106.12L60.5728 106.296L60.8066 106.471L61.0556 106.647L61.2909 106.823L61.5399 106.998L61.6423 107.072L62.0533 106.471Z" fill="#323132"/>
<path d="M67.1195 109.138L67.0018 109.093L66.8704 109.064L66.7528 109.02L66.6367 108.976L66.519 108.931L66.4014 108.889L66.27 108.844L66.1523 108.786L66.0362 108.742L65.9186 108.684L65.8009 108.639L65.6695 108.581L65.5519 108.522L65.3181 108.419L65.0691 108.303L64.8338 108.17L64.5847 108.054L64.351 107.921L64.1019 107.776L63.8834 107.643L63.5015 108.273L63.7505 108.419L64.0011 108.551L64.2486 108.698L64.4976 108.829L64.7467 108.947L64.9957 109.078L65.2448 109.196L65.3762 109.255L65.5076 109.313L65.6252 109.356L65.7566 109.416L65.8743 109.474L66.0057 109.518L66.1386 109.562L66.2562 109.62L66.3876 109.665L66.519 109.709L66.6367 109.752L66.7681 109.796L66.8995 109.84L67.1195 109.138Z" fill="#323132"/>
<path d="M69.7997 109.578H69.6836H69.5797L69.462 109.562H69.3459L69.2283 109.547H69.1993L69.1274 110.28H69.1855L69.3016 110.294H69.4345L69.5522 110.31H69.6836H69.815L69.7997 109.578Z" fill="#323132"/>
<path d="M72.6264 109.006H72.6126L72.495 109.049L72.3926 109.093L72.275 109.122L72.1573 109.167L72.0565 109.196L71.9388 109.24L71.8349 109.269L71.7188 109.298L71.6012 109.327L71.4988 109.356L71.3827 109.387L71.265 109.401L71.1627 109.431L71.045 109.445L70.9274 109.474L70.825 109.489L70.7074 109.503L70.5912 109.518L70.4889 109.532L70.3712 109.547H70.2536L70.1359 109.562H70.0336L69.9174 109.578H69.7998L69.8151 110.31H69.9312L70.0641 110.294H70.1802L70.3116 110.281L70.4293 110.265H70.5607L70.6783 110.252L70.8097 110.236L70.9274 110.206L71.0588 110.192L71.1764 110.177L71.2941 110.148L71.4255 110.119L71.5431 110.09L71.6592 110.061L71.7922 110.03L71.9083 110.003L72.0259 109.972L72.1436 109.943L72.275 109.899L72.3926 109.87L72.5087 109.825L72.6264 109.781L72.744 109.738L72.8617 109.694H72.8754L72.6264 109.006Z" fill="#323132"/>
<path d="M76.8001 106.603L76.5954 106.765L76.3907 106.912L76.1706 107.058L75.9659 107.205L75.7459 107.336L75.5412 107.483L75.3211 107.614L75.1164 107.746L74.8964 107.879L74.6917 108.01L74.5435 108.084L74.9101 108.728L75.0568 108.64L75.2768 108.508L75.4968 108.375L75.7169 108.229L75.9353 108.097L76.1554 107.951L76.3754 107.805L76.5954 107.659L76.8001 107.512L77.0201 107.352L77.2402 107.205L76.8001 106.603Z" fill="#323132"/>
<path d="M77.5321 106.062L77.4145 106.149L77.2098 106.296L77.005 106.456L76.8003 106.603L77.2403 107.205L77.4451 107.043L77.6498 106.882L77.8698 106.736L77.9722 106.647L77.5321 106.062Z" fill="#323132"/>
<path d="M81.9704 102.284H81.9552L81.5747 102.635L81.1927 102.987L80.7986 103.338L80.4181 103.674L80.0224 104.027L79.6267 104.363L79.231 104.699L79.7 105.257L80.0942 104.919L80.5052 104.583L80.9009 104.232L81.2814 103.88L81.6771 103.527L82.0728 103.177L82.4532 102.825H82.467L81.9704 102.284Z" fill="#323132"/>
<path d="M73.5043 56.5466L73.3439 56.6337L73.1819 56.7361L73.02 56.8247L72.8611 56.9271L72.6991 57.0142L72.5372 57.1028L72.3767 57.2051L72.2148 57.2922L72.0559 57.3808L71.8939 57.4832L71.732 57.5703L71.5715 57.6589L71.4096 57.7613L71.2491 57.8499L71.0887 57.937L70.9268 58.0394L71.1025 58.348L71.2644 58.2594L71.4249 58.1723L71.5868 58.0684L71.7472 57.9813L71.9077 57.8942L72.0696 57.7903L72.2301 57.7032L72.392 57.6146L72.5524 57.5122L72.7129 57.4236L72.8748 57.3365L73.0368 57.2342L73.1972 57.1456L73.3576 57.0585L73.5196 56.9561L73.68 56.8675L73.5043 56.5466Z" fill="#323132"/>
<path fill-rule="evenodd" clip-rule="evenodd" d="M76.2152 55.1975L72.6553 55.4038L74.2519 58.1723L76.2152 55.1975Z" fill="#323132"/>
<path d="M79.9186 53.6313L79.7444 53.6894L79.5687 53.7627L79.393 53.8208L79.2173 53.8804L79.0416 53.9537L78.8644 54.0118L78.6886 54.0699L78.5129 54.1447L78.3388 54.2028L78.1631 54.2761L78.0011 54.3342L77.8254 54.3922L77.6497 54.4656L77.4724 54.5252L77.2967 54.5985L77.1226 54.6566L77.254 54.9942L77.4144 54.9346L77.5901 54.8766L77.7658 54.8032L77.9415 54.7436L78.1187 54.6718L78.2945 54.6122L78.4702 54.5542L78.6459 54.4808L78.82 54.4228L78.9958 54.3632L79.1715 54.2899L79.3487 54.2318L79.5244 54.1585L79.6864 54.0989L79.8605 54.0408L80.0362 53.969L79.9186 53.6313Z" fill="#323132"/>
<path fill-rule="evenodd" clip-rule="evenodd" d="M82.8185 52.7529L79.2754 52.3572L80.3739 55.3594L82.8185 52.7529Z" fill="#323132"/>
<path d="M86.5251 51.8149L86.3341 51.844L86.1584 51.873L85.969 51.9188L85.7933 51.9479L85.6023 51.9769L85.4266 52.0059L85.2371 52.0502L85.0599 52.0793L84.8704 52.1083L84.6947 52.1373L84.5037 52.1816L84.328 52.2107L84.1386 52.2397L83.9614 52.2687L83.7719 52.313L83.5962 52.3436L83.6543 52.7088L83.83 52.6644L84.0209 52.6354L84.1966 52.6064L84.3876 52.5774L84.5633 52.533L84.7528 52.504L84.9285 52.475L85.1195 52.4307L85.2952 52.4016L85.4846 52.3726L85.6604 52.3436L85.8513 52.2993L86.027 52.2687L86.218 52.2397L86.3937 52.2107L86.5832 52.1664L86.5251 51.8149Z" fill="#323132"/>
<path fill-rule="evenodd" clip-rule="evenodd" d="M89.5271 51.4498L86.1001 50.4536L86.67 53.5873L89.5271 51.4498Z" fill="#323132"/>
<path d="M65.4648 56.7209L65.6253 56.8248L65.7872 56.9119L65.9477 56.999L66.1081 57.1029L66.27 57.19L66.4305 57.2923L66.5924 57.381L66.7528 57.4681L66.9133 57.5704L67.0752 57.659L67.2372 57.7477L67.3976 57.85L67.5596 57.9371L67.72 58.0257L67.8804 58.1266L68.0424 58.2152L68.2181 57.8943L68.0561 57.8057L67.8957 57.7171L67.7353 57.6147L67.5733 57.5276L67.4114 57.439L67.2509 57.3367L67.0905 57.2496L66.9301 57.1609L66.7681 57.0586L66.6062 56.97L66.4457 56.8829L66.2838 56.7805L66.1234 56.6919L65.9629 56.5895L65.801 56.5024L65.639 56.4138L65.4648 56.7209Z" fill="#323132"/>
<path fill-rule="evenodd" clip-rule="evenodd" d="M62.9453 55.0522L64.9071 58.0392L66.4885 55.2723L62.9453 55.0522Z" fill="#323132"/>
<path d="M59.1074 53.8363L59.2831 53.8959L59.4604 53.9692L59.6361 54.0273L59.8118 54.0853L59.9737 54.1587L60.1479 54.2167L60.3236 54.2901L60.4993 54.3496L60.675 54.4077L60.8507 54.481L61.028 54.5391L61.2037 54.5987L61.3794 54.672L61.5536 54.7301L61.7293 54.8034L61.905 54.8615L62.0226 54.5253L61.8469 54.452L61.6712 54.3924L61.497 54.3206L61.3351 54.261L61.1594 54.203L60.9821 54.1296L60.8064 54.07L60.6307 53.9982L60.455 53.9386L60.2808 53.8806L60.1051 53.8072L59.9294 53.7492L59.7522 53.6896L59.5765 53.6178L59.4008 53.5582L59.2251 53.4849L59.1074 53.8363Z" fill="#323132"/>
<path fill-rule="evenodd" clip-rule="evenodd" d="M56.3267 52.6215L58.7713 55.2128L59.8698 52.2258L56.3267 52.6215Z" fill="#323132"/>
<path d="M52.562 52.0348L52.7515 52.0639L52.9287 52.1082L53.1182 52.1372L53.2939 52.1662L53.4849 52.1968L53.6606 52.2396L53.85 52.2686L54.0257 52.2992L54.2167 52.3282L54.3924 52.3725L54.5834 52.4015L54.7591 52.4306L54.9486 52.4596L55.1243 52.5039L55.3152 52.5329L55.491 52.562L55.5643 52.2105L55.3733 52.1662L55.1976 52.1372L55.0066 52.1082L54.8309 52.0791L54.6415 52.0348L54.4657 52.0058L54.2748 51.9768L54.0991 51.9478L53.9096 51.9034L53.7339 51.8729L53.5429 51.8439L53.3672 51.8011L53.1762 51.772L53.0005 51.7415L52.8111 51.7125L52.6354 51.6697L52.562 52.0348Z" fill="#323132"/>
<path fill-rule="evenodd" clip-rule="evenodd" d="M49.6177 51.3169L52.4748 53.4559L53.0447 50.3223L49.6177 51.3169Z" fill="#323132"/>
<path fill-rule="evenodd" clip-rule="evenodd" d="M62.7406 69.4173C62.545 69.4708 62.2486 69.4647 61.7964 69.5289C61.8374 69.2697 61.8992 69.0142 61.9813 68.765C62.0653 68.4731 62.5924 68.5954 62.8842 68.6901L62.9285 68.765C63.1012 69.0965 63.063 69.3302 62.7406 69.4173Z" fill="#EF6F35"/>
<path fill-rule="evenodd" clip-rule="evenodd" d="M76.4889 69.4771C76.3276 69.4702 76.1672 69.4503 76.0091 69.4175C75.6867 69.3304 75.6424 69.0966 75.8181 68.759C75.8513 68.696 75.8885 68.6352 75.9297 68.5771C76.1115 68.5771 76.2673 68.6108 76.3101 68.759C76.3862 68.9939 76.4459 69.2339 76.4889 69.4771Z" fill="#EF6F35"/>
</svg>
